%TF.GenerationSoftware,KiCad,Pcbnew,9.0.4*%
%TF.CreationDate,2025-09-17T14:50:29+08:00*%
%TF.ProjectId,YUV Circuit,59555620-4369-4726-9375-69742e6b6963,rev?*%
%TF.SameCoordinates,Original*%
%TF.FileFunction,Copper,L2,Bot*%
%TF.FilePolarity,Positive*%
%FSLAX46Y46*%
G04 Gerber Fmt 4.6, Leading zero omitted, Abs format (unit mm)*
G04 Created by KiCad (PCBNEW 9.0.4) date 2025-09-17 14:50:29*
%MOMM*%
%LPD*%
G01*
G04 APERTURE LIST*
G04 Aperture macros list*
%AMRoundRect*
0 Rectangle with rounded corners*
0 $1 Rounding radius*
0 $2 $3 $4 $5 $6 $7 $8 $9 X,Y pos of 4 corners*
0 Add a 4 corners polygon primitive as box body*
4,1,4,$2,$3,$4,$5,$6,$7,$8,$9,$2,$3,0*
0 Add four circle primitives for the rounded corners*
1,1,$1+$1,$2,$3*
1,1,$1+$1,$4,$5*
1,1,$1+$1,$6,$7*
1,1,$1+$1,$8,$9*
0 Add four rect primitives between the rounded corners*
20,1,$1+$1,$2,$3,$4,$5,0*
20,1,$1+$1,$4,$5,$6,$7,0*
20,1,$1+$1,$6,$7,$8,$9,0*
20,1,$1+$1,$8,$9,$2,$3,0*%
G04 Aperture macros list end*
%TA.AperFunction,ComponentPad*%
%ADD10C,5.600000*%
%TD*%
%TA.AperFunction,ComponentPad*%
%ADD11C,2.000000*%
%TD*%
%TA.AperFunction,ComponentPad*%
%ADD12RoundRect,0.250000X0.750000X-0.750000X0.750000X0.750000X-0.750000X0.750000X-0.750000X-0.750000X0*%
%TD*%
%TA.AperFunction,ViaPad*%
%ADD13C,0.600000*%
%TD*%
G04 APERTURE END LIST*
D10*
%TO.P,REF\u002A\u002A,1*%
%TO.N,N/C*%
X196000000Y-134000000D03*
%TD*%
%TO.P,REF\u002A\u002A,1*%
%TO.N,N/C*%
X153000000Y-134000000D03*
%TD*%
%TO.P,REF\u002A\u002A,1*%
%TO.N,N/C*%
X196000000Y-90000000D03*
%TD*%
%TO.P,REF\u002A\u002A,1*%
%TO.N,N/C*%
X153000000Y-90100000D03*
%TD*%
D11*
%TO.P,Y2,1,1*%
%TO.N,Net-(CY1-Pad2)*%
X151900000Y-98700000D03*
%TD*%
%TO.P,R-Y1,1,1*%
%TO.N,Net-(CR4-Pad2)*%
X182500000Y-89000000D03*
%TD*%
%TO.P,PR1,1,1*%
%TO.N,/PR*%
X182500000Y-135000000D03*
%TD*%
%TO.P,B-Y1,1,1*%
%TO.N,Net-(B-Y1-Pad1)*%
X170000000Y-89000000D03*
%TD*%
%TO.P,PB1,1,1*%
%TO.N,/PB*%
X170500000Y-135000000D03*
%TD*%
%TO.P,Y1,1,1*%
%TO.N,/Y*%
X151900000Y-108700000D03*
%TD*%
D12*
%TO.P,C81,1*%
%TO.N,Net-(QB2-C)*%
X161867677Y-121000000D03*
D11*
%TO.P,C81,2*%
%TO.N,GNDPWR*%
X161867677Y-116000000D03*
%TD*%
D13*
%TO.N,GNDPWR*%
X181200000Y-87700000D03*
X183800000Y-87700000D03*
X183800000Y-90300000D03*
X181200000Y-90300000D03*
X168700000Y-87700000D03*
X171300000Y-87700000D03*
X171300000Y-90300000D03*
X168700000Y-90300000D03*
X181200000Y-136300000D03*
X183800000Y-136300000D03*
X183800000Y-133700000D03*
X181200000Y-133700000D03*
X171800000Y-136300000D03*
X169200000Y-136300000D03*
X171800000Y-133700000D03*
X169200000Y-133700000D03*
X150600000Y-100000000D03*
X153200000Y-100000000D03*
X153200000Y-97400000D03*
X150600000Y-97400000D03*
X150600000Y-110000000D03*
X153200000Y-110000000D03*
X153200000Y-107400000D03*
X150600000Y-107400000D03*
X155400000Y-101200000D03*
X156900000Y-102700000D03*
X150500000Y-120000000D03*
X188500000Y-117500000D03*
X188500000Y-100500000D03*
X176500000Y-94500000D03*
X152000000Y-121500000D03*
X189000000Y-105500000D03*
X176000000Y-100000000D03*
X168000000Y-127000000D03*
X166500000Y-128500000D03*
X177500000Y-132000000D03*
X177500000Y-116500000D03*
X176500000Y-91500000D03*
X176500000Y-107500000D03*
X150875000Y-118875000D03*
X152000000Y-118500000D03*
X153000000Y-121000000D03*
X190000000Y-103000000D03*
X189000000Y-94500000D03*
X190000000Y-99500000D03*
X153500000Y-120000000D03*
X176500000Y-104000000D03*
X190000000Y-93000000D03*
X177500000Y-99000000D03*
X190000000Y-116500000D03*
X189000000Y-102000000D03*
X176000000Y-133000000D03*
X177500000Y-103000000D03*
X184500000Y-132500000D03*
X189000000Y-104000000D03*
X176500000Y-102000000D03*
X189000000Y-107500000D03*
X177500000Y-111000000D03*
X153125000Y-118875000D03*
X172500000Y-132500000D03*
X176500000Y-105500000D03*
X190000000Y-106500000D03*
X188500000Y-112500000D03*
X190000000Y-111500000D03*
X186500000Y-132000000D03*
X151000000Y-121000000D03*
X165000000Y-127000000D03*
X176000000Y-112000000D03*
X172500000Y-129500000D03*
X188000000Y-133000000D03*
X176000000Y-117500000D03*
X185500000Y-131000000D03*
X177500000Y-106500000D03*
%TD*%
%TA.AperFunction,Conductor*%
%TO.N,GNDPWR*%
G36*
X194206593Y-87020185D02*
G01*
X194252348Y-87072989D01*
X194262292Y-87142147D01*
X194233267Y-87205703D01*
X194208445Y-87227602D01*
X194031532Y-87345811D01*
X194031518Y-87345821D01*
X193780841Y-87551546D01*
X193551546Y-87780841D01*
X193345821Y-88031518D01*
X193345811Y-88031532D01*
X193165657Y-88301151D01*
X193165646Y-88301169D01*
X193012788Y-88587145D01*
X193012786Y-88587150D01*
X192888686Y-88886752D01*
X192794548Y-89197086D01*
X192794545Y-89197097D01*
X192731287Y-89515125D01*
X192731284Y-89515142D01*
X192699500Y-89837860D01*
X192699500Y-90162139D01*
X192731284Y-90484857D01*
X192731287Y-90484874D01*
X192794545Y-90802902D01*
X192794548Y-90802913D01*
X192888686Y-91113247D01*
X193012786Y-91412849D01*
X193012788Y-91412854D01*
X193165646Y-91698830D01*
X193165657Y-91698848D01*
X193345811Y-91968467D01*
X193345821Y-91968481D01*
X193551546Y-92219158D01*
X193780841Y-92448453D01*
X193780846Y-92448457D01*
X193780847Y-92448458D01*
X194031524Y-92654183D01*
X194301158Y-92834347D01*
X194301167Y-92834352D01*
X194301169Y-92834353D01*
X194587145Y-92987211D01*
X194587147Y-92987211D01*
X194587153Y-92987215D01*
X194886754Y-93111314D01*
X195197077Y-93205449D01*
X195197083Y-93205450D01*
X195197086Y-93205451D01*
X195197097Y-93205454D01*
X195396528Y-93245122D01*
X195515132Y-93268714D01*
X195837857Y-93300500D01*
X195837860Y-93300500D01*
X196162140Y-93300500D01*
X196162143Y-93300500D01*
X196484868Y-93268714D01*
X196642295Y-93237399D01*
X196802902Y-93205454D01*
X196802913Y-93205451D01*
X196802913Y-93205450D01*
X196802923Y-93205449D01*
X197113246Y-93111314D01*
X197412847Y-92987215D01*
X197698842Y-92834347D01*
X197968476Y-92654183D01*
X198219153Y-92448458D01*
X198448458Y-92219153D01*
X198654183Y-91968476D01*
X198772398Y-91791554D01*
X198826010Y-91746749D01*
X198895335Y-91738042D01*
X198958362Y-91768196D01*
X198995082Y-91827639D01*
X198999500Y-91860445D01*
X198999500Y-132139554D01*
X198979815Y-132206593D01*
X198927011Y-132252348D01*
X198857853Y-132262292D01*
X198794297Y-132233267D01*
X198772398Y-132208445D01*
X198654188Y-132031532D01*
X198654183Y-132031524D01*
X198448458Y-131780847D01*
X198448457Y-131780846D01*
X198448453Y-131780841D01*
X198219158Y-131551546D01*
X197968481Y-131345821D01*
X197968480Y-131345820D01*
X197968476Y-131345817D01*
X197698842Y-131165653D01*
X197698837Y-131165650D01*
X197698830Y-131165646D01*
X197412854Y-131012788D01*
X197412849Y-131012786D01*
X197113247Y-130888686D01*
X196802913Y-130794548D01*
X196802902Y-130794545D01*
X196484874Y-130731287D01*
X196484857Y-130731284D01*
X196240812Y-130707248D01*
X196162143Y-130699500D01*
X195837857Y-130699500D01*
X195765099Y-130706666D01*
X195515142Y-130731284D01*
X195515125Y-130731287D01*
X195197097Y-130794545D01*
X195197086Y-130794548D01*
X194886752Y-130888686D01*
X194587150Y-131012786D01*
X194587145Y-131012788D01*
X194301169Y-131165646D01*
X194301151Y-131165657D01*
X194031532Y-131345811D01*
X194031518Y-131345821D01*
X193780841Y-131551546D01*
X193551546Y-131780841D01*
X193345821Y-132031518D01*
X193345811Y-132031532D01*
X193165657Y-132301151D01*
X193165646Y-132301169D01*
X193012788Y-132587145D01*
X193012786Y-132587150D01*
X192888686Y-132886752D01*
X192794548Y-133197086D01*
X192794545Y-133197097D01*
X192731287Y-133515125D01*
X192731284Y-133515142D01*
X192699500Y-133837860D01*
X192699500Y-134162139D01*
X192731284Y-134484857D01*
X192731287Y-134484874D01*
X192794545Y-134802902D01*
X192794548Y-134802913D01*
X192794550Y-134802922D01*
X192794551Y-134802923D01*
X192888686Y-135113246D01*
X192987320Y-135351368D01*
X193012786Y-135412849D01*
X193012788Y-135412854D01*
X193165646Y-135698830D01*
X193165657Y-135698848D01*
X193345811Y-135968467D01*
X193345821Y-135968481D01*
X193551546Y-136219158D01*
X193780841Y-136448453D01*
X193780846Y-136448457D01*
X193780847Y-136448458D01*
X194031524Y-136654183D01*
X194208445Y-136772398D01*
X194253250Y-136826010D01*
X194261957Y-136895335D01*
X194231803Y-136958362D01*
X194172360Y-136995082D01*
X194139554Y-136999500D01*
X154860446Y-136999500D01*
X154793407Y-136979815D01*
X154747652Y-136927011D01*
X154737708Y-136857853D01*
X154766733Y-136794297D01*
X154791555Y-136772398D01*
X154968476Y-136654183D01*
X155219153Y-136448458D01*
X155448458Y-136219153D01*
X155654183Y-135968476D01*
X155834347Y-135698842D01*
X155987215Y-135412847D01*
X156111314Y-135113246D01*
X156181491Y-134881902D01*
X168999500Y-134881902D01*
X168999500Y-135118097D01*
X169036446Y-135351368D01*
X169109433Y-135575996D01*
X169206619Y-135766732D01*
X169216657Y-135786433D01*
X169355483Y-135977510D01*
X169522490Y-136144517D01*
X169713567Y-136283343D01*
X169812991Y-136334002D01*
X169924003Y-136390566D01*
X169924005Y-136390566D01*
X169924008Y-136390568D01*
X170044412Y-136429689D01*
X170148631Y-136463553D01*
X170381903Y-136500500D01*
X170381908Y-136500500D01*
X170618097Y-136500500D01*
X170851368Y-136463553D01*
X170897825Y-136448458D01*
X171075992Y-136390568D01*
X171286433Y-136283343D01*
X171477510Y-136144517D01*
X171644517Y-135977510D01*
X171783343Y-135786433D01*
X171890568Y-135575992D01*
X171963553Y-135351368D01*
X172000500Y-135118097D01*
X172000500Y-134881902D01*
X180999500Y-134881902D01*
X180999500Y-135118097D01*
X181036446Y-135351368D01*
X181109433Y-135575996D01*
X181206619Y-135766732D01*
X181216657Y-135786433D01*
X181355483Y-135977510D01*
X181522490Y-136144517D01*
X181713567Y-136283343D01*
X181812991Y-136334002D01*
X181924003Y-136390566D01*
X181924005Y-136390566D01*
X181924008Y-136390568D01*
X182044412Y-136429689D01*
X182148631Y-136463553D01*
X182381903Y-136500500D01*
X182381908Y-136500500D01*
X182618097Y-136500500D01*
X182851368Y-136463553D01*
X182897825Y-136448458D01*
X183075992Y-136390568D01*
X183286433Y-136283343D01*
X183477510Y-136144517D01*
X183644517Y-135977510D01*
X183783343Y-135786433D01*
X183890568Y-135575992D01*
X183963553Y-135351368D01*
X184000500Y-135118097D01*
X184000500Y-134881902D01*
X183963553Y-134648631D01*
X183929689Y-134544412D01*
X183890568Y-134424008D01*
X183890566Y-134424005D01*
X183890566Y-134424003D01*
X183783342Y-134213566D01*
X183745978Y-134162139D01*
X183644517Y-134022490D01*
X183477510Y-133855483D01*
X183286433Y-133716657D01*
X183075996Y-133609433D01*
X182851368Y-133536446D01*
X182618097Y-133499500D01*
X182618092Y-133499500D01*
X182381908Y-133499500D01*
X182381903Y-133499500D01*
X182148631Y-133536446D01*
X181924003Y-133609433D01*
X181713566Y-133716657D01*
X181604550Y-133795862D01*
X181522490Y-133855483D01*
X181522488Y-133855485D01*
X181522487Y-133855485D01*
X181355485Y-134022487D01*
X181355485Y-134022488D01*
X181355483Y-134022490D01*
X181295862Y-134104550D01*
X181216657Y-134213566D01*
X181109433Y-134424003D01*
X181036446Y-134648631D01*
X180999500Y-134881902D01*
X172000500Y-134881902D01*
X171963553Y-134648631D01*
X171929689Y-134544412D01*
X171890568Y-134424008D01*
X171890566Y-134424005D01*
X171890566Y-134424003D01*
X171783342Y-134213566D01*
X171745978Y-134162139D01*
X171644517Y-134022490D01*
X171477510Y-133855483D01*
X171286433Y-133716657D01*
X171075996Y-133609433D01*
X170851368Y-133536446D01*
X170618097Y-133499500D01*
X170618092Y-133499500D01*
X170381908Y-133499500D01*
X170381903Y-133499500D01*
X170148631Y-133536446D01*
X169924003Y-133609433D01*
X169713566Y-133716657D01*
X169604550Y-133795862D01*
X169522490Y-133855483D01*
X169522488Y-133855485D01*
X169522487Y-133855485D01*
X169355485Y-134022487D01*
X169355485Y-134022488D01*
X169355483Y-134022490D01*
X169295862Y-134104550D01*
X169216657Y-134213566D01*
X169109433Y-134424003D01*
X169036446Y-134648631D01*
X168999500Y-134881902D01*
X156181491Y-134881902D01*
X156205449Y-134802923D01*
X156205451Y-134802913D01*
X156205454Y-134802902D01*
X156237399Y-134642295D01*
X156268714Y-134484868D01*
X156300500Y-134162143D01*
X156300500Y-133837857D01*
X156268714Y-133515132D01*
X156245122Y-133396528D01*
X156205454Y-133197097D01*
X156205451Y-133197086D01*
X156205450Y-133197083D01*
X156205449Y-133197077D01*
X156111314Y-132886754D01*
X155987215Y-132587153D01*
X155834347Y-132301158D01*
X155654183Y-132031524D01*
X155448458Y-131780847D01*
X155448457Y-131780846D01*
X155448453Y-131780841D01*
X155219158Y-131551546D01*
X154968481Y-131345821D01*
X154968480Y-131345820D01*
X154968476Y-131345817D01*
X154698842Y-131165653D01*
X154698837Y-131165650D01*
X154698830Y-131165646D01*
X154412854Y-131012788D01*
X154412849Y-131012786D01*
X154113247Y-130888686D01*
X153802913Y-130794548D01*
X153802902Y-130794545D01*
X153484874Y-130731287D01*
X153484857Y-130731284D01*
X153240812Y-130707248D01*
X153162143Y-130699500D01*
X152837857Y-130699500D01*
X152765099Y-130706666D01*
X152515142Y-130731284D01*
X152515125Y-130731287D01*
X152197097Y-130794545D01*
X152197086Y-130794548D01*
X151886752Y-130888686D01*
X151587150Y-131012786D01*
X151587145Y-131012788D01*
X151301169Y-131165646D01*
X151301151Y-131165657D01*
X151031532Y-131345811D01*
X151031518Y-131345821D01*
X150780841Y-131551546D01*
X150551546Y-131780841D01*
X150345821Y-132031518D01*
X150345811Y-132031532D01*
X150227602Y-132208445D01*
X150173990Y-132253250D01*
X150104665Y-132261957D01*
X150041638Y-132231803D01*
X150004918Y-132172360D01*
X150000500Y-132139554D01*
X150000500Y-120199983D01*
X160367177Y-120199983D01*
X160367177Y-121800001D01*
X160367178Y-121800018D01*
X160377677Y-121902796D01*
X160377678Y-121902799D01*
X160432862Y-122069331D01*
X160432863Y-122069334D01*
X160524965Y-122218656D01*
X160649021Y-122342712D01*
X160798343Y-122434814D01*
X160964880Y-122489999D01*
X161067668Y-122500500D01*
X162667685Y-122500499D01*
X162770474Y-122489999D01*
X162937011Y-122434814D01*
X163086333Y-122342712D01*
X163210389Y-122218656D01*
X163302491Y-122069334D01*
X163357676Y-121902797D01*
X163368177Y-121800009D01*
X163368176Y-120199992D01*
X163357676Y-120097203D01*
X163302491Y-119930666D01*
X163210389Y-119781344D01*
X163086333Y-119657288D01*
X162937011Y-119565186D01*
X162770474Y-119510001D01*
X162770472Y-119510000D01*
X162667687Y-119499500D01*
X161067675Y-119499500D01*
X161067658Y-119499501D01*
X160964880Y-119510000D01*
X160964877Y-119510001D01*
X160798345Y-119565185D01*
X160798340Y-119565187D01*
X160649019Y-119657289D01*
X160524966Y-119781342D01*
X160432864Y-119930663D01*
X160432863Y-119930666D01*
X160377678Y-120097203D01*
X160377678Y-120097204D01*
X160377677Y-120097204D01*
X160367177Y-120199983D01*
X150000500Y-120199983D01*
X150000500Y-115881947D01*
X160367677Y-115881947D01*
X160367677Y-116118052D01*
X160404611Y-116351247D01*
X160477574Y-116575802D01*
X160584764Y-116786174D01*
X160645015Y-116869104D01*
X160645017Y-116869105D01*
X161384714Y-116129408D01*
X161401752Y-116192993D01*
X161467578Y-116307007D01*
X161560670Y-116400099D01*
X161674684Y-116465925D01*
X161738267Y-116482962D01*
X160998570Y-117222658D01*
X161081505Y-117282914D01*
X161291874Y-117390102D01*
X161516429Y-117463065D01*
X161516428Y-117463065D01*
X161749625Y-117500000D01*
X161985729Y-117500000D01*
X162218924Y-117463065D01*
X162443479Y-117390102D01*
X162653840Y-117282918D01*
X162653846Y-117282914D01*
X162736781Y-117222658D01*
X162736782Y-117222658D01*
X161997085Y-116482962D01*
X162060670Y-116465925D01*
X162174684Y-116400099D01*
X162267776Y-116307007D01*
X162333602Y-116192993D01*
X162350639Y-116129408D01*
X163090335Y-116869105D01*
X163090335Y-116869104D01*
X163150591Y-116786169D01*
X163150595Y-116786163D01*
X163257779Y-116575802D01*
X163330742Y-116351247D01*
X163367677Y-116118052D01*
X163367677Y-115881947D01*
X163330742Y-115648752D01*
X163257779Y-115424197D01*
X163150591Y-115213828D01*
X163090335Y-115130894D01*
X163090335Y-115130893D01*
X162350639Y-115870590D01*
X162333602Y-115807007D01*
X162267776Y-115692993D01*
X162174684Y-115599901D01*
X162060670Y-115534075D01*
X161997086Y-115517037D01*
X162736782Y-114777340D01*
X162736781Y-114777338D01*
X162653851Y-114717087D01*
X162443479Y-114609897D01*
X162218924Y-114536934D01*
X162218925Y-114536934D01*
X161985729Y-114500000D01*
X161749625Y-114500000D01*
X161516429Y-114536934D01*
X161291874Y-114609897D01*
X161081507Y-114717084D01*
X160998571Y-114777340D01*
X161738268Y-115517037D01*
X161674684Y-115534075D01*
X161560670Y-115599901D01*
X161467578Y-115692993D01*
X161401752Y-115807007D01*
X161384714Y-115870591D01*
X160645017Y-115130894D01*
X160584761Y-115213830D01*
X160477574Y-115424197D01*
X160404611Y-115648752D01*
X160367677Y-115881947D01*
X150000500Y-115881947D01*
X150000500Y-108581902D01*
X150399500Y-108581902D01*
X150399500Y-108818097D01*
X150436446Y-109051368D01*
X150509433Y-109275996D01*
X150616657Y-109486433D01*
X150755483Y-109677510D01*
X150922490Y-109844517D01*
X151113567Y-109983343D01*
X151212991Y-110034002D01*
X151324003Y-110090566D01*
X151324005Y-110090566D01*
X151324008Y-110090568D01*
X151444412Y-110129689D01*
X151548631Y-110163553D01*
X151781903Y-110200500D01*
X151781908Y-110200500D01*
X152018097Y-110200500D01*
X152251368Y-110163553D01*
X152475992Y-110090568D01*
X152686433Y-109983343D01*
X152877510Y-109844517D01*
X153044517Y-109677510D01*
X153183343Y-109486433D01*
X153290568Y-109275992D01*
X153363553Y-109051368D01*
X153400500Y-108818097D01*
X153400500Y-108581902D01*
X153363553Y-108348631D01*
X153290566Y-108124003D01*
X153183342Y-107913566D01*
X153044517Y-107722490D01*
X152877510Y-107555483D01*
X152686433Y-107416657D01*
X152475996Y-107309433D01*
X152251368Y-107236446D01*
X152018097Y-107199500D01*
X152018092Y-107199500D01*
X151781908Y-107199500D01*
X151781903Y-107199500D01*
X151548631Y-107236446D01*
X151324003Y-107309433D01*
X151113566Y-107416657D01*
X151004550Y-107495862D01*
X150922490Y-107555483D01*
X150922488Y-107555485D01*
X150922487Y-107555485D01*
X150755485Y-107722487D01*
X150755485Y-107722488D01*
X150755483Y-107722490D01*
X150695862Y-107804550D01*
X150616657Y-107913566D01*
X150509433Y-108124003D01*
X150436446Y-108348631D01*
X150399500Y-108581902D01*
X150000500Y-108581902D01*
X150000500Y-98581902D01*
X150399500Y-98581902D01*
X150399500Y-98818097D01*
X150436446Y-99051368D01*
X150509433Y-99275996D01*
X150616657Y-99486433D01*
X150755483Y-99677510D01*
X150922490Y-99844517D01*
X151113567Y-99983343D01*
X151212991Y-100034002D01*
X151324003Y-100090566D01*
X151324005Y-100090566D01*
X151324008Y-100090568D01*
X151444412Y-100129689D01*
X151548631Y-100163553D01*
X151781903Y-100200500D01*
X151781908Y-100200500D01*
X152018097Y-100200500D01*
X152251368Y-100163553D01*
X152475992Y-100090568D01*
X152686433Y-99983343D01*
X152877510Y-99844517D01*
X153044517Y-99677510D01*
X153183343Y-99486433D01*
X153290568Y-99275992D01*
X153363553Y-99051368D01*
X153400500Y-98818097D01*
X153400500Y-98581902D01*
X153363553Y-98348631D01*
X153290566Y-98124003D01*
X153183342Y-97913566D01*
X153044517Y-97722490D01*
X152877510Y-97555483D01*
X152686433Y-97416657D01*
X152475996Y-97309433D01*
X152251368Y-97236446D01*
X152018097Y-97199500D01*
X152018092Y-97199500D01*
X151781908Y-97199500D01*
X151781903Y-97199500D01*
X151548631Y-97236446D01*
X151324003Y-97309433D01*
X151113566Y-97416657D01*
X151004550Y-97495862D01*
X150922490Y-97555483D01*
X150922488Y-97555485D01*
X150922487Y-97555485D01*
X150755485Y-97722487D01*
X150755485Y-97722488D01*
X150755483Y-97722490D01*
X150695862Y-97804550D01*
X150616657Y-97913566D01*
X150509433Y-98124003D01*
X150436446Y-98348631D01*
X150399500Y-98581902D01*
X150000500Y-98581902D01*
X150000500Y-91960445D01*
X150020185Y-91893406D01*
X150072989Y-91847651D01*
X150142147Y-91837707D01*
X150205703Y-91866732D01*
X150227602Y-91891555D01*
X150345804Y-92068458D01*
X150345821Y-92068481D01*
X150551546Y-92319158D01*
X150780841Y-92548453D01*
X150780846Y-92548457D01*
X150780847Y-92548458D01*
X151031524Y-92754183D01*
X151301158Y-92934347D01*
X151301167Y-92934352D01*
X151301169Y-92934353D01*
X151587145Y-93087211D01*
X151587147Y-93087211D01*
X151587153Y-93087215D01*
X151886754Y-93211314D01*
X152197077Y-93305449D01*
X152197083Y-93305450D01*
X152197086Y-93305451D01*
X152197097Y-93305454D01*
X152396528Y-93345122D01*
X152515132Y-93368714D01*
X152837857Y-93400500D01*
X152837860Y-93400500D01*
X153162140Y-93400500D01*
X153162143Y-93400500D01*
X153484868Y-93368714D01*
X153642295Y-93337399D01*
X153802902Y-93305454D01*
X153802913Y-93305451D01*
X153802913Y-93305450D01*
X153802923Y-93305449D01*
X154113246Y-93211314D01*
X154412847Y-93087215D01*
X154698842Y-92934347D01*
X154968476Y-92754183D01*
X155219153Y-92548458D01*
X155448458Y-92319153D01*
X155654183Y-92068476D01*
X155834347Y-91798842D01*
X155987215Y-91512847D01*
X156111314Y-91213246D01*
X156205449Y-90902923D01*
X156205451Y-90902913D01*
X156205454Y-90902902D01*
X156237399Y-90742295D01*
X156268714Y-90584868D01*
X156300500Y-90262143D01*
X156300500Y-89937857D01*
X156268714Y-89615132D01*
X156245122Y-89496528D01*
X156205454Y-89297097D01*
X156205451Y-89297086D01*
X156205450Y-89297083D01*
X156205449Y-89297077D01*
X156111314Y-88986754D01*
X156067885Y-88881908D01*
X156067883Y-88881902D01*
X168499500Y-88881902D01*
X168499500Y-89118097D01*
X168536446Y-89351368D01*
X168609433Y-89575996D01*
X168716657Y-89786433D01*
X168855483Y-89977510D01*
X169022490Y-90144517D01*
X169213567Y-90283343D01*
X169312991Y-90334002D01*
X169424003Y-90390566D01*
X169424005Y-90390566D01*
X169424008Y-90390568D01*
X169544412Y-90429689D01*
X169648631Y-90463553D01*
X169881903Y-90500500D01*
X169881908Y-90500500D01*
X170118097Y-90500500D01*
X170351368Y-90463553D01*
X170575992Y-90390568D01*
X170786433Y-90283343D01*
X170977510Y-90144517D01*
X171144517Y-89977510D01*
X171283343Y-89786433D01*
X171390568Y-89575992D01*
X171463553Y-89351368D01*
X171472149Y-89297097D01*
X171500500Y-89118097D01*
X171500500Y-88881902D01*
X180999500Y-88881902D01*
X180999500Y-89118097D01*
X181036446Y-89351368D01*
X181109433Y-89575996D01*
X181216657Y-89786433D01*
X181355483Y-89977510D01*
X181522490Y-90144517D01*
X181713567Y-90283343D01*
X181812991Y-90334002D01*
X181924003Y-90390566D01*
X181924005Y-90390566D01*
X181924008Y-90390568D01*
X182044412Y-90429689D01*
X182148631Y-90463553D01*
X182381903Y-90500500D01*
X182381908Y-90500500D01*
X182618097Y-90500500D01*
X182851368Y-90463553D01*
X183075992Y-90390568D01*
X183286433Y-90283343D01*
X183477510Y-90144517D01*
X183644517Y-89977510D01*
X183783343Y-89786433D01*
X183890568Y-89575992D01*
X183963553Y-89351368D01*
X183972149Y-89297097D01*
X184000500Y-89118097D01*
X184000500Y-88881902D01*
X183963553Y-88648631D01*
X183890566Y-88424003D01*
X183827969Y-88301151D01*
X183783343Y-88213567D01*
X183644517Y-88022490D01*
X183477510Y-87855483D01*
X183286433Y-87716657D01*
X183075996Y-87609433D01*
X182851368Y-87536446D01*
X182618097Y-87499500D01*
X182618092Y-87499500D01*
X182381908Y-87499500D01*
X182381903Y-87499500D01*
X182148631Y-87536446D01*
X181924003Y-87609433D01*
X181713566Y-87716657D01*
X181625217Y-87780847D01*
X181522490Y-87855483D01*
X181522488Y-87855485D01*
X181522487Y-87855485D01*
X181355485Y-88022487D01*
X181355485Y-88022488D01*
X181355483Y-88022490D01*
X181348914Y-88031532D01*
X181216657Y-88213566D01*
X181109433Y-88424003D01*
X181036446Y-88648631D01*
X180999500Y-88881902D01*
X171500500Y-88881902D01*
X171463553Y-88648631D01*
X171390566Y-88424003D01*
X171327969Y-88301151D01*
X171283343Y-88213567D01*
X171144517Y-88022490D01*
X170977510Y-87855483D01*
X170786433Y-87716657D01*
X170575996Y-87609433D01*
X170351368Y-87536446D01*
X170118097Y-87499500D01*
X170118092Y-87499500D01*
X169881908Y-87499500D01*
X169881903Y-87499500D01*
X169648631Y-87536446D01*
X169424003Y-87609433D01*
X169213566Y-87716657D01*
X169125217Y-87780847D01*
X169022490Y-87855483D01*
X169022488Y-87855485D01*
X169022487Y-87855485D01*
X168855485Y-88022487D01*
X168855485Y-88022488D01*
X168855483Y-88022490D01*
X168848914Y-88031532D01*
X168716657Y-88213566D01*
X168609433Y-88424003D01*
X168536446Y-88648631D01*
X168499500Y-88881902D01*
X156067883Y-88881902D01*
X156048186Y-88834350D01*
X155987215Y-88687153D01*
X155966624Y-88648631D01*
X155834353Y-88401169D01*
X155834352Y-88401167D01*
X155834347Y-88401158D01*
X155654183Y-88131524D01*
X155448458Y-87880847D01*
X155448457Y-87880846D01*
X155448453Y-87880841D01*
X155219158Y-87651546D01*
X154968481Y-87445821D01*
X154968480Y-87445820D01*
X154968476Y-87445817D01*
X154698842Y-87265653D01*
X154698837Y-87265650D01*
X154698830Y-87265646D01*
X154639358Y-87233858D01*
X154589514Y-87184896D01*
X154574053Y-87116758D01*
X154597885Y-87051079D01*
X154653442Y-87008710D01*
X154697811Y-87000500D01*
X194139554Y-87000500D01*
X194206593Y-87020185D01*
G37*
%TD.AperFunction*%
%TD*%
M02*
