M48
; DRILL file {KiCad 9.0.4} date 2025-09-17T14:50:42+0800
; FORMAT={-:-/ absolute / metric / decimal}
; #@! TF.CreationDate,2025-09-17T14:50:42+08:00
; #@! TF.GenerationSoftware,Kicad,Pcbnew,9.0.4
; #@! TF.FileFunction,Plated,1,2,PTH
FMAT,2
METRIC
; #@! TA.AperFunction,Plated,PTH,ViaDrill
T1C0.300
; #@! TA.AperFunction,Plated,PTH,ComponentDrill
T2C1.000
; #@! TA.AperFunction,Plated,PTH,ComponentDrill
T3C3.200
%
G90
G05
T1
X150.5Y-120.0
X150.6Y-97.4
X150.6Y-100.0
X150.6Y-107.4
X150.6Y-110.0
X150.875Y-118.875
X151.0Y-121.0
X152.0Y-118.5
X152.0Y-121.5
X153.0Y-121.0
X153.125Y-118.875
X153.2Y-97.4
X153.2Y-100.0
X153.2Y-107.4
X153.2Y-110.0
X153.5Y-120.0
X155.4Y-101.2
X156.9Y-102.7
X165.0Y-127.0
X166.5Y-128.5
X168.0Y-127.0
X168.7Y-87.7
X168.7Y-90.3
X169.2Y-133.7
X169.2Y-136.3
X171.3Y-87.7
X171.3Y-90.3
X171.8Y-133.7
X171.8Y-136.3
X172.5Y-129.5
X172.5Y-132.5
X176.0Y-100.0
X176.0Y-112.0
X176.0Y-117.5
X176.0Y-133.0
X176.5Y-91.5
X176.5Y-94.5
X176.5Y-102.0
X176.5Y-104.0
X176.5Y-105.5
X176.5Y-107.5
X177.5Y-99.0
X177.5Y-103.0
X177.5Y-106.5
X177.5Y-111.0
X177.5Y-116.5
X177.5Y-132.0
X181.2Y-87.7
X181.2Y-90.3
X181.2Y-133.7
X181.2Y-136.3
X183.8Y-87.7
X183.8Y-90.3
X183.8Y-133.7
X183.8Y-136.3
X184.5Y-132.5
X185.5Y-131.0
X186.5Y-132.0
X188.0Y-133.0
X188.5Y-100.5
X188.5Y-112.5
X188.5Y-117.5
X189.0Y-94.5
X189.0Y-102.0
X189.0Y-104.0
X189.0Y-105.5
X189.0Y-107.5
X190.0Y-93.0
X190.0Y-99.5
X190.0Y-103.0
X190.0Y-106.5
X190.0Y-111.5
X190.0Y-116.5
T2
X151.9Y-98.7
X151.9Y-108.7
X161.868Y-116.0
X161.868Y-121.0
X170.0Y-89.0
X170.5Y-135.0
X182.5Y-89.0
X182.5Y-135.0
T3
X153.0Y-90.1
X153.0Y-134.0
X196.0Y-90.0
X196.0Y-134.0
M30
