%TF.GenerationSoftware,KiCad,Pcbnew,9.0.4*%
%TF.CreationDate,2025-09-17T14:50:29+08:00*%
%TF.ProjectId,YUV Circuit,59555620-4369-4726-9375-69742e6b6963,rev?*%
%TF.SameCoordinates,Original*%
%TF.FileFunction,Legend,Top*%
%TF.FilePolarity,Positive*%
%FSLAX46Y46*%
G04 Gerber Fmt 4.6, Leading zero omitted, Abs format (unit mm)*
G04 Created by KiCad (PCBNEW 9.0.4) date 2025-09-17 14:50:29*
%MOMM*%
%LPD*%
G01*
G04 APERTURE LIST*
G04 Aperture macros list*
%AMRoundRect*
0 Rectangle with rounded corners*
0 $1 Rounding radius*
0 $2 $3 $4 $5 $6 $7 $8 $9 X,Y pos of 4 corners*
0 Add a 4 corners polygon primitive as box body*
4,1,4,$2,$3,$4,$5,$6,$7,$8,$9,$2,$3,0*
0 Add four circle primitives for the rounded corners*
1,1,$1+$1,$2,$3*
1,1,$1+$1,$4,$5*
1,1,$1+$1,$6,$7*
1,1,$1+$1,$8,$9*
0 Add four rect primitives between the rounded corners*
20,1,$1+$1,$2,$3,$4,$5,0*
20,1,$1+$1,$4,$5,$6,$7,0*
20,1,$1+$1,$6,$7,$8,$9,0*
20,1,$1+$1,$8,$9,$2,$3,0*%
G04 Aperture macros list end*
%ADD10C,0.200000*%
%ADD11C,0.150000*%
%ADD12C,0.120000*%
%ADD13RoundRect,0.250000X-0.450000X0.350000X-0.450000X-0.350000X0.450000X-0.350000X0.450000X0.350000X0*%
%ADD14C,5.600000*%
%ADD15C,2.000000*%
%ADD16RoundRect,0.250000X-0.337500X-0.475000X0.337500X-0.475000X0.337500X0.475000X-0.337500X0.475000X0*%
%ADD17RoundRect,0.250000X0.350000X0.450000X-0.350000X0.450000X-0.350000X-0.450000X0.350000X-0.450000X0*%
%ADD18RoundRect,0.250000X0.450000X-0.350000X0.450000X0.350000X-0.450000X0.350000X-0.450000X-0.350000X0*%
%ADD19RoundRect,0.250000X0.337500X0.475000X-0.337500X0.475000X-0.337500X-0.475000X0.337500X-0.475000X0*%
%ADD20RoundRect,0.200000X0.750000X0.200000X-0.750000X0.200000X-0.750000X-0.200000X0.750000X-0.200000X0*%
%ADD21R,2.000000X2.000000*%
%ADD22RoundRect,0.249999X0.737501X2.450001X-0.737501X2.450001X-0.737501X-2.450001X0.737501X-2.450001X0*%
%ADD23RoundRect,0.237500X0.300000X0.237500X-0.300000X0.237500X-0.300000X-0.237500X0.300000X-0.237500X0*%
%ADD24RoundRect,0.250001X-0.462499X-0.849999X0.462499X-0.849999X0.462499X0.849999X-0.462499X0.849999X0*%
%ADD25RoundRect,0.250000X-0.350000X-0.450000X0.350000X-0.450000X0.350000X0.450000X-0.350000X0.450000X0*%
%ADD26R,0.980000X3.400000*%
%ADD27RoundRect,0.250000X0.750000X-0.750000X0.750000X0.750000X-0.750000X0.750000X-0.750000X-0.750000X0*%
%ADD28RoundRect,0.250000X0.650000X-0.412500X0.650000X0.412500X-0.650000X0.412500X-0.650000X-0.412500X0*%
%ADD29RoundRect,0.250000X-0.650000X0.412500X-0.650000X-0.412500X0.650000X-0.412500X0.650000X0.412500X0*%
G04 APERTURE END LIST*
D10*
X150460149Y-96591028D02*
X150460149Y-97067219D01*
X150126816Y-96067219D02*
X150460149Y-96591028D01*
X150460149Y-96591028D02*
X150793482Y-96067219D01*
X151126816Y-96686266D02*
X151888721Y-96686266D01*
X152555387Y-96067219D02*
X152745863Y-96067219D01*
X152745863Y-96067219D02*
X152841101Y-96114838D01*
X152841101Y-96114838D02*
X152936339Y-96210076D01*
X152936339Y-96210076D02*
X152983958Y-96400552D01*
X152983958Y-96400552D02*
X152983958Y-96733885D01*
X152983958Y-96733885D02*
X152936339Y-96924361D01*
X152936339Y-96924361D02*
X152841101Y-97019600D01*
X152841101Y-97019600D02*
X152745863Y-97067219D01*
X152745863Y-97067219D02*
X152555387Y-97067219D01*
X152555387Y-97067219D02*
X152460149Y-97019600D01*
X152460149Y-97019600D02*
X152364911Y-96924361D01*
X152364911Y-96924361D02*
X152317292Y-96733885D01*
X152317292Y-96733885D02*
X152317292Y-96400552D01*
X152317292Y-96400552D02*
X152364911Y-96210076D01*
X152364911Y-96210076D02*
X152460149Y-96114838D01*
X152460149Y-96114838D02*
X152555387Y-96067219D01*
X153412530Y-96067219D02*
X153412530Y-96876742D01*
X153412530Y-96876742D02*
X153460149Y-96971980D01*
X153460149Y-96971980D02*
X153507768Y-97019600D01*
X153507768Y-97019600D02*
X153603006Y-97067219D01*
X153603006Y-97067219D02*
X153793482Y-97067219D01*
X153793482Y-97067219D02*
X153888720Y-97019600D01*
X153888720Y-97019600D02*
X153936339Y-96971980D01*
X153936339Y-96971980D02*
X153983958Y-96876742D01*
X153983958Y-96876742D02*
X153983958Y-96067219D01*
X154317292Y-96067219D02*
X154888720Y-96067219D01*
X154603006Y-97067219D02*
X154603006Y-96067219D01*
X178869673Y-135367219D02*
X178869673Y-134367219D01*
X178869673Y-134367219D02*
X179250625Y-134367219D01*
X179250625Y-134367219D02*
X179345863Y-134414838D01*
X179345863Y-134414838D02*
X179393482Y-134462457D01*
X179393482Y-134462457D02*
X179441101Y-134557695D01*
X179441101Y-134557695D02*
X179441101Y-134700552D01*
X179441101Y-134700552D02*
X179393482Y-134795790D01*
X179393482Y-134795790D02*
X179345863Y-134843409D01*
X179345863Y-134843409D02*
X179250625Y-134891028D01*
X179250625Y-134891028D02*
X178869673Y-134891028D01*
X180441101Y-135367219D02*
X180107768Y-134891028D01*
X179869673Y-135367219D02*
X179869673Y-134367219D01*
X179869673Y-134367219D02*
X180250625Y-134367219D01*
X180250625Y-134367219D02*
X180345863Y-134414838D01*
X180345863Y-134414838D02*
X180393482Y-134462457D01*
X180393482Y-134462457D02*
X180441101Y-134557695D01*
X180441101Y-134557695D02*
X180441101Y-134700552D01*
X180441101Y-134700552D02*
X180393482Y-134795790D01*
X180393482Y-134795790D02*
X180345863Y-134843409D01*
X180345863Y-134843409D02*
X180250625Y-134891028D01*
X180250625Y-134891028D02*
X179869673Y-134891028D01*
X151393482Y-116914838D02*
X151298244Y-116867219D01*
X151298244Y-116867219D02*
X151155387Y-116867219D01*
X151155387Y-116867219D02*
X151012530Y-116914838D01*
X151012530Y-116914838D02*
X150917292Y-117010076D01*
X150917292Y-117010076D02*
X150869673Y-117105314D01*
X150869673Y-117105314D02*
X150822054Y-117295790D01*
X150822054Y-117295790D02*
X150822054Y-117438647D01*
X150822054Y-117438647D02*
X150869673Y-117629123D01*
X150869673Y-117629123D02*
X150917292Y-117724361D01*
X150917292Y-117724361D02*
X151012530Y-117819600D01*
X151012530Y-117819600D02*
X151155387Y-117867219D01*
X151155387Y-117867219D02*
X151250625Y-117867219D01*
X151250625Y-117867219D02*
X151393482Y-117819600D01*
X151393482Y-117819600D02*
X151441101Y-117771980D01*
X151441101Y-117771980D02*
X151441101Y-117438647D01*
X151441101Y-117438647D02*
X151250625Y-117438647D01*
X151869673Y-117867219D02*
X151869673Y-116867219D01*
X151869673Y-116867219D02*
X152441101Y-117867219D01*
X152441101Y-117867219D02*
X152441101Y-116867219D01*
X152917292Y-117867219D02*
X152917292Y-116867219D01*
X152917292Y-116867219D02*
X153155387Y-116867219D01*
X153155387Y-116867219D02*
X153298244Y-116914838D01*
X153298244Y-116914838D02*
X153393482Y-117010076D01*
X153393482Y-117010076D02*
X153441101Y-117105314D01*
X153441101Y-117105314D02*
X153488720Y-117295790D01*
X153488720Y-117295790D02*
X153488720Y-117438647D01*
X153488720Y-117438647D02*
X153441101Y-117629123D01*
X153441101Y-117629123D02*
X153393482Y-117724361D01*
X153393482Y-117724361D02*
X153298244Y-117819600D01*
X153298244Y-117819600D02*
X153155387Y-117867219D01*
X153155387Y-117867219D02*
X152917292Y-117867219D01*
X166869673Y-135367219D02*
X166869673Y-134367219D01*
X166869673Y-134367219D02*
X167250625Y-134367219D01*
X167250625Y-134367219D02*
X167345863Y-134414838D01*
X167345863Y-134414838D02*
X167393482Y-134462457D01*
X167393482Y-134462457D02*
X167441101Y-134557695D01*
X167441101Y-134557695D02*
X167441101Y-134700552D01*
X167441101Y-134700552D02*
X167393482Y-134795790D01*
X167393482Y-134795790D02*
X167345863Y-134843409D01*
X167345863Y-134843409D02*
X167250625Y-134891028D01*
X167250625Y-134891028D02*
X166869673Y-134891028D01*
X168203006Y-134843409D02*
X168345863Y-134891028D01*
X168345863Y-134891028D02*
X168393482Y-134938647D01*
X168393482Y-134938647D02*
X168441101Y-135033885D01*
X168441101Y-135033885D02*
X168441101Y-135176742D01*
X168441101Y-135176742D02*
X168393482Y-135271980D01*
X168393482Y-135271980D02*
X168345863Y-135319600D01*
X168345863Y-135319600D02*
X168250625Y-135367219D01*
X168250625Y-135367219D02*
X167869673Y-135367219D01*
X167869673Y-135367219D02*
X167869673Y-134367219D01*
X167869673Y-134367219D02*
X168203006Y-134367219D01*
X168203006Y-134367219D02*
X168298244Y-134414838D01*
X168298244Y-134414838D02*
X168345863Y-134462457D01*
X168345863Y-134462457D02*
X168393482Y-134557695D01*
X168393482Y-134557695D02*
X168393482Y-134652933D01*
X168393482Y-134652933D02*
X168345863Y-134748171D01*
X168345863Y-134748171D02*
X168298244Y-134795790D01*
X168298244Y-134795790D02*
X168203006Y-134843409D01*
X168203006Y-134843409D02*
X167869673Y-134843409D01*
X151512530Y-123295790D02*
X151417292Y-123248171D01*
X151417292Y-123248171D02*
X151369673Y-123200552D01*
X151369673Y-123200552D02*
X151322054Y-123105314D01*
X151322054Y-123105314D02*
X151322054Y-123057695D01*
X151322054Y-123057695D02*
X151369673Y-122962457D01*
X151369673Y-122962457D02*
X151417292Y-122914838D01*
X151417292Y-122914838D02*
X151512530Y-122867219D01*
X151512530Y-122867219D02*
X151703006Y-122867219D01*
X151703006Y-122867219D02*
X151798244Y-122914838D01*
X151798244Y-122914838D02*
X151845863Y-122962457D01*
X151845863Y-122962457D02*
X151893482Y-123057695D01*
X151893482Y-123057695D02*
X151893482Y-123105314D01*
X151893482Y-123105314D02*
X151845863Y-123200552D01*
X151845863Y-123200552D02*
X151798244Y-123248171D01*
X151798244Y-123248171D02*
X151703006Y-123295790D01*
X151703006Y-123295790D02*
X151512530Y-123295790D01*
X151512530Y-123295790D02*
X151417292Y-123343409D01*
X151417292Y-123343409D02*
X151369673Y-123391028D01*
X151369673Y-123391028D02*
X151322054Y-123486266D01*
X151322054Y-123486266D02*
X151322054Y-123676742D01*
X151322054Y-123676742D02*
X151369673Y-123771980D01*
X151369673Y-123771980D02*
X151417292Y-123819600D01*
X151417292Y-123819600D02*
X151512530Y-123867219D01*
X151512530Y-123867219D02*
X151703006Y-123867219D01*
X151703006Y-123867219D02*
X151798244Y-123819600D01*
X151798244Y-123819600D02*
X151845863Y-123771980D01*
X151845863Y-123771980D02*
X151893482Y-123676742D01*
X151893482Y-123676742D02*
X151893482Y-123486266D01*
X151893482Y-123486266D02*
X151845863Y-123391028D01*
X151845863Y-123391028D02*
X151798244Y-123343409D01*
X151798244Y-123343409D02*
X151703006Y-123295790D01*
X152179197Y-122867219D02*
X152512530Y-123867219D01*
X152512530Y-123867219D02*
X152845863Y-122867219D01*
X164069673Y-89286266D02*
X164831578Y-89286266D01*
X165641101Y-89143409D02*
X165783958Y-89191028D01*
X165783958Y-89191028D02*
X165831577Y-89238647D01*
X165831577Y-89238647D02*
X165879196Y-89333885D01*
X165879196Y-89333885D02*
X165879196Y-89476742D01*
X165879196Y-89476742D02*
X165831577Y-89571980D01*
X165831577Y-89571980D02*
X165783958Y-89619600D01*
X165783958Y-89619600D02*
X165688720Y-89667219D01*
X165688720Y-89667219D02*
X165307768Y-89667219D01*
X165307768Y-89667219D02*
X165307768Y-88667219D01*
X165307768Y-88667219D02*
X165641101Y-88667219D01*
X165641101Y-88667219D02*
X165736339Y-88714838D01*
X165736339Y-88714838D02*
X165783958Y-88762457D01*
X165783958Y-88762457D02*
X165831577Y-88857695D01*
X165831577Y-88857695D02*
X165831577Y-88952933D01*
X165831577Y-88952933D02*
X165783958Y-89048171D01*
X165783958Y-89048171D02*
X165736339Y-89095790D01*
X165736339Y-89095790D02*
X165641101Y-89143409D01*
X165641101Y-89143409D02*
X165307768Y-89143409D01*
X166307768Y-89286266D02*
X167069673Y-89286266D01*
X167736339Y-89191028D02*
X167736339Y-89667219D01*
X167403006Y-88667219D02*
X167736339Y-89191028D01*
X167736339Y-89191028D02*
X168069672Y-88667219D01*
X150460149Y-111091028D02*
X150460149Y-111567219D01*
X150126816Y-110567219D02*
X150460149Y-111091028D01*
X150460149Y-111091028D02*
X150793482Y-110567219D01*
X151126816Y-111186266D02*
X151888721Y-111186266D01*
X152364911Y-111567219D02*
X152364911Y-110567219D01*
X152841101Y-111567219D02*
X152841101Y-110567219D01*
X152841101Y-110567219D02*
X153412529Y-111567219D01*
X153412529Y-111567219D02*
X153412529Y-110567219D01*
X176569673Y-89286266D02*
X177331578Y-89286266D01*
X178379196Y-89667219D02*
X178045863Y-89191028D01*
X177807768Y-89667219D02*
X177807768Y-88667219D01*
X177807768Y-88667219D02*
X178188720Y-88667219D01*
X178188720Y-88667219D02*
X178283958Y-88714838D01*
X178283958Y-88714838D02*
X178331577Y-88762457D01*
X178331577Y-88762457D02*
X178379196Y-88857695D01*
X178379196Y-88857695D02*
X178379196Y-89000552D01*
X178379196Y-89000552D02*
X178331577Y-89095790D01*
X178331577Y-89095790D02*
X178283958Y-89143409D01*
X178283958Y-89143409D02*
X178188720Y-89191028D01*
X178188720Y-89191028D02*
X177807768Y-89191028D01*
X178807768Y-89286266D02*
X179569673Y-89286266D01*
X180236339Y-89191028D02*
X180236339Y-89667219D01*
X179903006Y-88667219D02*
X180236339Y-89191028D01*
X180236339Y-89191028D02*
X180569672Y-88667219D01*
D11*
X190454819Y-111166666D02*
X189978628Y-111499999D01*
X190454819Y-111738094D02*
X189454819Y-111738094D01*
X189454819Y-111738094D02*
X189454819Y-111357142D01*
X189454819Y-111357142D02*
X189502438Y-111261904D01*
X189502438Y-111261904D02*
X189550057Y-111214285D01*
X189550057Y-111214285D02*
X189645295Y-111166666D01*
X189645295Y-111166666D02*
X189788152Y-111166666D01*
X189788152Y-111166666D02*
X189883390Y-111214285D01*
X189883390Y-111214285D02*
X189931009Y-111261904D01*
X189931009Y-111261904D02*
X189978628Y-111357142D01*
X189978628Y-111357142D02*
X189978628Y-111738094D01*
X190454819Y-110166666D02*
X189978628Y-110499999D01*
X190454819Y-110738094D02*
X189454819Y-110738094D01*
X189454819Y-110738094D02*
X189454819Y-110357142D01*
X189454819Y-110357142D02*
X189502438Y-110261904D01*
X189502438Y-110261904D02*
X189550057Y-110214285D01*
X189550057Y-110214285D02*
X189645295Y-110166666D01*
X189645295Y-110166666D02*
X189788152Y-110166666D01*
X189788152Y-110166666D02*
X189883390Y-110214285D01*
X189883390Y-110214285D02*
X189931009Y-110261904D01*
X189931009Y-110261904D02*
X189978628Y-110357142D01*
X189978628Y-110357142D02*
X189978628Y-110738094D01*
X189454819Y-109309523D02*
X189454819Y-109499999D01*
X189454819Y-109499999D02*
X189502438Y-109595237D01*
X189502438Y-109595237D02*
X189550057Y-109642856D01*
X189550057Y-109642856D02*
X189692914Y-109738094D01*
X189692914Y-109738094D02*
X189883390Y-109785713D01*
X189883390Y-109785713D02*
X190264342Y-109785713D01*
X190264342Y-109785713D02*
X190359580Y-109738094D01*
X190359580Y-109738094D02*
X190407200Y-109690475D01*
X190407200Y-109690475D02*
X190454819Y-109595237D01*
X190454819Y-109595237D02*
X190454819Y-109404761D01*
X190454819Y-109404761D02*
X190407200Y-109309523D01*
X190407200Y-109309523D02*
X190359580Y-109261904D01*
X190359580Y-109261904D02*
X190264342Y-109214285D01*
X190264342Y-109214285D02*
X190026247Y-109214285D01*
X190026247Y-109214285D02*
X189931009Y-109261904D01*
X189931009Y-109261904D02*
X189883390Y-109309523D01*
X189883390Y-109309523D02*
X189835771Y-109404761D01*
X189835771Y-109404761D02*
X189835771Y-109595237D01*
X189835771Y-109595237D02*
X189883390Y-109690475D01*
X189883390Y-109690475D02*
X189931009Y-109738094D01*
X189931009Y-109738094D02*
X190026247Y-109785713D01*
X190104819Y-131666666D02*
X189628628Y-131999999D01*
X190104819Y-132238094D02*
X189104819Y-132238094D01*
X189104819Y-132238094D02*
X189104819Y-131857142D01*
X189104819Y-131857142D02*
X189152438Y-131761904D01*
X189152438Y-131761904D02*
X189200057Y-131714285D01*
X189200057Y-131714285D02*
X189295295Y-131666666D01*
X189295295Y-131666666D02*
X189438152Y-131666666D01*
X189438152Y-131666666D02*
X189533390Y-131714285D01*
X189533390Y-131714285D02*
X189581009Y-131761904D01*
X189581009Y-131761904D02*
X189628628Y-131857142D01*
X189628628Y-131857142D02*
X189628628Y-132238094D01*
X190104819Y-130666666D02*
X189628628Y-130999999D01*
X190104819Y-131238094D02*
X189104819Y-131238094D01*
X189104819Y-131238094D02*
X189104819Y-130857142D01*
X189104819Y-130857142D02*
X189152438Y-130761904D01*
X189152438Y-130761904D02*
X189200057Y-130714285D01*
X189200057Y-130714285D02*
X189295295Y-130666666D01*
X189295295Y-130666666D02*
X189438152Y-130666666D01*
X189438152Y-130666666D02*
X189533390Y-130714285D01*
X189533390Y-130714285D02*
X189581009Y-130761904D01*
X189581009Y-130761904D02*
X189628628Y-130857142D01*
X189628628Y-130857142D02*
X189628628Y-131238094D01*
X189104819Y-130333332D02*
X189104819Y-129714285D01*
X189104819Y-129714285D02*
X189485771Y-130047618D01*
X189485771Y-130047618D02*
X189485771Y-129904761D01*
X189485771Y-129904761D02*
X189533390Y-129809523D01*
X189533390Y-129809523D02*
X189581009Y-129761904D01*
X189581009Y-129761904D02*
X189676247Y-129714285D01*
X189676247Y-129714285D02*
X189914342Y-129714285D01*
X189914342Y-129714285D02*
X190009580Y-129761904D01*
X190009580Y-129761904D02*
X190057200Y-129809523D01*
X190057200Y-129809523D02*
X190104819Y-129904761D01*
X190104819Y-129904761D02*
X190104819Y-130190475D01*
X190104819Y-130190475D02*
X190057200Y-130285713D01*
X190057200Y-130285713D02*
X190009580Y-130333332D01*
X187333333Y-121954819D02*
X187000000Y-121478628D01*
X186761905Y-121954819D02*
X186761905Y-120954819D01*
X186761905Y-120954819D02*
X187142857Y-120954819D01*
X187142857Y-120954819D02*
X187238095Y-121002438D01*
X187238095Y-121002438D02*
X187285714Y-121050057D01*
X187285714Y-121050057D02*
X187333333Y-121145295D01*
X187333333Y-121145295D02*
X187333333Y-121288152D01*
X187333333Y-121288152D02*
X187285714Y-121383390D01*
X187285714Y-121383390D02*
X187238095Y-121431009D01*
X187238095Y-121431009D02*
X187142857Y-121478628D01*
X187142857Y-121478628D02*
X186761905Y-121478628D01*
X188333333Y-121954819D02*
X188000000Y-121478628D01*
X187761905Y-121954819D02*
X187761905Y-120954819D01*
X187761905Y-120954819D02*
X188142857Y-120954819D01*
X188142857Y-120954819D02*
X188238095Y-121002438D01*
X188238095Y-121002438D02*
X188285714Y-121050057D01*
X188285714Y-121050057D02*
X188333333Y-121145295D01*
X188333333Y-121145295D02*
X188333333Y-121288152D01*
X188333333Y-121288152D02*
X188285714Y-121383390D01*
X188285714Y-121383390D02*
X188238095Y-121431009D01*
X188238095Y-121431009D02*
X188142857Y-121478628D01*
X188142857Y-121478628D02*
X187761905Y-121478628D01*
X188714286Y-121050057D02*
X188761905Y-121002438D01*
X188761905Y-121002438D02*
X188857143Y-120954819D01*
X188857143Y-120954819D02*
X189095238Y-120954819D01*
X189095238Y-120954819D02*
X189190476Y-121002438D01*
X189190476Y-121002438D02*
X189238095Y-121050057D01*
X189238095Y-121050057D02*
X189285714Y-121145295D01*
X189285714Y-121145295D02*
X189285714Y-121240533D01*
X189285714Y-121240533D02*
X189238095Y-121383390D01*
X189238095Y-121383390D02*
X188666667Y-121954819D01*
X188666667Y-121954819D02*
X189285714Y-121954819D01*
X182833333Y-105454819D02*
X182500000Y-104978628D01*
X182261905Y-105454819D02*
X182261905Y-104454819D01*
X182261905Y-104454819D02*
X182642857Y-104454819D01*
X182642857Y-104454819D02*
X182738095Y-104502438D01*
X182738095Y-104502438D02*
X182785714Y-104550057D01*
X182785714Y-104550057D02*
X182833333Y-104645295D01*
X182833333Y-104645295D02*
X182833333Y-104788152D01*
X182833333Y-104788152D02*
X182785714Y-104883390D01*
X182785714Y-104883390D02*
X182738095Y-104931009D01*
X182738095Y-104931009D02*
X182642857Y-104978628D01*
X182642857Y-104978628D02*
X182261905Y-104978628D01*
X183833333Y-105454819D02*
X183500000Y-104978628D01*
X183261905Y-105454819D02*
X183261905Y-104454819D01*
X183261905Y-104454819D02*
X183642857Y-104454819D01*
X183642857Y-104454819D02*
X183738095Y-104502438D01*
X183738095Y-104502438D02*
X183785714Y-104550057D01*
X183785714Y-104550057D02*
X183833333Y-104645295D01*
X183833333Y-104645295D02*
X183833333Y-104788152D01*
X183833333Y-104788152D02*
X183785714Y-104883390D01*
X183785714Y-104883390D02*
X183738095Y-104931009D01*
X183738095Y-104931009D02*
X183642857Y-104978628D01*
X183642857Y-104978628D02*
X183261905Y-104978628D01*
X184166667Y-104454819D02*
X184833333Y-104454819D01*
X184833333Y-104454819D02*
X184404762Y-105454819D01*
X157354819Y-104295238D02*
X156878628Y-104628571D01*
X157354819Y-104866666D02*
X156354819Y-104866666D01*
X156354819Y-104866666D02*
X156354819Y-104485714D01*
X156354819Y-104485714D02*
X156402438Y-104390476D01*
X156402438Y-104390476D02*
X156450057Y-104342857D01*
X156450057Y-104342857D02*
X156545295Y-104295238D01*
X156545295Y-104295238D02*
X156688152Y-104295238D01*
X156688152Y-104295238D02*
X156783390Y-104342857D01*
X156783390Y-104342857D02*
X156831009Y-104390476D01*
X156831009Y-104390476D02*
X156878628Y-104485714D01*
X156878628Y-104485714D02*
X156878628Y-104866666D01*
X156878628Y-103676190D02*
X157354819Y-103676190D01*
X156354819Y-104009523D02*
X156878628Y-103676190D01*
X156878628Y-103676190D02*
X156354819Y-103342857D01*
X157354819Y-102485714D02*
X157354819Y-103057142D01*
X157354819Y-102771428D02*
X156354819Y-102771428D01*
X156354819Y-102771428D02*
X156497676Y-102866666D01*
X156497676Y-102866666D02*
X156592914Y-102961904D01*
X156592914Y-102961904D02*
X156640533Y-103057142D01*
X170295833Y-91859580D02*
X170248214Y-91907200D01*
X170248214Y-91907200D02*
X170105357Y-91954819D01*
X170105357Y-91954819D02*
X170010119Y-91954819D01*
X170010119Y-91954819D02*
X169867262Y-91907200D01*
X169867262Y-91907200D02*
X169772024Y-91811961D01*
X169772024Y-91811961D02*
X169724405Y-91716723D01*
X169724405Y-91716723D02*
X169676786Y-91526247D01*
X169676786Y-91526247D02*
X169676786Y-91383390D01*
X169676786Y-91383390D02*
X169724405Y-91192914D01*
X169724405Y-91192914D02*
X169772024Y-91097676D01*
X169772024Y-91097676D02*
X169867262Y-91002438D01*
X169867262Y-91002438D02*
X170010119Y-90954819D01*
X170010119Y-90954819D02*
X170105357Y-90954819D01*
X170105357Y-90954819D02*
X170248214Y-91002438D01*
X170248214Y-91002438D02*
X170295833Y-91050057D01*
X171057738Y-91431009D02*
X171200595Y-91478628D01*
X171200595Y-91478628D02*
X171248214Y-91526247D01*
X171248214Y-91526247D02*
X171295833Y-91621485D01*
X171295833Y-91621485D02*
X171295833Y-91764342D01*
X171295833Y-91764342D02*
X171248214Y-91859580D01*
X171248214Y-91859580D02*
X171200595Y-91907200D01*
X171200595Y-91907200D02*
X171105357Y-91954819D01*
X171105357Y-91954819D02*
X170724405Y-91954819D01*
X170724405Y-91954819D02*
X170724405Y-90954819D01*
X170724405Y-90954819D02*
X171057738Y-90954819D01*
X171057738Y-90954819D02*
X171152976Y-91002438D01*
X171152976Y-91002438D02*
X171200595Y-91050057D01*
X171200595Y-91050057D02*
X171248214Y-91145295D01*
X171248214Y-91145295D02*
X171248214Y-91240533D01*
X171248214Y-91240533D02*
X171200595Y-91335771D01*
X171200595Y-91335771D02*
X171152976Y-91383390D01*
X171152976Y-91383390D02*
X171057738Y-91431009D01*
X171057738Y-91431009D02*
X170724405Y-91431009D01*
X172152976Y-91288152D02*
X172152976Y-91954819D01*
X171914881Y-90907200D02*
X171676786Y-91621485D01*
X171676786Y-91621485D02*
X172295833Y-91621485D01*
X182904761Y-113565057D02*
X182809523Y-113517438D01*
X182809523Y-113517438D02*
X182714285Y-113422200D01*
X182714285Y-113422200D02*
X182571428Y-113279342D01*
X182571428Y-113279342D02*
X182476190Y-113231723D01*
X182476190Y-113231723D02*
X182380952Y-113231723D01*
X182428571Y-113469819D02*
X182333333Y-113422200D01*
X182333333Y-113422200D02*
X182238095Y-113326961D01*
X182238095Y-113326961D02*
X182190476Y-113136485D01*
X182190476Y-113136485D02*
X182190476Y-112803152D01*
X182190476Y-112803152D02*
X182238095Y-112612676D01*
X182238095Y-112612676D02*
X182333333Y-112517438D01*
X182333333Y-112517438D02*
X182428571Y-112469819D01*
X182428571Y-112469819D02*
X182619047Y-112469819D01*
X182619047Y-112469819D02*
X182714285Y-112517438D01*
X182714285Y-112517438D02*
X182809523Y-112612676D01*
X182809523Y-112612676D02*
X182857142Y-112803152D01*
X182857142Y-112803152D02*
X182857142Y-113136485D01*
X182857142Y-113136485D02*
X182809523Y-113326961D01*
X182809523Y-113326961D02*
X182714285Y-113422200D01*
X182714285Y-113422200D02*
X182619047Y-113469819D01*
X182619047Y-113469819D02*
X182428571Y-113469819D01*
X183857142Y-113469819D02*
X183523809Y-112993628D01*
X183285714Y-113469819D02*
X183285714Y-112469819D01*
X183285714Y-112469819D02*
X183666666Y-112469819D01*
X183666666Y-112469819D02*
X183761904Y-112517438D01*
X183761904Y-112517438D02*
X183809523Y-112565057D01*
X183809523Y-112565057D02*
X183857142Y-112660295D01*
X183857142Y-112660295D02*
X183857142Y-112803152D01*
X183857142Y-112803152D02*
X183809523Y-112898390D01*
X183809523Y-112898390D02*
X183761904Y-112946009D01*
X183761904Y-112946009D02*
X183666666Y-112993628D01*
X183666666Y-112993628D02*
X183285714Y-112993628D01*
X184238095Y-112565057D02*
X184285714Y-112517438D01*
X184285714Y-112517438D02*
X184380952Y-112469819D01*
X184380952Y-112469819D02*
X184619047Y-112469819D01*
X184619047Y-112469819D02*
X184714285Y-112517438D01*
X184714285Y-112517438D02*
X184761904Y-112565057D01*
X184761904Y-112565057D02*
X184809523Y-112660295D01*
X184809523Y-112660295D02*
X184809523Y-112755533D01*
X184809523Y-112755533D02*
X184761904Y-112898390D01*
X184761904Y-112898390D02*
X184190476Y-113469819D01*
X184190476Y-113469819D02*
X184809523Y-113469819D01*
X178104819Y-98666666D02*
X177628628Y-98999999D01*
X178104819Y-99238094D02*
X177104819Y-99238094D01*
X177104819Y-99238094D02*
X177104819Y-98857142D01*
X177104819Y-98857142D02*
X177152438Y-98761904D01*
X177152438Y-98761904D02*
X177200057Y-98714285D01*
X177200057Y-98714285D02*
X177295295Y-98666666D01*
X177295295Y-98666666D02*
X177438152Y-98666666D01*
X177438152Y-98666666D02*
X177533390Y-98714285D01*
X177533390Y-98714285D02*
X177581009Y-98761904D01*
X177581009Y-98761904D02*
X177628628Y-98857142D01*
X177628628Y-98857142D02*
X177628628Y-99238094D01*
X177581009Y-97904761D02*
X177628628Y-97761904D01*
X177628628Y-97761904D02*
X177676247Y-97714285D01*
X177676247Y-97714285D02*
X177771485Y-97666666D01*
X177771485Y-97666666D02*
X177914342Y-97666666D01*
X177914342Y-97666666D02*
X178009580Y-97714285D01*
X178009580Y-97714285D02*
X178057200Y-97761904D01*
X178057200Y-97761904D02*
X178104819Y-97857142D01*
X178104819Y-97857142D02*
X178104819Y-98238094D01*
X178104819Y-98238094D02*
X177104819Y-98238094D01*
X177104819Y-98238094D02*
X177104819Y-97904761D01*
X177104819Y-97904761D02*
X177152438Y-97809523D01*
X177152438Y-97809523D02*
X177200057Y-97761904D01*
X177200057Y-97761904D02*
X177295295Y-97714285D01*
X177295295Y-97714285D02*
X177390533Y-97714285D01*
X177390533Y-97714285D02*
X177485771Y-97761904D01*
X177485771Y-97761904D02*
X177533390Y-97809523D01*
X177533390Y-97809523D02*
X177581009Y-97904761D01*
X177581009Y-97904761D02*
X177581009Y-98238094D01*
X177533390Y-97095237D02*
X177485771Y-97190475D01*
X177485771Y-97190475D02*
X177438152Y-97238094D01*
X177438152Y-97238094D02*
X177342914Y-97285713D01*
X177342914Y-97285713D02*
X177295295Y-97285713D01*
X177295295Y-97285713D02*
X177200057Y-97238094D01*
X177200057Y-97238094D02*
X177152438Y-97190475D01*
X177152438Y-97190475D02*
X177104819Y-97095237D01*
X177104819Y-97095237D02*
X177104819Y-96904761D01*
X177104819Y-96904761D02*
X177152438Y-96809523D01*
X177152438Y-96809523D02*
X177200057Y-96761904D01*
X177200057Y-96761904D02*
X177295295Y-96714285D01*
X177295295Y-96714285D02*
X177342914Y-96714285D01*
X177342914Y-96714285D02*
X177438152Y-96761904D01*
X177438152Y-96761904D02*
X177485771Y-96809523D01*
X177485771Y-96809523D02*
X177533390Y-96904761D01*
X177533390Y-96904761D02*
X177533390Y-97095237D01*
X177533390Y-97095237D02*
X177581009Y-97190475D01*
X177581009Y-97190475D02*
X177628628Y-97238094D01*
X177628628Y-97238094D02*
X177723866Y-97285713D01*
X177723866Y-97285713D02*
X177914342Y-97285713D01*
X177914342Y-97285713D02*
X178009580Y-97238094D01*
X178009580Y-97238094D02*
X178057200Y-97190475D01*
X178057200Y-97190475D02*
X178104819Y-97095237D01*
X178104819Y-97095237D02*
X178104819Y-96904761D01*
X178104819Y-96904761D02*
X178057200Y-96809523D01*
X178057200Y-96809523D02*
X178009580Y-96761904D01*
X178009580Y-96761904D02*
X177914342Y-96714285D01*
X177914342Y-96714285D02*
X177723866Y-96714285D01*
X177723866Y-96714285D02*
X177628628Y-96761904D01*
X177628628Y-96761904D02*
X177581009Y-96809523D01*
X177581009Y-96809523D02*
X177533390Y-96904761D01*
X170904761Y-113350057D02*
X170809523Y-113302438D01*
X170809523Y-113302438D02*
X170714285Y-113207200D01*
X170714285Y-113207200D02*
X170571428Y-113064342D01*
X170571428Y-113064342D02*
X170476190Y-113016723D01*
X170476190Y-113016723D02*
X170380952Y-113016723D01*
X170428571Y-113254819D02*
X170333333Y-113207200D01*
X170333333Y-113207200D02*
X170238095Y-113111961D01*
X170238095Y-113111961D02*
X170190476Y-112921485D01*
X170190476Y-112921485D02*
X170190476Y-112588152D01*
X170190476Y-112588152D02*
X170238095Y-112397676D01*
X170238095Y-112397676D02*
X170333333Y-112302438D01*
X170333333Y-112302438D02*
X170428571Y-112254819D01*
X170428571Y-112254819D02*
X170619047Y-112254819D01*
X170619047Y-112254819D02*
X170714285Y-112302438D01*
X170714285Y-112302438D02*
X170809523Y-112397676D01*
X170809523Y-112397676D02*
X170857142Y-112588152D01*
X170857142Y-112588152D02*
X170857142Y-112921485D01*
X170857142Y-112921485D02*
X170809523Y-113111961D01*
X170809523Y-113111961D02*
X170714285Y-113207200D01*
X170714285Y-113207200D02*
X170619047Y-113254819D01*
X170619047Y-113254819D02*
X170428571Y-113254819D01*
X171619047Y-112731009D02*
X171761904Y-112778628D01*
X171761904Y-112778628D02*
X171809523Y-112826247D01*
X171809523Y-112826247D02*
X171857142Y-112921485D01*
X171857142Y-112921485D02*
X171857142Y-113064342D01*
X171857142Y-113064342D02*
X171809523Y-113159580D01*
X171809523Y-113159580D02*
X171761904Y-113207200D01*
X171761904Y-113207200D02*
X171666666Y-113254819D01*
X171666666Y-113254819D02*
X171285714Y-113254819D01*
X171285714Y-113254819D02*
X171285714Y-112254819D01*
X171285714Y-112254819D02*
X171619047Y-112254819D01*
X171619047Y-112254819D02*
X171714285Y-112302438D01*
X171714285Y-112302438D02*
X171761904Y-112350057D01*
X171761904Y-112350057D02*
X171809523Y-112445295D01*
X171809523Y-112445295D02*
X171809523Y-112540533D01*
X171809523Y-112540533D02*
X171761904Y-112635771D01*
X171761904Y-112635771D02*
X171714285Y-112683390D01*
X171714285Y-112683390D02*
X171619047Y-112731009D01*
X171619047Y-112731009D02*
X171285714Y-112731009D01*
X172238095Y-112350057D02*
X172285714Y-112302438D01*
X172285714Y-112302438D02*
X172380952Y-112254819D01*
X172380952Y-112254819D02*
X172619047Y-112254819D01*
X172619047Y-112254819D02*
X172714285Y-112302438D01*
X172714285Y-112302438D02*
X172761904Y-112350057D01*
X172761904Y-112350057D02*
X172809523Y-112445295D01*
X172809523Y-112445295D02*
X172809523Y-112540533D01*
X172809523Y-112540533D02*
X172761904Y-112683390D01*
X172761904Y-112683390D02*
X172190476Y-113254819D01*
X172190476Y-113254819D02*
X172809523Y-113254819D01*
X184695833Y-129497080D02*
X184648214Y-129544700D01*
X184648214Y-129544700D02*
X184505357Y-129592319D01*
X184505357Y-129592319D02*
X184410119Y-129592319D01*
X184410119Y-129592319D02*
X184267262Y-129544700D01*
X184267262Y-129544700D02*
X184172024Y-129449461D01*
X184172024Y-129449461D02*
X184124405Y-129354223D01*
X184124405Y-129354223D02*
X184076786Y-129163747D01*
X184076786Y-129163747D02*
X184076786Y-129020890D01*
X184076786Y-129020890D02*
X184124405Y-128830414D01*
X184124405Y-128830414D02*
X184172024Y-128735176D01*
X184172024Y-128735176D02*
X184267262Y-128639938D01*
X184267262Y-128639938D02*
X184410119Y-128592319D01*
X184410119Y-128592319D02*
X184505357Y-128592319D01*
X184505357Y-128592319D02*
X184648214Y-128639938D01*
X184648214Y-128639938D02*
X184695833Y-128687557D01*
X185695833Y-129592319D02*
X185362500Y-129116128D01*
X185124405Y-129592319D02*
X185124405Y-128592319D01*
X185124405Y-128592319D02*
X185505357Y-128592319D01*
X185505357Y-128592319D02*
X185600595Y-128639938D01*
X185600595Y-128639938D02*
X185648214Y-128687557D01*
X185648214Y-128687557D02*
X185695833Y-128782795D01*
X185695833Y-128782795D02*
X185695833Y-128925652D01*
X185695833Y-128925652D02*
X185648214Y-129020890D01*
X185648214Y-129020890D02*
X185600595Y-129068509D01*
X185600595Y-129068509D02*
X185505357Y-129116128D01*
X185505357Y-129116128D02*
X185124405Y-129116128D01*
X186648214Y-129592319D02*
X186076786Y-129592319D01*
X186362500Y-129592319D02*
X186362500Y-128592319D01*
X186362500Y-128592319D02*
X186267262Y-128735176D01*
X186267262Y-128735176D02*
X186172024Y-128830414D01*
X186172024Y-128830414D02*
X186076786Y-128878033D01*
X174833333Y-105359580D02*
X174785714Y-105407200D01*
X174785714Y-105407200D02*
X174642857Y-105454819D01*
X174642857Y-105454819D02*
X174547619Y-105454819D01*
X174547619Y-105454819D02*
X174404762Y-105407200D01*
X174404762Y-105407200D02*
X174309524Y-105311961D01*
X174309524Y-105311961D02*
X174261905Y-105216723D01*
X174261905Y-105216723D02*
X174214286Y-105026247D01*
X174214286Y-105026247D02*
X174214286Y-104883390D01*
X174214286Y-104883390D02*
X174261905Y-104692914D01*
X174261905Y-104692914D02*
X174309524Y-104597676D01*
X174309524Y-104597676D02*
X174404762Y-104502438D01*
X174404762Y-104502438D02*
X174547619Y-104454819D01*
X174547619Y-104454819D02*
X174642857Y-104454819D01*
X174642857Y-104454819D02*
X174785714Y-104502438D01*
X174785714Y-104502438D02*
X174833333Y-104550057D01*
X175595238Y-104931009D02*
X175738095Y-104978628D01*
X175738095Y-104978628D02*
X175785714Y-105026247D01*
X175785714Y-105026247D02*
X175833333Y-105121485D01*
X175833333Y-105121485D02*
X175833333Y-105264342D01*
X175833333Y-105264342D02*
X175785714Y-105359580D01*
X175785714Y-105359580D02*
X175738095Y-105407200D01*
X175738095Y-105407200D02*
X175642857Y-105454819D01*
X175642857Y-105454819D02*
X175261905Y-105454819D01*
X175261905Y-105454819D02*
X175261905Y-104454819D01*
X175261905Y-104454819D02*
X175595238Y-104454819D01*
X175595238Y-104454819D02*
X175690476Y-104502438D01*
X175690476Y-104502438D02*
X175738095Y-104550057D01*
X175738095Y-104550057D02*
X175785714Y-104645295D01*
X175785714Y-104645295D02*
X175785714Y-104740533D01*
X175785714Y-104740533D02*
X175738095Y-104835771D01*
X175738095Y-104835771D02*
X175690476Y-104883390D01*
X175690476Y-104883390D02*
X175595238Y-104931009D01*
X175595238Y-104931009D02*
X175261905Y-104931009D01*
X176214286Y-104550057D02*
X176261905Y-104502438D01*
X176261905Y-104502438D02*
X176357143Y-104454819D01*
X176357143Y-104454819D02*
X176595238Y-104454819D01*
X176595238Y-104454819D02*
X176690476Y-104502438D01*
X176690476Y-104502438D02*
X176738095Y-104550057D01*
X176738095Y-104550057D02*
X176785714Y-104645295D01*
X176785714Y-104645295D02*
X176785714Y-104740533D01*
X176785714Y-104740533D02*
X176738095Y-104883390D01*
X176738095Y-104883390D02*
X176166667Y-105454819D01*
X176166667Y-105454819D02*
X176785714Y-105454819D01*
X170333333Y-105454819D02*
X170000000Y-104978628D01*
X169761905Y-105454819D02*
X169761905Y-104454819D01*
X169761905Y-104454819D02*
X170142857Y-104454819D01*
X170142857Y-104454819D02*
X170238095Y-104502438D01*
X170238095Y-104502438D02*
X170285714Y-104550057D01*
X170285714Y-104550057D02*
X170333333Y-104645295D01*
X170333333Y-104645295D02*
X170333333Y-104788152D01*
X170333333Y-104788152D02*
X170285714Y-104883390D01*
X170285714Y-104883390D02*
X170238095Y-104931009D01*
X170238095Y-104931009D02*
X170142857Y-104978628D01*
X170142857Y-104978628D02*
X169761905Y-104978628D01*
X171095238Y-104931009D02*
X171238095Y-104978628D01*
X171238095Y-104978628D02*
X171285714Y-105026247D01*
X171285714Y-105026247D02*
X171333333Y-105121485D01*
X171333333Y-105121485D02*
X171333333Y-105264342D01*
X171333333Y-105264342D02*
X171285714Y-105359580D01*
X171285714Y-105359580D02*
X171238095Y-105407200D01*
X171238095Y-105407200D02*
X171142857Y-105454819D01*
X171142857Y-105454819D02*
X170761905Y-105454819D01*
X170761905Y-105454819D02*
X170761905Y-104454819D01*
X170761905Y-104454819D02*
X171095238Y-104454819D01*
X171095238Y-104454819D02*
X171190476Y-104502438D01*
X171190476Y-104502438D02*
X171238095Y-104550057D01*
X171238095Y-104550057D02*
X171285714Y-104645295D01*
X171285714Y-104645295D02*
X171285714Y-104740533D01*
X171285714Y-104740533D02*
X171238095Y-104835771D01*
X171238095Y-104835771D02*
X171190476Y-104883390D01*
X171190476Y-104883390D02*
X171095238Y-104931009D01*
X171095238Y-104931009D02*
X170761905Y-104931009D01*
X171666667Y-104454819D02*
X172333333Y-104454819D01*
X172333333Y-104454819D02*
X171904762Y-105454819D01*
X170904761Y-118750057D02*
X170809523Y-118702438D01*
X170809523Y-118702438D02*
X170714285Y-118607200D01*
X170714285Y-118607200D02*
X170571428Y-118464342D01*
X170571428Y-118464342D02*
X170476190Y-118416723D01*
X170476190Y-118416723D02*
X170380952Y-118416723D01*
X170428571Y-118654819D02*
X170333333Y-118607200D01*
X170333333Y-118607200D02*
X170238095Y-118511961D01*
X170238095Y-118511961D02*
X170190476Y-118321485D01*
X170190476Y-118321485D02*
X170190476Y-117988152D01*
X170190476Y-117988152D02*
X170238095Y-117797676D01*
X170238095Y-117797676D02*
X170333333Y-117702438D01*
X170333333Y-117702438D02*
X170428571Y-117654819D01*
X170428571Y-117654819D02*
X170619047Y-117654819D01*
X170619047Y-117654819D02*
X170714285Y-117702438D01*
X170714285Y-117702438D02*
X170809523Y-117797676D01*
X170809523Y-117797676D02*
X170857142Y-117988152D01*
X170857142Y-117988152D02*
X170857142Y-118321485D01*
X170857142Y-118321485D02*
X170809523Y-118511961D01*
X170809523Y-118511961D02*
X170714285Y-118607200D01*
X170714285Y-118607200D02*
X170619047Y-118654819D01*
X170619047Y-118654819D02*
X170428571Y-118654819D01*
X171619047Y-118131009D02*
X171761904Y-118178628D01*
X171761904Y-118178628D02*
X171809523Y-118226247D01*
X171809523Y-118226247D02*
X171857142Y-118321485D01*
X171857142Y-118321485D02*
X171857142Y-118464342D01*
X171857142Y-118464342D02*
X171809523Y-118559580D01*
X171809523Y-118559580D02*
X171761904Y-118607200D01*
X171761904Y-118607200D02*
X171666666Y-118654819D01*
X171666666Y-118654819D02*
X171285714Y-118654819D01*
X171285714Y-118654819D02*
X171285714Y-117654819D01*
X171285714Y-117654819D02*
X171619047Y-117654819D01*
X171619047Y-117654819D02*
X171714285Y-117702438D01*
X171714285Y-117702438D02*
X171761904Y-117750057D01*
X171761904Y-117750057D02*
X171809523Y-117845295D01*
X171809523Y-117845295D02*
X171809523Y-117940533D01*
X171809523Y-117940533D02*
X171761904Y-118035771D01*
X171761904Y-118035771D02*
X171714285Y-118083390D01*
X171714285Y-118083390D02*
X171619047Y-118131009D01*
X171619047Y-118131009D02*
X171285714Y-118131009D01*
X172809523Y-118654819D02*
X172238095Y-118654819D01*
X172523809Y-118654819D02*
X172523809Y-117654819D01*
X172523809Y-117654819D02*
X172428571Y-117797676D01*
X172428571Y-117797676D02*
X172333333Y-117892914D01*
X172333333Y-117892914D02*
X172238095Y-117940533D01*
X183170833Y-100904819D02*
X182694643Y-100904819D01*
X182694643Y-100904819D02*
X182694643Y-99904819D01*
X184075595Y-100904819D02*
X183742262Y-100428628D01*
X183504167Y-100904819D02*
X183504167Y-99904819D01*
X183504167Y-99904819D02*
X183885119Y-99904819D01*
X183885119Y-99904819D02*
X183980357Y-99952438D01*
X183980357Y-99952438D02*
X184027976Y-100000057D01*
X184027976Y-100000057D02*
X184075595Y-100095295D01*
X184075595Y-100095295D02*
X184075595Y-100238152D01*
X184075595Y-100238152D02*
X184027976Y-100333390D01*
X184027976Y-100333390D02*
X183980357Y-100381009D01*
X183980357Y-100381009D02*
X183885119Y-100428628D01*
X183885119Y-100428628D02*
X183504167Y-100428628D01*
X185027976Y-100904819D02*
X184456548Y-100904819D01*
X184742262Y-100904819D02*
X184742262Y-99904819D01*
X184742262Y-99904819D02*
X184647024Y-100047676D01*
X184647024Y-100047676D02*
X184551786Y-100142914D01*
X184551786Y-100142914D02*
X184456548Y-100190533D01*
X187333333Y-101859580D02*
X187285714Y-101907200D01*
X187285714Y-101907200D02*
X187142857Y-101954819D01*
X187142857Y-101954819D02*
X187047619Y-101954819D01*
X187047619Y-101954819D02*
X186904762Y-101907200D01*
X186904762Y-101907200D02*
X186809524Y-101811961D01*
X186809524Y-101811961D02*
X186761905Y-101716723D01*
X186761905Y-101716723D02*
X186714286Y-101526247D01*
X186714286Y-101526247D02*
X186714286Y-101383390D01*
X186714286Y-101383390D02*
X186761905Y-101192914D01*
X186761905Y-101192914D02*
X186809524Y-101097676D01*
X186809524Y-101097676D02*
X186904762Y-101002438D01*
X186904762Y-101002438D02*
X187047619Y-100954819D01*
X187047619Y-100954819D02*
X187142857Y-100954819D01*
X187142857Y-100954819D02*
X187285714Y-101002438D01*
X187285714Y-101002438D02*
X187333333Y-101050057D01*
X188333333Y-101954819D02*
X188000000Y-101478628D01*
X187761905Y-101954819D02*
X187761905Y-100954819D01*
X187761905Y-100954819D02*
X188142857Y-100954819D01*
X188142857Y-100954819D02*
X188238095Y-101002438D01*
X188238095Y-101002438D02*
X188285714Y-101050057D01*
X188285714Y-101050057D02*
X188333333Y-101145295D01*
X188333333Y-101145295D02*
X188333333Y-101288152D01*
X188333333Y-101288152D02*
X188285714Y-101383390D01*
X188285714Y-101383390D02*
X188238095Y-101431009D01*
X188238095Y-101431009D02*
X188142857Y-101478628D01*
X188142857Y-101478628D02*
X187761905Y-101478628D01*
X188666667Y-100954819D02*
X189285714Y-100954819D01*
X189285714Y-100954819D02*
X188952381Y-101335771D01*
X188952381Y-101335771D02*
X189095238Y-101335771D01*
X189095238Y-101335771D02*
X189190476Y-101383390D01*
X189190476Y-101383390D02*
X189238095Y-101431009D01*
X189238095Y-101431009D02*
X189285714Y-101526247D01*
X189285714Y-101526247D02*
X189285714Y-101764342D01*
X189285714Y-101764342D02*
X189238095Y-101859580D01*
X189238095Y-101859580D02*
X189190476Y-101907200D01*
X189190476Y-101907200D02*
X189095238Y-101954819D01*
X189095238Y-101954819D02*
X188809524Y-101954819D01*
X188809524Y-101954819D02*
X188714286Y-101907200D01*
X188714286Y-101907200D02*
X188666667Y-101859580D01*
X174833333Y-91804819D02*
X174500000Y-91328628D01*
X174261905Y-91804819D02*
X174261905Y-90804819D01*
X174261905Y-90804819D02*
X174642857Y-90804819D01*
X174642857Y-90804819D02*
X174738095Y-90852438D01*
X174738095Y-90852438D02*
X174785714Y-90900057D01*
X174785714Y-90900057D02*
X174833333Y-90995295D01*
X174833333Y-90995295D02*
X174833333Y-91138152D01*
X174833333Y-91138152D02*
X174785714Y-91233390D01*
X174785714Y-91233390D02*
X174738095Y-91281009D01*
X174738095Y-91281009D02*
X174642857Y-91328628D01*
X174642857Y-91328628D02*
X174261905Y-91328628D01*
X175595238Y-91281009D02*
X175738095Y-91328628D01*
X175738095Y-91328628D02*
X175785714Y-91376247D01*
X175785714Y-91376247D02*
X175833333Y-91471485D01*
X175833333Y-91471485D02*
X175833333Y-91614342D01*
X175833333Y-91614342D02*
X175785714Y-91709580D01*
X175785714Y-91709580D02*
X175738095Y-91757200D01*
X175738095Y-91757200D02*
X175642857Y-91804819D01*
X175642857Y-91804819D02*
X175261905Y-91804819D01*
X175261905Y-91804819D02*
X175261905Y-90804819D01*
X175261905Y-90804819D02*
X175595238Y-90804819D01*
X175595238Y-90804819D02*
X175690476Y-90852438D01*
X175690476Y-90852438D02*
X175738095Y-90900057D01*
X175738095Y-90900057D02*
X175785714Y-90995295D01*
X175785714Y-90995295D02*
X175785714Y-91090533D01*
X175785714Y-91090533D02*
X175738095Y-91185771D01*
X175738095Y-91185771D02*
X175690476Y-91233390D01*
X175690476Y-91233390D02*
X175595238Y-91281009D01*
X175595238Y-91281009D02*
X175261905Y-91281009D01*
X176309524Y-91804819D02*
X176500000Y-91804819D01*
X176500000Y-91804819D02*
X176595238Y-91757200D01*
X176595238Y-91757200D02*
X176642857Y-91709580D01*
X176642857Y-91709580D02*
X176738095Y-91566723D01*
X176738095Y-91566723D02*
X176785714Y-91376247D01*
X176785714Y-91376247D02*
X176785714Y-90995295D01*
X176785714Y-90995295D02*
X176738095Y-90900057D01*
X176738095Y-90900057D02*
X176690476Y-90852438D01*
X176690476Y-90852438D02*
X176595238Y-90804819D01*
X176595238Y-90804819D02*
X176404762Y-90804819D01*
X176404762Y-90804819D02*
X176309524Y-90852438D01*
X176309524Y-90852438D02*
X176261905Y-90900057D01*
X176261905Y-90900057D02*
X176214286Y-90995295D01*
X176214286Y-90995295D02*
X176214286Y-91233390D01*
X176214286Y-91233390D02*
X176261905Y-91328628D01*
X176261905Y-91328628D02*
X176309524Y-91376247D01*
X176309524Y-91376247D02*
X176404762Y-91423866D01*
X176404762Y-91423866D02*
X176595238Y-91423866D01*
X176595238Y-91423866D02*
X176690476Y-91376247D01*
X176690476Y-91376247D02*
X176738095Y-91328628D01*
X176738095Y-91328628D02*
X176785714Y-91233390D01*
X172695833Y-129359580D02*
X172648214Y-129407200D01*
X172648214Y-129407200D02*
X172505357Y-129454819D01*
X172505357Y-129454819D02*
X172410119Y-129454819D01*
X172410119Y-129454819D02*
X172267262Y-129407200D01*
X172267262Y-129407200D02*
X172172024Y-129311961D01*
X172172024Y-129311961D02*
X172124405Y-129216723D01*
X172124405Y-129216723D02*
X172076786Y-129026247D01*
X172076786Y-129026247D02*
X172076786Y-128883390D01*
X172076786Y-128883390D02*
X172124405Y-128692914D01*
X172124405Y-128692914D02*
X172172024Y-128597676D01*
X172172024Y-128597676D02*
X172267262Y-128502438D01*
X172267262Y-128502438D02*
X172410119Y-128454819D01*
X172410119Y-128454819D02*
X172505357Y-128454819D01*
X172505357Y-128454819D02*
X172648214Y-128502438D01*
X172648214Y-128502438D02*
X172695833Y-128550057D01*
X173457738Y-128931009D02*
X173600595Y-128978628D01*
X173600595Y-128978628D02*
X173648214Y-129026247D01*
X173648214Y-129026247D02*
X173695833Y-129121485D01*
X173695833Y-129121485D02*
X173695833Y-129264342D01*
X173695833Y-129264342D02*
X173648214Y-129359580D01*
X173648214Y-129359580D02*
X173600595Y-129407200D01*
X173600595Y-129407200D02*
X173505357Y-129454819D01*
X173505357Y-129454819D02*
X173124405Y-129454819D01*
X173124405Y-129454819D02*
X173124405Y-128454819D01*
X173124405Y-128454819D02*
X173457738Y-128454819D01*
X173457738Y-128454819D02*
X173552976Y-128502438D01*
X173552976Y-128502438D02*
X173600595Y-128550057D01*
X173600595Y-128550057D02*
X173648214Y-128645295D01*
X173648214Y-128645295D02*
X173648214Y-128740533D01*
X173648214Y-128740533D02*
X173600595Y-128835771D01*
X173600595Y-128835771D02*
X173552976Y-128883390D01*
X173552976Y-128883390D02*
X173457738Y-128931009D01*
X173457738Y-128931009D02*
X173124405Y-128931009D01*
X174648214Y-129454819D02*
X174076786Y-129454819D01*
X174362500Y-129454819D02*
X174362500Y-128454819D01*
X174362500Y-128454819D02*
X174267262Y-128597676D01*
X174267262Y-128597676D02*
X174172024Y-128692914D01*
X174172024Y-128692914D02*
X174076786Y-128740533D01*
X155672142Y-122954819D02*
X155195952Y-122954819D01*
X155195952Y-122954819D02*
X155195952Y-121954819D01*
X156148333Y-122383390D02*
X156053095Y-122335771D01*
X156053095Y-122335771D02*
X156005476Y-122288152D01*
X156005476Y-122288152D02*
X155957857Y-122192914D01*
X155957857Y-122192914D02*
X155957857Y-122145295D01*
X155957857Y-122145295D02*
X156005476Y-122050057D01*
X156005476Y-122050057D02*
X156053095Y-122002438D01*
X156053095Y-122002438D02*
X156148333Y-121954819D01*
X156148333Y-121954819D02*
X156338809Y-121954819D01*
X156338809Y-121954819D02*
X156434047Y-122002438D01*
X156434047Y-122002438D02*
X156481666Y-122050057D01*
X156481666Y-122050057D02*
X156529285Y-122145295D01*
X156529285Y-122145295D02*
X156529285Y-122192914D01*
X156529285Y-122192914D02*
X156481666Y-122288152D01*
X156481666Y-122288152D02*
X156434047Y-122335771D01*
X156434047Y-122335771D02*
X156338809Y-122383390D01*
X156338809Y-122383390D02*
X156148333Y-122383390D01*
X156148333Y-122383390D02*
X156053095Y-122431009D01*
X156053095Y-122431009D02*
X156005476Y-122478628D01*
X156005476Y-122478628D02*
X155957857Y-122573866D01*
X155957857Y-122573866D02*
X155957857Y-122764342D01*
X155957857Y-122764342D02*
X156005476Y-122859580D01*
X156005476Y-122859580D02*
X156053095Y-122907200D01*
X156053095Y-122907200D02*
X156148333Y-122954819D01*
X156148333Y-122954819D02*
X156338809Y-122954819D01*
X156338809Y-122954819D02*
X156434047Y-122907200D01*
X156434047Y-122907200D02*
X156481666Y-122859580D01*
X156481666Y-122859580D02*
X156529285Y-122764342D01*
X156529285Y-122764342D02*
X156529285Y-122573866D01*
X156529285Y-122573866D02*
X156481666Y-122478628D01*
X156481666Y-122478628D02*
X156434047Y-122431009D01*
X156434047Y-122431009D02*
X156338809Y-122383390D01*
X157481666Y-122954819D02*
X156910238Y-122954819D01*
X157195952Y-122954819D02*
X157195952Y-121954819D01*
X157195952Y-121954819D02*
X157100714Y-122097676D01*
X157100714Y-122097676D02*
X157005476Y-122192914D01*
X157005476Y-122192914D02*
X156910238Y-122240533D01*
X170670833Y-100904819D02*
X170194643Y-100904819D01*
X170194643Y-100904819D02*
X170194643Y-99904819D01*
X171337500Y-100381009D02*
X171480357Y-100428628D01*
X171480357Y-100428628D02*
X171527976Y-100476247D01*
X171527976Y-100476247D02*
X171575595Y-100571485D01*
X171575595Y-100571485D02*
X171575595Y-100714342D01*
X171575595Y-100714342D02*
X171527976Y-100809580D01*
X171527976Y-100809580D02*
X171480357Y-100857200D01*
X171480357Y-100857200D02*
X171385119Y-100904819D01*
X171385119Y-100904819D02*
X171004167Y-100904819D01*
X171004167Y-100904819D02*
X171004167Y-99904819D01*
X171004167Y-99904819D02*
X171337500Y-99904819D01*
X171337500Y-99904819D02*
X171432738Y-99952438D01*
X171432738Y-99952438D02*
X171480357Y-100000057D01*
X171480357Y-100000057D02*
X171527976Y-100095295D01*
X171527976Y-100095295D02*
X171527976Y-100190533D01*
X171527976Y-100190533D02*
X171480357Y-100285771D01*
X171480357Y-100285771D02*
X171432738Y-100333390D01*
X171432738Y-100333390D02*
X171337500Y-100381009D01*
X171337500Y-100381009D02*
X171004167Y-100381009D01*
X172527976Y-100904819D02*
X171956548Y-100904819D01*
X172242262Y-100904819D02*
X172242262Y-99904819D01*
X172242262Y-99904819D02*
X172147024Y-100047676D01*
X172147024Y-100047676D02*
X172051786Y-100142914D01*
X172051786Y-100142914D02*
X171956548Y-100190533D01*
X183404761Y-118800057D02*
X183309523Y-118752438D01*
X183309523Y-118752438D02*
X183214285Y-118657200D01*
X183214285Y-118657200D02*
X183071428Y-118514342D01*
X183071428Y-118514342D02*
X182976190Y-118466723D01*
X182976190Y-118466723D02*
X182880952Y-118466723D01*
X182928571Y-118704819D02*
X182833333Y-118657200D01*
X182833333Y-118657200D02*
X182738095Y-118561961D01*
X182738095Y-118561961D02*
X182690476Y-118371485D01*
X182690476Y-118371485D02*
X182690476Y-118038152D01*
X182690476Y-118038152D02*
X182738095Y-117847676D01*
X182738095Y-117847676D02*
X182833333Y-117752438D01*
X182833333Y-117752438D02*
X182928571Y-117704819D01*
X182928571Y-117704819D02*
X183119047Y-117704819D01*
X183119047Y-117704819D02*
X183214285Y-117752438D01*
X183214285Y-117752438D02*
X183309523Y-117847676D01*
X183309523Y-117847676D02*
X183357142Y-118038152D01*
X183357142Y-118038152D02*
X183357142Y-118371485D01*
X183357142Y-118371485D02*
X183309523Y-118561961D01*
X183309523Y-118561961D02*
X183214285Y-118657200D01*
X183214285Y-118657200D02*
X183119047Y-118704819D01*
X183119047Y-118704819D02*
X182928571Y-118704819D01*
X184357142Y-118704819D02*
X184023809Y-118228628D01*
X183785714Y-118704819D02*
X183785714Y-117704819D01*
X183785714Y-117704819D02*
X184166666Y-117704819D01*
X184166666Y-117704819D02*
X184261904Y-117752438D01*
X184261904Y-117752438D02*
X184309523Y-117800057D01*
X184309523Y-117800057D02*
X184357142Y-117895295D01*
X184357142Y-117895295D02*
X184357142Y-118038152D01*
X184357142Y-118038152D02*
X184309523Y-118133390D01*
X184309523Y-118133390D02*
X184261904Y-118181009D01*
X184261904Y-118181009D02*
X184166666Y-118228628D01*
X184166666Y-118228628D02*
X183785714Y-118228628D01*
X185309523Y-118704819D02*
X184738095Y-118704819D01*
X185023809Y-118704819D02*
X185023809Y-117704819D01*
X185023809Y-117704819D02*
X184928571Y-117847676D01*
X184928571Y-117847676D02*
X184833333Y-117942914D01*
X184833333Y-117942914D02*
X184738095Y-117990533D01*
X156359580Y-119275180D02*
X156407200Y-119322799D01*
X156407200Y-119322799D02*
X156454819Y-119465656D01*
X156454819Y-119465656D02*
X156454819Y-119560894D01*
X156454819Y-119560894D02*
X156407200Y-119703751D01*
X156407200Y-119703751D02*
X156311961Y-119798989D01*
X156311961Y-119798989D02*
X156216723Y-119846608D01*
X156216723Y-119846608D02*
X156026247Y-119894227D01*
X156026247Y-119894227D02*
X155883390Y-119894227D01*
X155883390Y-119894227D02*
X155692914Y-119846608D01*
X155692914Y-119846608D02*
X155597676Y-119798989D01*
X155597676Y-119798989D02*
X155502438Y-119703751D01*
X155502438Y-119703751D02*
X155454819Y-119560894D01*
X155454819Y-119560894D02*
X155454819Y-119465656D01*
X155454819Y-119465656D02*
X155502438Y-119322799D01*
X155502438Y-119322799D02*
X155550057Y-119275180D01*
X155883390Y-118703751D02*
X155835771Y-118798989D01*
X155835771Y-118798989D02*
X155788152Y-118846608D01*
X155788152Y-118846608D02*
X155692914Y-118894227D01*
X155692914Y-118894227D02*
X155645295Y-118894227D01*
X155645295Y-118894227D02*
X155550057Y-118846608D01*
X155550057Y-118846608D02*
X155502438Y-118798989D01*
X155502438Y-118798989D02*
X155454819Y-118703751D01*
X155454819Y-118703751D02*
X155454819Y-118513275D01*
X155454819Y-118513275D02*
X155502438Y-118418037D01*
X155502438Y-118418037D02*
X155550057Y-118370418D01*
X155550057Y-118370418D02*
X155645295Y-118322799D01*
X155645295Y-118322799D02*
X155692914Y-118322799D01*
X155692914Y-118322799D02*
X155788152Y-118370418D01*
X155788152Y-118370418D02*
X155835771Y-118418037D01*
X155835771Y-118418037D02*
X155883390Y-118513275D01*
X155883390Y-118513275D02*
X155883390Y-118703751D01*
X155883390Y-118703751D02*
X155931009Y-118798989D01*
X155931009Y-118798989D02*
X155978628Y-118846608D01*
X155978628Y-118846608D02*
X156073866Y-118894227D01*
X156073866Y-118894227D02*
X156264342Y-118894227D01*
X156264342Y-118894227D02*
X156359580Y-118846608D01*
X156359580Y-118846608D02*
X156407200Y-118798989D01*
X156407200Y-118798989D02*
X156454819Y-118703751D01*
X156454819Y-118703751D02*
X156454819Y-118513275D01*
X156454819Y-118513275D02*
X156407200Y-118418037D01*
X156407200Y-118418037D02*
X156359580Y-118370418D01*
X156359580Y-118370418D02*
X156264342Y-118322799D01*
X156264342Y-118322799D02*
X156073866Y-118322799D01*
X156073866Y-118322799D02*
X155978628Y-118370418D01*
X155978628Y-118370418D02*
X155931009Y-118418037D01*
X155931009Y-118418037D02*
X155883390Y-118513275D01*
X156454819Y-117370418D02*
X156454819Y-117941846D01*
X156454819Y-117656132D02*
X155454819Y-117656132D01*
X155454819Y-117656132D02*
X155597676Y-117751370D01*
X155597676Y-117751370D02*
X155692914Y-117846608D01*
X155692914Y-117846608D02*
X155740533Y-117941846D01*
X182833333Y-91859580D02*
X182785714Y-91907200D01*
X182785714Y-91907200D02*
X182642857Y-91954819D01*
X182642857Y-91954819D02*
X182547619Y-91954819D01*
X182547619Y-91954819D02*
X182404762Y-91907200D01*
X182404762Y-91907200D02*
X182309524Y-91811961D01*
X182309524Y-91811961D02*
X182261905Y-91716723D01*
X182261905Y-91716723D02*
X182214286Y-91526247D01*
X182214286Y-91526247D02*
X182214286Y-91383390D01*
X182214286Y-91383390D02*
X182261905Y-91192914D01*
X182261905Y-91192914D02*
X182309524Y-91097676D01*
X182309524Y-91097676D02*
X182404762Y-91002438D01*
X182404762Y-91002438D02*
X182547619Y-90954819D01*
X182547619Y-90954819D02*
X182642857Y-90954819D01*
X182642857Y-90954819D02*
X182785714Y-91002438D01*
X182785714Y-91002438D02*
X182833333Y-91050057D01*
X183833333Y-91954819D02*
X183500000Y-91478628D01*
X183261905Y-91954819D02*
X183261905Y-90954819D01*
X183261905Y-90954819D02*
X183642857Y-90954819D01*
X183642857Y-90954819D02*
X183738095Y-91002438D01*
X183738095Y-91002438D02*
X183785714Y-91050057D01*
X183785714Y-91050057D02*
X183833333Y-91145295D01*
X183833333Y-91145295D02*
X183833333Y-91288152D01*
X183833333Y-91288152D02*
X183785714Y-91383390D01*
X183785714Y-91383390D02*
X183738095Y-91431009D01*
X183738095Y-91431009D02*
X183642857Y-91478628D01*
X183642857Y-91478628D02*
X183261905Y-91478628D01*
X184690476Y-91288152D02*
X184690476Y-91954819D01*
X184452381Y-90907200D02*
X184214286Y-91621485D01*
X184214286Y-91621485D02*
X184833333Y-91621485D01*
X154259580Y-104295238D02*
X154307200Y-104342857D01*
X154307200Y-104342857D02*
X154354819Y-104485714D01*
X154354819Y-104485714D02*
X154354819Y-104580952D01*
X154354819Y-104580952D02*
X154307200Y-104723809D01*
X154307200Y-104723809D02*
X154211961Y-104819047D01*
X154211961Y-104819047D02*
X154116723Y-104866666D01*
X154116723Y-104866666D02*
X153926247Y-104914285D01*
X153926247Y-104914285D02*
X153783390Y-104914285D01*
X153783390Y-104914285D02*
X153592914Y-104866666D01*
X153592914Y-104866666D02*
X153497676Y-104819047D01*
X153497676Y-104819047D02*
X153402438Y-104723809D01*
X153402438Y-104723809D02*
X153354819Y-104580952D01*
X153354819Y-104580952D02*
X153354819Y-104485714D01*
X153354819Y-104485714D02*
X153402438Y-104342857D01*
X153402438Y-104342857D02*
X153450057Y-104295238D01*
X153878628Y-103676190D02*
X154354819Y-103676190D01*
X153354819Y-104009523D02*
X153878628Y-103676190D01*
X153878628Y-103676190D02*
X153354819Y-103342857D01*
X154354819Y-102485714D02*
X154354819Y-103057142D01*
X154354819Y-102771428D02*
X153354819Y-102771428D01*
X153354819Y-102771428D02*
X153497676Y-102866666D01*
X153497676Y-102866666D02*
X153592914Y-102961904D01*
X153592914Y-102961904D02*
X153640533Y-103057142D01*
X170833333Y-132954819D02*
X170500000Y-132478628D01*
X170261905Y-132954819D02*
X170261905Y-131954819D01*
X170261905Y-131954819D02*
X170642857Y-131954819D01*
X170642857Y-131954819D02*
X170738095Y-132002438D01*
X170738095Y-132002438D02*
X170785714Y-132050057D01*
X170785714Y-132050057D02*
X170833333Y-132145295D01*
X170833333Y-132145295D02*
X170833333Y-132288152D01*
X170833333Y-132288152D02*
X170785714Y-132383390D01*
X170785714Y-132383390D02*
X170738095Y-132431009D01*
X170738095Y-132431009D02*
X170642857Y-132478628D01*
X170642857Y-132478628D02*
X170261905Y-132478628D01*
X171595238Y-132431009D02*
X171738095Y-132478628D01*
X171738095Y-132478628D02*
X171785714Y-132526247D01*
X171785714Y-132526247D02*
X171833333Y-132621485D01*
X171833333Y-132621485D02*
X171833333Y-132764342D01*
X171833333Y-132764342D02*
X171785714Y-132859580D01*
X171785714Y-132859580D02*
X171738095Y-132907200D01*
X171738095Y-132907200D02*
X171642857Y-132954819D01*
X171642857Y-132954819D02*
X171261905Y-132954819D01*
X171261905Y-132954819D02*
X171261905Y-131954819D01*
X171261905Y-131954819D02*
X171595238Y-131954819D01*
X171595238Y-131954819D02*
X171690476Y-132002438D01*
X171690476Y-132002438D02*
X171738095Y-132050057D01*
X171738095Y-132050057D02*
X171785714Y-132145295D01*
X171785714Y-132145295D02*
X171785714Y-132240533D01*
X171785714Y-132240533D02*
X171738095Y-132335771D01*
X171738095Y-132335771D02*
X171690476Y-132383390D01*
X171690476Y-132383390D02*
X171595238Y-132431009D01*
X171595238Y-132431009D02*
X171261905Y-132431009D01*
X172785714Y-132954819D02*
X172214286Y-132954819D01*
X172500000Y-132954819D02*
X172500000Y-131954819D01*
X172500000Y-131954819D02*
X172404762Y-132097676D01*
X172404762Y-132097676D02*
X172309524Y-132192914D01*
X172309524Y-132192914D02*
X172214286Y-132240533D01*
X190604819Y-116166666D02*
X190128628Y-116499999D01*
X190604819Y-116738094D02*
X189604819Y-116738094D01*
X189604819Y-116738094D02*
X189604819Y-116357142D01*
X189604819Y-116357142D02*
X189652438Y-116261904D01*
X189652438Y-116261904D02*
X189700057Y-116214285D01*
X189700057Y-116214285D02*
X189795295Y-116166666D01*
X189795295Y-116166666D02*
X189938152Y-116166666D01*
X189938152Y-116166666D02*
X190033390Y-116214285D01*
X190033390Y-116214285D02*
X190081009Y-116261904D01*
X190081009Y-116261904D02*
X190128628Y-116357142D01*
X190128628Y-116357142D02*
X190128628Y-116738094D01*
X190604819Y-115166666D02*
X190128628Y-115499999D01*
X190604819Y-115738094D02*
X189604819Y-115738094D01*
X189604819Y-115738094D02*
X189604819Y-115357142D01*
X189604819Y-115357142D02*
X189652438Y-115261904D01*
X189652438Y-115261904D02*
X189700057Y-115214285D01*
X189700057Y-115214285D02*
X189795295Y-115166666D01*
X189795295Y-115166666D02*
X189938152Y-115166666D01*
X189938152Y-115166666D02*
X190033390Y-115214285D01*
X190033390Y-115214285D02*
X190081009Y-115261904D01*
X190081009Y-115261904D02*
X190128628Y-115357142D01*
X190128628Y-115357142D02*
X190128628Y-115738094D01*
X189604819Y-114261904D02*
X189604819Y-114738094D01*
X189604819Y-114738094D02*
X190081009Y-114785713D01*
X190081009Y-114785713D02*
X190033390Y-114738094D01*
X190033390Y-114738094D02*
X189985771Y-114642856D01*
X189985771Y-114642856D02*
X189985771Y-114404761D01*
X189985771Y-114404761D02*
X190033390Y-114309523D01*
X190033390Y-114309523D02*
X190081009Y-114261904D01*
X190081009Y-114261904D02*
X190176247Y-114214285D01*
X190176247Y-114214285D02*
X190414342Y-114214285D01*
X190414342Y-114214285D02*
X190509580Y-114261904D01*
X190509580Y-114261904D02*
X190557200Y-114309523D01*
X190557200Y-114309523D02*
X190604819Y-114404761D01*
X190604819Y-114404761D02*
X190604819Y-114642856D01*
X190604819Y-114642856D02*
X190557200Y-114738094D01*
X190557200Y-114738094D02*
X190509580Y-114785713D01*
X178104819Y-116166666D02*
X177628628Y-116499999D01*
X178104819Y-116738094D02*
X177104819Y-116738094D01*
X177104819Y-116738094D02*
X177104819Y-116357142D01*
X177104819Y-116357142D02*
X177152438Y-116261904D01*
X177152438Y-116261904D02*
X177200057Y-116214285D01*
X177200057Y-116214285D02*
X177295295Y-116166666D01*
X177295295Y-116166666D02*
X177438152Y-116166666D01*
X177438152Y-116166666D02*
X177533390Y-116214285D01*
X177533390Y-116214285D02*
X177581009Y-116261904D01*
X177581009Y-116261904D02*
X177628628Y-116357142D01*
X177628628Y-116357142D02*
X177628628Y-116738094D01*
X177581009Y-115404761D02*
X177628628Y-115261904D01*
X177628628Y-115261904D02*
X177676247Y-115214285D01*
X177676247Y-115214285D02*
X177771485Y-115166666D01*
X177771485Y-115166666D02*
X177914342Y-115166666D01*
X177914342Y-115166666D02*
X178009580Y-115214285D01*
X178009580Y-115214285D02*
X178057200Y-115261904D01*
X178057200Y-115261904D02*
X178104819Y-115357142D01*
X178104819Y-115357142D02*
X178104819Y-115738094D01*
X178104819Y-115738094D02*
X177104819Y-115738094D01*
X177104819Y-115738094D02*
X177104819Y-115404761D01*
X177104819Y-115404761D02*
X177152438Y-115309523D01*
X177152438Y-115309523D02*
X177200057Y-115261904D01*
X177200057Y-115261904D02*
X177295295Y-115214285D01*
X177295295Y-115214285D02*
X177390533Y-115214285D01*
X177390533Y-115214285D02*
X177485771Y-115261904D01*
X177485771Y-115261904D02*
X177533390Y-115309523D01*
X177533390Y-115309523D02*
X177581009Y-115404761D01*
X177581009Y-115404761D02*
X177581009Y-115738094D01*
X177104819Y-114261904D02*
X177104819Y-114738094D01*
X177104819Y-114738094D02*
X177581009Y-114785713D01*
X177581009Y-114785713D02*
X177533390Y-114738094D01*
X177533390Y-114738094D02*
X177485771Y-114642856D01*
X177485771Y-114642856D02*
X177485771Y-114404761D01*
X177485771Y-114404761D02*
X177533390Y-114309523D01*
X177533390Y-114309523D02*
X177581009Y-114261904D01*
X177581009Y-114261904D02*
X177676247Y-114214285D01*
X177676247Y-114214285D02*
X177914342Y-114214285D01*
X177914342Y-114214285D02*
X178009580Y-114261904D01*
X178009580Y-114261904D02*
X178057200Y-114309523D01*
X178057200Y-114309523D02*
X178104819Y-114404761D01*
X178104819Y-114404761D02*
X178104819Y-114642856D01*
X178104819Y-114642856D02*
X178057200Y-114738094D01*
X178057200Y-114738094D02*
X178009580Y-114785713D01*
X182833333Y-132954819D02*
X182500000Y-132478628D01*
X182261905Y-132954819D02*
X182261905Y-131954819D01*
X182261905Y-131954819D02*
X182642857Y-131954819D01*
X182642857Y-131954819D02*
X182738095Y-132002438D01*
X182738095Y-132002438D02*
X182785714Y-132050057D01*
X182785714Y-132050057D02*
X182833333Y-132145295D01*
X182833333Y-132145295D02*
X182833333Y-132288152D01*
X182833333Y-132288152D02*
X182785714Y-132383390D01*
X182785714Y-132383390D02*
X182738095Y-132431009D01*
X182738095Y-132431009D02*
X182642857Y-132478628D01*
X182642857Y-132478628D02*
X182261905Y-132478628D01*
X183833333Y-132954819D02*
X183500000Y-132478628D01*
X183261905Y-132954819D02*
X183261905Y-131954819D01*
X183261905Y-131954819D02*
X183642857Y-131954819D01*
X183642857Y-131954819D02*
X183738095Y-132002438D01*
X183738095Y-132002438D02*
X183785714Y-132050057D01*
X183785714Y-132050057D02*
X183833333Y-132145295D01*
X183833333Y-132145295D02*
X183833333Y-132288152D01*
X183833333Y-132288152D02*
X183785714Y-132383390D01*
X183785714Y-132383390D02*
X183738095Y-132431009D01*
X183738095Y-132431009D02*
X183642857Y-132478628D01*
X183642857Y-132478628D02*
X183261905Y-132478628D01*
X184785714Y-132954819D02*
X184214286Y-132954819D01*
X184500000Y-132954819D02*
X184500000Y-131954819D01*
X184500000Y-131954819D02*
X184404762Y-132097676D01*
X184404762Y-132097676D02*
X184309524Y-132192914D01*
X184309524Y-132192914D02*
X184214286Y-132240533D01*
X177954819Y-110666666D02*
X177478628Y-110999999D01*
X177954819Y-111238094D02*
X176954819Y-111238094D01*
X176954819Y-111238094D02*
X176954819Y-110857142D01*
X176954819Y-110857142D02*
X177002438Y-110761904D01*
X177002438Y-110761904D02*
X177050057Y-110714285D01*
X177050057Y-110714285D02*
X177145295Y-110666666D01*
X177145295Y-110666666D02*
X177288152Y-110666666D01*
X177288152Y-110666666D02*
X177383390Y-110714285D01*
X177383390Y-110714285D02*
X177431009Y-110761904D01*
X177431009Y-110761904D02*
X177478628Y-110857142D01*
X177478628Y-110857142D02*
X177478628Y-111238094D01*
X177431009Y-109904761D02*
X177478628Y-109761904D01*
X177478628Y-109761904D02*
X177526247Y-109714285D01*
X177526247Y-109714285D02*
X177621485Y-109666666D01*
X177621485Y-109666666D02*
X177764342Y-109666666D01*
X177764342Y-109666666D02*
X177859580Y-109714285D01*
X177859580Y-109714285D02*
X177907200Y-109761904D01*
X177907200Y-109761904D02*
X177954819Y-109857142D01*
X177954819Y-109857142D02*
X177954819Y-110238094D01*
X177954819Y-110238094D02*
X176954819Y-110238094D01*
X176954819Y-110238094D02*
X176954819Y-109904761D01*
X176954819Y-109904761D02*
X177002438Y-109809523D01*
X177002438Y-109809523D02*
X177050057Y-109761904D01*
X177050057Y-109761904D02*
X177145295Y-109714285D01*
X177145295Y-109714285D02*
X177240533Y-109714285D01*
X177240533Y-109714285D02*
X177335771Y-109761904D01*
X177335771Y-109761904D02*
X177383390Y-109809523D01*
X177383390Y-109809523D02*
X177431009Y-109904761D01*
X177431009Y-109904761D02*
X177431009Y-110238094D01*
X176954819Y-108809523D02*
X176954819Y-108999999D01*
X176954819Y-108999999D02*
X177002438Y-109095237D01*
X177002438Y-109095237D02*
X177050057Y-109142856D01*
X177050057Y-109142856D02*
X177192914Y-109238094D01*
X177192914Y-109238094D02*
X177383390Y-109285713D01*
X177383390Y-109285713D02*
X177764342Y-109285713D01*
X177764342Y-109285713D02*
X177859580Y-109238094D01*
X177859580Y-109238094D02*
X177907200Y-109190475D01*
X177907200Y-109190475D02*
X177954819Y-109095237D01*
X177954819Y-109095237D02*
X177954819Y-108904761D01*
X177954819Y-108904761D02*
X177907200Y-108809523D01*
X177907200Y-108809523D02*
X177859580Y-108761904D01*
X177859580Y-108761904D02*
X177764342Y-108714285D01*
X177764342Y-108714285D02*
X177526247Y-108714285D01*
X177526247Y-108714285D02*
X177431009Y-108761904D01*
X177431009Y-108761904D02*
X177383390Y-108809523D01*
X177383390Y-108809523D02*
X177335771Y-108904761D01*
X177335771Y-108904761D02*
X177335771Y-109095237D01*
X177335771Y-109095237D02*
X177383390Y-109190475D01*
X177383390Y-109190475D02*
X177431009Y-109238094D01*
X177431009Y-109238094D02*
X177526247Y-109285713D01*
X178104819Y-131666666D02*
X177628628Y-131999999D01*
X178104819Y-132238094D02*
X177104819Y-132238094D01*
X177104819Y-132238094D02*
X177104819Y-131857142D01*
X177104819Y-131857142D02*
X177152438Y-131761904D01*
X177152438Y-131761904D02*
X177200057Y-131714285D01*
X177200057Y-131714285D02*
X177295295Y-131666666D01*
X177295295Y-131666666D02*
X177438152Y-131666666D01*
X177438152Y-131666666D02*
X177533390Y-131714285D01*
X177533390Y-131714285D02*
X177581009Y-131761904D01*
X177581009Y-131761904D02*
X177628628Y-131857142D01*
X177628628Y-131857142D02*
X177628628Y-132238094D01*
X177581009Y-130904761D02*
X177628628Y-130761904D01*
X177628628Y-130761904D02*
X177676247Y-130714285D01*
X177676247Y-130714285D02*
X177771485Y-130666666D01*
X177771485Y-130666666D02*
X177914342Y-130666666D01*
X177914342Y-130666666D02*
X178009580Y-130714285D01*
X178009580Y-130714285D02*
X178057200Y-130761904D01*
X178057200Y-130761904D02*
X178104819Y-130857142D01*
X178104819Y-130857142D02*
X178104819Y-131238094D01*
X178104819Y-131238094D02*
X177104819Y-131238094D01*
X177104819Y-131238094D02*
X177104819Y-130904761D01*
X177104819Y-130904761D02*
X177152438Y-130809523D01*
X177152438Y-130809523D02*
X177200057Y-130761904D01*
X177200057Y-130761904D02*
X177295295Y-130714285D01*
X177295295Y-130714285D02*
X177390533Y-130714285D01*
X177390533Y-130714285D02*
X177485771Y-130761904D01*
X177485771Y-130761904D02*
X177533390Y-130809523D01*
X177533390Y-130809523D02*
X177581009Y-130904761D01*
X177581009Y-130904761D02*
X177581009Y-131238094D01*
X177104819Y-130333332D02*
X177104819Y-129714285D01*
X177104819Y-129714285D02*
X177485771Y-130047618D01*
X177485771Y-130047618D02*
X177485771Y-129904761D01*
X177485771Y-129904761D02*
X177533390Y-129809523D01*
X177533390Y-129809523D02*
X177581009Y-129761904D01*
X177581009Y-129761904D02*
X177676247Y-129714285D01*
X177676247Y-129714285D02*
X177914342Y-129714285D01*
X177914342Y-129714285D02*
X178009580Y-129761904D01*
X178009580Y-129761904D02*
X178057200Y-129809523D01*
X178057200Y-129809523D02*
X178104819Y-129904761D01*
X178104819Y-129904761D02*
X178104819Y-130190475D01*
X178104819Y-130190475D02*
X178057200Y-130285713D01*
X178057200Y-130285713D02*
X178009580Y-130333332D01*
X170333333Y-121954819D02*
X170000000Y-121478628D01*
X169761905Y-121954819D02*
X169761905Y-120954819D01*
X169761905Y-120954819D02*
X170142857Y-120954819D01*
X170142857Y-120954819D02*
X170238095Y-121002438D01*
X170238095Y-121002438D02*
X170285714Y-121050057D01*
X170285714Y-121050057D02*
X170333333Y-121145295D01*
X170333333Y-121145295D02*
X170333333Y-121288152D01*
X170333333Y-121288152D02*
X170285714Y-121383390D01*
X170285714Y-121383390D02*
X170238095Y-121431009D01*
X170238095Y-121431009D02*
X170142857Y-121478628D01*
X170142857Y-121478628D02*
X169761905Y-121478628D01*
X171095238Y-121431009D02*
X171238095Y-121478628D01*
X171238095Y-121478628D02*
X171285714Y-121526247D01*
X171285714Y-121526247D02*
X171333333Y-121621485D01*
X171333333Y-121621485D02*
X171333333Y-121764342D01*
X171333333Y-121764342D02*
X171285714Y-121859580D01*
X171285714Y-121859580D02*
X171238095Y-121907200D01*
X171238095Y-121907200D02*
X171142857Y-121954819D01*
X171142857Y-121954819D02*
X170761905Y-121954819D01*
X170761905Y-121954819D02*
X170761905Y-120954819D01*
X170761905Y-120954819D02*
X171095238Y-120954819D01*
X171095238Y-120954819D02*
X171190476Y-121002438D01*
X171190476Y-121002438D02*
X171238095Y-121050057D01*
X171238095Y-121050057D02*
X171285714Y-121145295D01*
X171285714Y-121145295D02*
X171285714Y-121240533D01*
X171285714Y-121240533D02*
X171238095Y-121335771D01*
X171238095Y-121335771D02*
X171190476Y-121383390D01*
X171190476Y-121383390D02*
X171095238Y-121431009D01*
X171095238Y-121431009D02*
X170761905Y-121431009D01*
X172190476Y-121288152D02*
X172190476Y-121954819D01*
X171952381Y-120907200D02*
X171714286Y-121621485D01*
X171714286Y-121621485D02*
X172333333Y-121621485D01*
X175333333Y-121954819D02*
X175000000Y-121478628D01*
X174761905Y-121954819D02*
X174761905Y-120954819D01*
X174761905Y-120954819D02*
X175142857Y-120954819D01*
X175142857Y-120954819D02*
X175238095Y-121002438D01*
X175238095Y-121002438D02*
X175285714Y-121050057D01*
X175285714Y-121050057D02*
X175333333Y-121145295D01*
X175333333Y-121145295D02*
X175333333Y-121288152D01*
X175333333Y-121288152D02*
X175285714Y-121383390D01*
X175285714Y-121383390D02*
X175238095Y-121431009D01*
X175238095Y-121431009D02*
X175142857Y-121478628D01*
X175142857Y-121478628D02*
X174761905Y-121478628D01*
X176095238Y-121431009D02*
X176238095Y-121478628D01*
X176238095Y-121478628D02*
X176285714Y-121526247D01*
X176285714Y-121526247D02*
X176333333Y-121621485D01*
X176333333Y-121621485D02*
X176333333Y-121764342D01*
X176333333Y-121764342D02*
X176285714Y-121859580D01*
X176285714Y-121859580D02*
X176238095Y-121907200D01*
X176238095Y-121907200D02*
X176142857Y-121954819D01*
X176142857Y-121954819D02*
X175761905Y-121954819D01*
X175761905Y-121954819D02*
X175761905Y-120954819D01*
X175761905Y-120954819D02*
X176095238Y-120954819D01*
X176095238Y-120954819D02*
X176190476Y-121002438D01*
X176190476Y-121002438D02*
X176238095Y-121050057D01*
X176238095Y-121050057D02*
X176285714Y-121145295D01*
X176285714Y-121145295D02*
X176285714Y-121240533D01*
X176285714Y-121240533D02*
X176238095Y-121335771D01*
X176238095Y-121335771D02*
X176190476Y-121383390D01*
X176190476Y-121383390D02*
X176095238Y-121431009D01*
X176095238Y-121431009D02*
X175761905Y-121431009D01*
X176714286Y-121050057D02*
X176761905Y-121002438D01*
X176761905Y-121002438D02*
X176857143Y-120954819D01*
X176857143Y-120954819D02*
X177095238Y-120954819D01*
X177095238Y-120954819D02*
X177190476Y-121002438D01*
X177190476Y-121002438D02*
X177238095Y-121050057D01*
X177238095Y-121050057D02*
X177285714Y-121145295D01*
X177285714Y-121145295D02*
X177285714Y-121240533D01*
X177285714Y-121240533D02*
X177238095Y-121383390D01*
X177238095Y-121383390D02*
X176666667Y-121954819D01*
X176666667Y-121954819D02*
X177285714Y-121954819D01*
X190604819Y-99166666D02*
X190128628Y-99499999D01*
X190604819Y-99738094D02*
X189604819Y-99738094D01*
X189604819Y-99738094D02*
X189604819Y-99357142D01*
X189604819Y-99357142D02*
X189652438Y-99261904D01*
X189652438Y-99261904D02*
X189700057Y-99214285D01*
X189700057Y-99214285D02*
X189795295Y-99166666D01*
X189795295Y-99166666D02*
X189938152Y-99166666D01*
X189938152Y-99166666D02*
X190033390Y-99214285D01*
X190033390Y-99214285D02*
X190081009Y-99261904D01*
X190081009Y-99261904D02*
X190128628Y-99357142D01*
X190128628Y-99357142D02*
X190128628Y-99738094D01*
X190604819Y-98166666D02*
X190128628Y-98499999D01*
X190604819Y-98738094D02*
X189604819Y-98738094D01*
X189604819Y-98738094D02*
X189604819Y-98357142D01*
X189604819Y-98357142D02*
X189652438Y-98261904D01*
X189652438Y-98261904D02*
X189700057Y-98214285D01*
X189700057Y-98214285D02*
X189795295Y-98166666D01*
X189795295Y-98166666D02*
X189938152Y-98166666D01*
X189938152Y-98166666D02*
X190033390Y-98214285D01*
X190033390Y-98214285D02*
X190081009Y-98261904D01*
X190081009Y-98261904D02*
X190128628Y-98357142D01*
X190128628Y-98357142D02*
X190128628Y-98738094D01*
X190033390Y-97595237D02*
X189985771Y-97690475D01*
X189985771Y-97690475D02*
X189938152Y-97738094D01*
X189938152Y-97738094D02*
X189842914Y-97785713D01*
X189842914Y-97785713D02*
X189795295Y-97785713D01*
X189795295Y-97785713D02*
X189700057Y-97738094D01*
X189700057Y-97738094D02*
X189652438Y-97690475D01*
X189652438Y-97690475D02*
X189604819Y-97595237D01*
X189604819Y-97595237D02*
X189604819Y-97404761D01*
X189604819Y-97404761D02*
X189652438Y-97309523D01*
X189652438Y-97309523D02*
X189700057Y-97261904D01*
X189700057Y-97261904D02*
X189795295Y-97214285D01*
X189795295Y-97214285D02*
X189842914Y-97214285D01*
X189842914Y-97214285D02*
X189938152Y-97261904D01*
X189938152Y-97261904D02*
X189985771Y-97309523D01*
X189985771Y-97309523D02*
X190033390Y-97404761D01*
X190033390Y-97404761D02*
X190033390Y-97595237D01*
X190033390Y-97595237D02*
X190081009Y-97690475D01*
X190081009Y-97690475D02*
X190128628Y-97738094D01*
X190128628Y-97738094D02*
X190223866Y-97785713D01*
X190223866Y-97785713D02*
X190414342Y-97785713D01*
X190414342Y-97785713D02*
X190509580Y-97738094D01*
X190509580Y-97738094D02*
X190557200Y-97690475D01*
X190557200Y-97690475D02*
X190604819Y-97595237D01*
X190604819Y-97595237D02*
X190604819Y-97404761D01*
X190604819Y-97404761D02*
X190557200Y-97309523D01*
X190557200Y-97309523D02*
X190509580Y-97261904D01*
X190509580Y-97261904D02*
X190414342Y-97214285D01*
X190414342Y-97214285D02*
X190223866Y-97214285D01*
X190223866Y-97214285D02*
X190128628Y-97261904D01*
X190128628Y-97261904D02*
X190081009Y-97309523D01*
X190081009Y-97309523D02*
X190033390Y-97404761D01*
X170904761Y-95550057D02*
X170809523Y-95502438D01*
X170809523Y-95502438D02*
X170714285Y-95407200D01*
X170714285Y-95407200D02*
X170571428Y-95264342D01*
X170571428Y-95264342D02*
X170476190Y-95216723D01*
X170476190Y-95216723D02*
X170380952Y-95216723D01*
X170428571Y-95454819D02*
X170333333Y-95407200D01*
X170333333Y-95407200D02*
X170238095Y-95311961D01*
X170238095Y-95311961D02*
X170190476Y-95121485D01*
X170190476Y-95121485D02*
X170190476Y-94788152D01*
X170190476Y-94788152D02*
X170238095Y-94597676D01*
X170238095Y-94597676D02*
X170333333Y-94502438D01*
X170333333Y-94502438D02*
X170428571Y-94454819D01*
X170428571Y-94454819D02*
X170619047Y-94454819D01*
X170619047Y-94454819D02*
X170714285Y-94502438D01*
X170714285Y-94502438D02*
X170809523Y-94597676D01*
X170809523Y-94597676D02*
X170857142Y-94788152D01*
X170857142Y-94788152D02*
X170857142Y-95121485D01*
X170857142Y-95121485D02*
X170809523Y-95311961D01*
X170809523Y-95311961D02*
X170714285Y-95407200D01*
X170714285Y-95407200D02*
X170619047Y-95454819D01*
X170619047Y-95454819D02*
X170428571Y-95454819D01*
X171619047Y-94931009D02*
X171761904Y-94978628D01*
X171761904Y-94978628D02*
X171809523Y-95026247D01*
X171809523Y-95026247D02*
X171857142Y-95121485D01*
X171857142Y-95121485D02*
X171857142Y-95264342D01*
X171857142Y-95264342D02*
X171809523Y-95359580D01*
X171809523Y-95359580D02*
X171761904Y-95407200D01*
X171761904Y-95407200D02*
X171666666Y-95454819D01*
X171666666Y-95454819D02*
X171285714Y-95454819D01*
X171285714Y-95454819D02*
X171285714Y-94454819D01*
X171285714Y-94454819D02*
X171619047Y-94454819D01*
X171619047Y-94454819D02*
X171714285Y-94502438D01*
X171714285Y-94502438D02*
X171761904Y-94550057D01*
X171761904Y-94550057D02*
X171809523Y-94645295D01*
X171809523Y-94645295D02*
X171809523Y-94740533D01*
X171809523Y-94740533D02*
X171761904Y-94835771D01*
X171761904Y-94835771D02*
X171714285Y-94883390D01*
X171714285Y-94883390D02*
X171619047Y-94931009D01*
X171619047Y-94931009D02*
X171285714Y-94931009D01*
X172190476Y-94454819D02*
X172809523Y-94454819D01*
X172809523Y-94454819D02*
X172476190Y-94835771D01*
X172476190Y-94835771D02*
X172619047Y-94835771D01*
X172619047Y-94835771D02*
X172714285Y-94883390D01*
X172714285Y-94883390D02*
X172761904Y-94931009D01*
X172761904Y-94931009D02*
X172809523Y-95026247D01*
X172809523Y-95026247D02*
X172809523Y-95264342D01*
X172809523Y-95264342D02*
X172761904Y-95359580D01*
X172761904Y-95359580D02*
X172714285Y-95407200D01*
X172714285Y-95407200D02*
X172619047Y-95454819D01*
X172619047Y-95454819D02*
X172333333Y-95454819D01*
X172333333Y-95454819D02*
X172238095Y-95407200D01*
X172238095Y-95407200D02*
X172190476Y-95359580D01*
X182333333Y-122104819D02*
X182000000Y-121628628D01*
X181761905Y-122104819D02*
X181761905Y-121104819D01*
X181761905Y-121104819D02*
X182142857Y-121104819D01*
X182142857Y-121104819D02*
X182238095Y-121152438D01*
X182238095Y-121152438D02*
X182285714Y-121200057D01*
X182285714Y-121200057D02*
X182333333Y-121295295D01*
X182333333Y-121295295D02*
X182333333Y-121438152D01*
X182333333Y-121438152D02*
X182285714Y-121533390D01*
X182285714Y-121533390D02*
X182238095Y-121581009D01*
X182238095Y-121581009D02*
X182142857Y-121628628D01*
X182142857Y-121628628D02*
X181761905Y-121628628D01*
X183333333Y-122104819D02*
X183000000Y-121628628D01*
X182761905Y-122104819D02*
X182761905Y-121104819D01*
X182761905Y-121104819D02*
X183142857Y-121104819D01*
X183142857Y-121104819D02*
X183238095Y-121152438D01*
X183238095Y-121152438D02*
X183285714Y-121200057D01*
X183285714Y-121200057D02*
X183333333Y-121295295D01*
X183333333Y-121295295D02*
X183333333Y-121438152D01*
X183333333Y-121438152D02*
X183285714Y-121533390D01*
X183285714Y-121533390D02*
X183238095Y-121581009D01*
X183238095Y-121581009D02*
X183142857Y-121628628D01*
X183142857Y-121628628D02*
X182761905Y-121628628D01*
X184190476Y-121438152D02*
X184190476Y-122104819D01*
X183952381Y-121057200D02*
X183714286Y-121771485D01*
X183714286Y-121771485D02*
X184333333Y-121771485D01*
X187333333Y-105359580D02*
X187285714Y-105407200D01*
X187285714Y-105407200D02*
X187142857Y-105454819D01*
X187142857Y-105454819D02*
X187047619Y-105454819D01*
X187047619Y-105454819D02*
X186904762Y-105407200D01*
X186904762Y-105407200D02*
X186809524Y-105311961D01*
X186809524Y-105311961D02*
X186761905Y-105216723D01*
X186761905Y-105216723D02*
X186714286Y-105026247D01*
X186714286Y-105026247D02*
X186714286Y-104883390D01*
X186714286Y-104883390D02*
X186761905Y-104692914D01*
X186761905Y-104692914D02*
X186809524Y-104597676D01*
X186809524Y-104597676D02*
X186904762Y-104502438D01*
X186904762Y-104502438D02*
X187047619Y-104454819D01*
X187047619Y-104454819D02*
X187142857Y-104454819D01*
X187142857Y-104454819D02*
X187285714Y-104502438D01*
X187285714Y-104502438D02*
X187333333Y-104550057D01*
X188333333Y-105454819D02*
X188000000Y-104978628D01*
X187761905Y-105454819D02*
X187761905Y-104454819D01*
X187761905Y-104454819D02*
X188142857Y-104454819D01*
X188142857Y-104454819D02*
X188238095Y-104502438D01*
X188238095Y-104502438D02*
X188285714Y-104550057D01*
X188285714Y-104550057D02*
X188333333Y-104645295D01*
X188333333Y-104645295D02*
X188333333Y-104788152D01*
X188333333Y-104788152D02*
X188285714Y-104883390D01*
X188285714Y-104883390D02*
X188238095Y-104931009D01*
X188238095Y-104931009D02*
X188142857Y-104978628D01*
X188142857Y-104978628D02*
X187761905Y-104978628D01*
X188714286Y-104550057D02*
X188761905Y-104502438D01*
X188761905Y-104502438D02*
X188857143Y-104454819D01*
X188857143Y-104454819D02*
X189095238Y-104454819D01*
X189095238Y-104454819D02*
X189190476Y-104502438D01*
X189190476Y-104502438D02*
X189238095Y-104550057D01*
X189238095Y-104550057D02*
X189285714Y-104645295D01*
X189285714Y-104645295D02*
X189285714Y-104740533D01*
X189285714Y-104740533D02*
X189238095Y-104883390D01*
X189238095Y-104883390D02*
X188666667Y-105454819D01*
X188666667Y-105454819D02*
X189285714Y-105454819D01*
X183404761Y-95550057D02*
X183309523Y-95502438D01*
X183309523Y-95502438D02*
X183214285Y-95407200D01*
X183214285Y-95407200D02*
X183071428Y-95264342D01*
X183071428Y-95264342D02*
X182976190Y-95216723D01*
X182976190Y-95216723D02*
X182880952Y-95216723D01*
X182928571Y-95454819D02*
X182833333Y-95407200D01*
X182833333Y-95407200D02*
X182738095Y-95311961D01*
X182738095Y-95311961D02*
X182690476Y-95121485D01*
X182690476Y-95121485D02*
X182690476Y-94788152D01*
X182690476Y-94788152D02*
X182738095Y-94597676D01*
X182738095Y-94597676D02*
X182833333Y-94502438D01*
X182833333Y-94502438D02*
X182928571Y-94454819D01*
X182928571Y-94454819D02*
X183119047Y-94454819D01*
X183119047Y-94454819D02*
X183214285Y-94502438D01*
X183214285Y-94502438D02*
X183309523Y-94597676D01*
X183309523Y-94597676D02*
X183357142Y-94788152D01*
X183357142Y-94788152D02*
X183357142Y-95121485D01*
X183357142Y-95121485D02*
X183309523Y-95311961D01*
X183309523Y-95311961D02*
X183214285Y-95407200D01*
X183214285Y-95407200D02*
X183119047Y-95454819D01*
X183119047Y-95454819D02*
X182928571Y-95454819D01*
X184357142Y-95454819D02*
X184023809Y-94978628D01*
X183785714Y-95454819D02*
X183785714Y-94454819D01*
X183785714Y-94454819D02*
X184166666Y-94454819D01*
X184166666Y-94454819D02*
X184261904Y-94502438D01*
X184261904Y-94502438D02*
X184309523Y-94550057D01*
X184309523Y-94550057D02*
X184357142Y-94645295D01*
X184357142Y-94645295D02*
X184357142Y-94788152D01*
X184357142Y-94788152D02*
X184309523Y-94883390D01*
X184309523Y-94883390D02*
X184261904Y-94931009D01*
X184261904Y-94931009D02*
X184166666Y-94978628D01*
X184166666Y-94978628D02*
X183785714Y-94978628D01*
X184690476Y-94454819D02*
X185309523Y-94454819D01*
X185309523Y-94454819D02*
X184976190Y-94835771D01*
X184976190Y-94835771D02*
X185119047Y-94835771D01*
X185119047Y-94835771D02*
X185214285Y-94883390D01*
X185214285Y-94883390D02*
X185261904Y-94931009D01*
X185261904Y-94931009D02*
X185309523Y-95026247D01*
X185309523Y-95026247D02*
X185309523Y-95264342D01*
X185309523Y-95264342D02*
X185261904Y-95359580D01*
X185261904Y-95359580D02*
X185214285Y-95407200D01*
X185214285Y-95407200D02*
X185119047Y-95454819D01*
X185119047Y-95454819D02*
X184833333Y-95454819D01*
X184833333Y-95454819D02*
X184738095Y-95407200D01*
X184738095Y-95407200D02*
X184690476Y-95359580D01*
X187333333Y-91804819D02*
X187000000Y-91328628D01*
X186761905Y-91804819D02*
X186761905Y-90804819D01*
X186761905Y-90804819D02*
X187142857Y-90804819D01*
X187142857Y-90804819D02*
X187238095Y-90852438D01*
X187238095Y-90852438D02*
X187285714Y-90900057D01*
X187285714Y-90900057D02*
X187333333Y-90995295D01*
X187333333Y-90995295D02*
X187333333Y-91138152D01*
X187333333Y-91138152D02*
X187285714Y-91233390D01*
X187285714Y-91233390D02*
X187238095Y-91281009D01*
X187238095Y-91281009D02*
X187142857Y-91328628D01*
X187142857Y-91328628D02*
X186761905Y-91328628D01*
X188333333Y-91804819D02*
X188000000Y-91328628D01*
X187761905Y-91804819D02*
X187761905Y-90804819D01*
X187761905Y-90804819D02*
X188142857Y-90804819D01*
X188142857Y-90804819D02*
X188238095Y-90852438D01*
X188238095Y-90852438D02*
X188285714Y-90900057D01*
X188285714Y-90900057D02*
X188333333Y-90995295D01*
X188333333Y-90995295D02*
X188333333Y-91138152D01*
X188333333Y-91138152D02*
X188285714Y-91233390D01*
X188285714Y-91233390D02*
X188238095Y-91281009D01*
X188238095Y-91281009D02*
X188142857Y-91328628D01*
X188142857Y-91328628D02*
X187761905Y-91328628D01*
X188809524Y-91804819D02*
X189000000Y-91804819D01*
X189000000Y-91804819D02*
X189095238Y-91757200D01*
X189095238Y-91757200D02*
X189142857Y-91709580D01*
X189142857Y-91709580D02*
X189238095Y-91566723D01*
X189238095Y-91566723D02*
X189285714Y-91376247D01*
X189285714Y-91376247D02*
X189285714Y-90995295D01*
X189285714Y-90995295D02*
X189238095Y-90900057D01*
X189238095Y-90900057D02*
X189190476Y-90852438D01*
X189190476Y-90852438D02*
X189095238Y-90804819D01*
X189095238Y-90804819D02*
X188904762Y-90804819D01*
X188904762Y-90804819D02*
X188809524Y-90852438D01*
X188809524Y-90852438D02*
X188761905Y-90900057D01*
X188761905Y-90900057D02*
X188714286Y-90995295D01*
X188714286Y-90995295D02*
X188714286Y-91233390D01*
X188714286Y-91233390D02*
X188761905Y-91328628D01*
X188761905Y-91328628D02*
X188809524Y-91376247D01*
X188809524Y-91376247D02*
X188904762Y-91423866D01*
X188904762Y-91423866D02*
X189095238Y-91423866D01*
X189095238Y-91423866D02*
X189190476Y-91376247D01*
X189190476Y-91376247D02*
X189238095Y-91328628D01*
X189238095Y-91328628D02*
X189285714Y-91233390D01*
X174833333Y-101859580D02*
X174785714Y-101907200D01*
X174785714Y-101907200D02*
X174642857Y-101954819D01*
X174642857Y-101954819D02*
X174547619Y-101954819D01*
X174547619Y-101954819D02*
X174404762Y-101907200D01*
X174404762Y-101907200D02*
X174309524Y-101811961D01*
X174309524Y-101811961D02*
X174261905Y-101716723D01*
X174261905Y-101716723D02*
X174214286Y-101526247D01*
X174214286Y-101526247D02*
X174214286Y-101383390D01*
X174214286Y-101383390D02*
X174261905Y-101192914D01*
X174261905Y-101192914D02*
X174309524Y-101097676D01*
X174309524Y-101097676D02*
X174404762Y-101002438D01*
X174404762Y-101002438D02*
X174547619Y-100954819D01*
X174547619Y-100954819D02*
X174642857Y-100954819D01*
X174642857Y-100954819D02*
X174785714Y-101002438D01*
X174785714Y-101002438D02*
X174833333Y-101050057D01*
X175595238Y-101431009D02*
X175738095Y-101478628D01*
X175738095Y-101478628D02*
X175785714Y-101526247D01*
X175785714Y-101526247D02*
X175833333Y-101621485D01*
X175833333Y-101621485D02*
X175833333Y-101764342D01*
X175833333Y-101764342D02*
X175785714Y-101859580D01*
X175785714Y-101859580D02*
X175738095Y-101907200D01*
X175738095Y-101907200D02*
X175642857Y-101954819D01*
X175642857Y-101954819D02*
X175261905Y-101954819D01*
X175261905Y-101954819D02*
X175261905Y-100954819D01*
X175261905Y-100954819D02*
X175595238Y-100954819D01*
X175595238Y-100954819D02*
X175690476Y-101002438D01*
X175690476Y-101002438D02*
X175738095Y-101050057D01*
X175738095Y-101050057D02*
X175785714Y-101145295D01*
X175785714Y-101145295D02*
X175785714Y-101240533D01*
X175785714Y-101240533D02*
X175738095Y-101335771D01*
X175738095Y-101335771D02*
X175690476Y-101383390D01*
X175690476Y-101383390D02*
X175595238Y-101431009D01*
X175595238Y-101431009D02*
X175261905Y-101431009D01*
X176166667Y-100954819D02*
X176785714Y-100954819D01*
X176785714Y-100954819D02*
X176452381Y-101335771D01*
X176452381Y-101335771D02*
X176595238Y-101335771D01*
X176595238Y-101335771D02*
X176690476Y-101383390D01*
X176690476Y-101383390D02*
X176738095Y-101431009D01*
X176738095Y-101431009D02*
X176785714Y-101526247D01*
X176785714Y-101526247D02*
X176785714Y-101764342D01*
X176785714Y-101764342D02*
X176738095Y-101859580D01*
X176738095Y-101859580D02*
X176690476Y-101907200D01*
X176690476Y-101907200D02*
X176595238Y-101954819D01*
X176595238Y-101954819D02*
X176309524Y-101954819D01*
X176309524Y-101954819D02*
X176214286Y-101907200D01*
X176214286Y-101907200D02*
X176166667Y-101859580D01*
X168709580Y-126142857D02*
X168757200Y-126190476D01*
X168757200Y-126190476D02*
X168804819Y-126333333D01*
X168804819Y-126333333D02*
X168804819Y-126428571D01*
X168804819Y-126428571D02*
X168757200Y-126571428D01*
X168757200Y-126571428D02*
X168661961Y-126666666D01*
X168661961Y-126666666D02*
X168566723Y-126714285D01*
X168566723Y-126714285D02*
X168376247Y-126761904D01*
X168376247Y-126761904D02*
X168233390Y-126761904D01*
X168233390Y-126761904D02*
X168042914Y-126714285D01*
X168042914Y-126714285D02*
X167947676Y-126666666D01*
X167947676Y-126666666D02*
X167852438Y-126571428D01*
X167852438Y-126571428D02*
X167804819Y-126428571D01*
X167804819Y-126428571D02*
X167804819Y-126333333D01*
X167804819Y-126333333D02*
X167852438Y-126190476D01*
X167852438Y-126190476D02*
X167900057Y-126142857D01*
X168233390Y-125571428D02*
X168185771Y-125666666D01*
X168185771Y-125666666D02*
X168138152Y-125714285D01*
X168138152Y-125714285D02*
X168042914Y-125761904D01*
X168042914Y-125761904D02*
X167995295Y-125761904D01*
X167995295Y-125761904D02*
X167900057Y-125714285D01*
X167900057Y-125714285D02*
X167852438Y-125666666D01*
X167852438Y-125666666D02*
X167804819Y-125571428D01*
X167804819Y-125571428D02*
X167804819Y-125380952D01*
X167804819Y-125380952D02*
X167852438Y-125285714D01*
X167852438Y-125285714D02*
X167900057Y-125238095D01*
X167900057Y-125238095D02*
X167995295Y-125190476D01*
X167995295Y-125190476D02*
X168042914Y-125190476D01*
X168042914Y-125190476D02*
X168138152Y-125238095D01*
X168138152Y-125238095D02*
X168185771Y-125285714D01*
X168185771Y-125285714D02*
X168233390Y-125380952D01*
X168233390Y-125380952D02*
X168233390Y-125571428D01*
X168233390Y-125571428D02*
X168281009Y-125666666D01*
X168281009Y-125666666D02*
X168328628Y-125714285D01*
X168328628Y-125714285D02*
X168423866Y-125761904D01*
X168423866Y-125761904D02*
X168614342Y-125761904D01*
X168614342Y-125761904D02*
X168709580Y-125714285D01*
X168709580Y-125714285D02*
X168757200Y-125666666D01*
X168757200Y-125666666D02*
X168804819Y-125571428D01*
X168804819Y-125571428D02*
X168804819Y-125380952D01*
X168804819Y-125380952D02*
X168757200Y-125285714D01*
X168757200Y-125285714D02*
X168709580Y-125238095D01*
X168709580Y-125238095D02*
X168614342Y-125190476D01*
X168614342Y-125190476D02*
X168423866Y-125190476D01*
X168423866Y-125190476D02*
X168328628Y-125238095D01*
X168328628Y-125238095D02*
X168281009Y-125285714D01*
X168281009Y-125285714D02*
X168233390Y-125380952D01*
X167900057Y-124809523D02*
X167852438Y-124761904D01*
X167852438Y-124761904D02*
X167804819Y-124666666D01*
X167804819Y-124666666D02*
X167804819Y-124428571D01*
X167804819Y-124428571D02*
X167852438Y-124333333D01*
X167852438Y-124333333D02*
X167900057Y-124285714D01*
X167900057Y-124285714D02*
X167995295Y-124238095D01*
X167995295Y-124238095D02*
X168090533Y-124238095D01*
X168090533Y-124238095D02*
X168233390Y-124285714D01*
X168233390Y-124285714D02*
X168804819Y-124857142D01*
X168804819Y-124857142D02*
X168804819Y-124238095D01*
D12*
%TO.C,Y2*%
X153300000Y-98700000D02*
G75*
G02*
X150500000Y-98700000I-1400000J0D01*
G01*
X150500000Y-98700000D02*
G75*
G02*
X153300000Y-98700000I1400000J0D01*
G01*
%TO.C,R-Y1*%
X183900000Y-89000000D02*
G75*
G02*
X181100000Y-89000000I-1400000J0D01*
G01*
X181100000Y-89000000D02*
G75*
G02*
X183900000Y-89000000I1400000J0D01*
G01*
%TO.C,PR1*%
X183900000Y-135000000D02*
G75*
G02*
X181100000Y-135000000I-1400000J0D01*
G01*
X181100000Y-135000000D02*
G75*
G02*
X183900000Y-135000000I1400000J0D01*
G01*
%TO.C,GND1*%
X153200000Y-120000000D02*
G75*
G02*
X150800000Y-120000000I-1200000J0D01*
G01*
X150800000Y-120000000D02*
G75*
G02*
X153200000Y-120000000I1200000J0D01*
G01*
%TO.C,B-Y1*%
X171400000Y-89000000D02*
G75*
G02*
X168600000Y-89000000I-1400000J0D01*
G01*
X168600000Y-89000000D02*
G75*
G02*
X171400000Y-89000000I1400000J0D01*
G01*
%TO.C,PB1*%
X171900000Y-135000000D02*
G75*
G02*
X169100000Y-135000000I-1400000J0D01*
G01*
X169100000Y-135000000D02*
G75*
G02*
X171900000Y-135000000I1400000J0D01*
G01*
%TO.C,Y1*%
X153300000Y-108700000D02*
G75*
G02*
X150500000Y-108700000I-1400000J0D01*
G01*
X150500000Y-108700000D02*
G75*
G02*
X153300000Y-108700000I1400000J0D01*
G01*
%TO.C,RR6*%
X187765000Y-110272936D02*
X187765000Y-110727064D01*
X189235000Y-110272936D02*
X189235000Y-110727064D01*
%TO.C,RR3*%
X187265000Y-130772936D02*
X187265000Y-131227064D01*
X188735000Y-130772936D02*
X188735000Y-131227064D01*
%TO.C,RR2*%
X187738748Y-119265000D02*
X188261252Y-119265000D01*
X187738748Y-120735000D02*
X188261252Y-120735000D01*
%TO.C,RR7*%
X183727064Y-105765000D02*
X183272936Y-105765000D01*
X183727064Y-107235000D02*
X183272936Y-107235000D01*
%TO.C,RY1*%
X154665000Y-103927064D02*
X154665000Y-103472936D01*
X156135000Y-103927064D02*
X156135000Y-103472936D01*
%TO.C,CB4*%
X171223752Y-92265000D02*
X170701248Y-92265000D01*
X171223752Y-93735000D02*
X170701248Y-93735000D01*
%TO.C,QR2*%
X183240000Y-108870000D02*
X183240000Y-109800000D01*
X183240000Y-108870000D02*
X184700000Y-108870000D01*
X183240000Y-112030000D02*
X183240000Y-111100000D01*
X184040000Y-112030000D02*
X183240000Y-112030000D01*
X184040000Y-112030000D02*
X184840000Y-112030000D01*
X185580000Y-112390000D02*
X185100000Y-112390000D01*
X185340000Y-112060000D01*
X185580000Y-112390000D01*
G36*
X185580000Y-112390000D02*
G01*
X185100000Y-112390000D01*
X185340000Y-112060000D01*
X185580000Y-112390000D01*
G37*
%TO.C,RB8*%
X175265000Y-97772936D02*
X175265000Y-98227064D01*
X176735000Y-97772936D02*
X176735000Y-98227064D01*
%TO.C,QB2*%
X170740000Y-108470000D02*
X170740000Y-109400000D01*
X170740000Y-108470000D02*
X172200000Y-108470000D01*
X170740000Y-111630000D02*
X170740000Y-110700000D01*
X171540000Y-111630000D02*
X170740000Y-111630000D01*
X171540000Y-111630000D02*
X172340000Y-111630000D01*
X173080000Y-111990000D02*
X172600000Y-111990000D01*
X172840000Y-111660000D01*
X173080000Y-111990000D01*
G36*
X173080000Y-111990000D02*
G01*
X172600000Y-111990000D01*
X172840000Y-111660000D01*
X173080000Y-111990000D01*
G37*
%TO.C,8V1*%
X150800000Y-124300000D02*
X153200000Y-124300000D01*
X150800000Y-126700000D02*
X150800000Y-124300000D01*
X153200000Y-124300000D02*
X153200000Y-126700000D01*
X153200000Y-126700000D02*
X150800000Y-126700000D01*
%TO.C,CR1*%
X186778248Y-122890000D02*
X183946752Y-122890000D01*
X186778248Y-128110000D02*
X183946752Y-128110000D01*
%TO.C,CB2*%
X175646267Y-105990000D02*
X175353733Y-105990000D01*
X175646267Y-107010000D02*
X175353733Y-107010000D01*
%TO.C,RB7*%
X171227064Y-105765000D02*
X170772936Y-105765000D01*
X171227064Y-107235000D02*
X170772936Y-107235000D01*
%TO.C,QB1*%
X170740000Y-113870000D02*
X170740000Y-114800000D01*
X170740000Y-113870000D02*
X172200000Y-113870000D01*
X170740000Y-117030000D02*
X170740000Y-116100000D01*
X171540000Y-117030000D02*
X170740000Y-117030000D01*
X171540000Y-117030000D02*
X172340000Y-117030000D01*
X173080000Y-117390000D02*
X172600000Y-117390000D01*
X172840000Y-117060000D01*
X173080000Y-117390000D01*
G36*
X173080000Y-117390000D02*
G01*
X172600000Y-117390000D01*
X172840000Y-117060000D01*
X173080000Y-117390000D01*
G37*
%TO.C,LR1*%
X183576248Y-101390000D02*
X184098752Y-101390000D01*
X183576248Y-103610000D02*
X184098752Y-103610000D01*
%TO.C,CR3*%
X188146267Y-102490000D02*
X187853733Y-102490000D01*
X188146267Y-103510000D02*
X187853733Y-103510000D01*
%TO.C,RB9*%
X175272936Y-92265000D02*
X175727064Y-92265000D01*
X175272936Y-93735000D02*
X175727064Y-93735000D01*
%TO.C,CB1*%
X174778248Y-122890000D02*
X171946752Y-122890000D01*
X174778248Y-128110000D02*
X171946752Y-128110000D01*
%TO.C,L81*%
X154161000Y-123346000D02*
X158469000Y-123346000D01*
X158469000Y-127654000D02*
X154161000Y-127654000D01*
%TO.C,LB1*%
X171076248Y-101390000D02*
X171598752Y-101390000D01*
X171076248Y-103610000D02*
X171598752Y-103610000D01*
%TO.C,QR1*%
X183240000Y-113920000D02*
X183240000Y-114850000D01*
X183240000Y-113920000D02*
X184700000Y-113920000D01*
X183240000Y-117080000D02*
X183240000Y-116150000D01*
X184040000Y-117080000D02*
X183240000Y-117080000D01*
X184040000Y-117080000D02*
X184840000Y-117080000D01*
X185580000Y-117440000D02*
X185100000Y-117440000D01*
X185340000Y-117110000D01*
X185580000Y-117440000D01*
G36*
X185580000Y-117440000D02*
G01*
X185100000Y-117440000D01*
X185340000Y-117110000D01*
X185580000Y-117440000D01*
G37*
%TO.C,C81*%
X156787677Y-118460000D02*
X166947677Y-118460000D01*
X156787677Y-118500000D02*
X166947677Y-118500000D01*
X156788677Y-118380000D02*
X166946677Y-118380000D01*
X156788677Y-118420000D02*
X166946677Y-118420000D01*
X156790677Y-118340000D02*
X166944677Y-118340000D01*
X156791677Y-118300000D02*
X166943677Y-118300000D01*
X156793677Y-118260000D02*
X166941677Y-118260000D01*
X156795677Y-118220000D02*
X166939677Y-118220000D01*
X156797677Y-118180000D02*
X166937677Y-118180000D01*
X156800677Y-118140000D02*
X166934677Y-118140000D01*
X156803677Y-118100000D02*
X166931677Y-118100000D01*
X156806677Y-118060000D02*
X166928677Y-118060000D01*
X156810677Y-118020000D02*
X166924677Y-118020000D01*
X156813677Y-117980000D02*
X166921677Y-117980000D01*
X156818677Y-117940000D02*
X166916677Y-117940000D01*
X156822677Y-117900000D02*
X166912677Y-117900000D01*
X156827677Y-117860000D02*
X166907677Y-117860000D01*
X156832677Y-117820000D02*
X166902677Y-117820000D01*
X156838677Y-117780000D02*
X166896677Y-117780000D01*
X156844677Y-117740000D02*
X166890677Y-117740000D01*
X156850677Y-117700000D02*
X166884677Y-117700000D01*
X156856677Y-117660000D02*
X166878677Y-117660000D01*
X156863677Y-117620000D02*
X166871677Y-117620000D01*
X156870677Y-117580000D02*
X166864677Y-117580000D01*
X156878677Y-117540000D02*
X166856677Y-117540000D01*
X156886677Y-117500000D02*
X166848677Y-117500000D01*
X156894677Y-117460000D02*
X166840677Y-117460000D01*
X156902677Y-117420000D02*
X166832677Y-117420000D01*
X156911677Y-117380000D02*
X166823677Y-117380000D01*
X156920677Y-117340000D02*
X166814677Y-117340000D01*
X156930677Y-117300000D02*
X166804677Y-117300000D01*
X156939677Y-117260000D02*
X166795677Y-117260000D01*
X156950677Y-117220000D02*
X160627677Y-117220000D01*
X156960677Y-117180000D02*
X160627677Y-117180000D01*
X156971677Y-117140000D02*
X160627677Y-117140000D01*
X156982677Y-117100000D02*
X160627677Y-117100000D01*
X156994677Y-117060000D02*
X160627677Y-117060000D01*
X157006677Y-117020000D02*
X160627677Y-117020000D01*
X157018677Y-116980000D02*
X160627677Y-116980000D01*
X157030677Y-116940000D02*
X160627677Y-116940000D01*
X157043677Y-116900000D02*
X160627677Y-116900000D01*
X157057677Y-116860000D02*
X160627677Y-116860000D01*
X157070677Y-116820000D02*
X160627677Y-116820000D01*
X157085677Y-116780000D02*
X160627677Y-116780000D01*
X157099677Y-116740000D02*
X160627677Y-116740000D01*
X157114677Y-116700000D02*
X160627677Y-116700000D01*
X157129677Y-116660000D02*
X160627677Y-116660000D01*
X157145677Y-116620000D02*
X160627677Y-116620000D01*
X157161677Y-116580000D02*
X160627677Y-116580000D01*
X157177677Y-116540000D02*
X160627677Y-116540000D01*
X157194677Y-116500000D02*
X160627677Y-116500000D01*
X157211677Y-116460000D02*
X160627677Y-116460000D01*
X157229677Y-116420000D02*
X160627677Y-116420000D01*
X157247677Y-116380000D02*
X160627677Y-116380000D01*
X157265677Y-116340000D02*
X160627677Y-116340000D01*
X157284677Y-116300000D02*
X160627677Y-116300000D01*
X157303677Y-116260000D02*
X160627677Y-116260000D01*
X157323677Y-116220000D02*
X160627677Y-116220000D01*
X157343677Y-116180000D02*
X160627677Y-116180000D01*
X157363677Y-116140000D02*
X160627677Y-116140000D01*
X157384677Y-116100000D02*
X160627677Y-116100000D01*
X157406677Y-116060000D02*
X160627677Y-116060000D01*
X157428677Y-116020000D02*
X160627677Y-116020000D01*
X157450677Y-115980000D02*
X160627677Y-115980000D01*
X157473677Y-115940000D02*
X160627677Y-115940000D01*
X157496677Y-115900000D02*
X160627677Y-115900000D01*
X157520677Y-115860000D02*
X160627677Y-115860000D01*
X157544677Y-115820000D02*
X160627677Y-115820000D01*
X157569677Y-115780000D02*
X160627677Y-115780000D01*
X157595677Y-115740000D02*
X160627677Y-115740000D01*
X157620677Y-115700000D02*
X160627677Y-115700000D01*
X157647677Y-115660000D02*
X160627677Y-115660000D01*
X157674677Y-115620000D02*
X160627677Y-115620000D01*
X157701677Y-115580000D02*
X160627677Y-115580000D01*
X157729677Y-115540000D02*
X160627677Y-115540000D01*
X157758677Y-115500000D02*
X160627677Y-115500000D01*
X157787677Y-115460000D02*
X160627677Y-115460000D01*
X157817677Y-115420000D02*
X160627677Y-115420000D01*
X157847677Y-115380000D02*
X160627677Y-115380000D01*
X157879677Y-115340000D02*
X160627677Y-115340000D01*
X157910677Y-115300000D02*
X160627677Y-115300000D01*
X157943677Y-115260000D02*
X160627677Y-115260000D01*
X157976677Y-115220000D02*
X160627677Y-115220000D01*
X158009677Y-115180000D02*
X160627677Y-115180000D01*
X158044677Y-115140000D02*
X160627677Y-115140000D01*
X158079677Y-115100000D02*
X160627677Y-115100000D01*
X158115677Y-115060000D02*
X160627677Y-115060000D01*
X158151677Y-115020000D02*
X160627677Y-115020000D01*
X158189677Y-114980000D02*
X160627677Y-114980000D01*
X158227677Y-114940000D02*
X160627677Y-114940000D01*
X158266677Y-114900000D02*
X160627677Y-114900000D01*
X158306677Y-114860000D02*
X160627677Y-114860000D01*
X158347677Y-114820000D02*
X160627677Y-114820000D01*
X158389677Y-114780000D02*
X160627677Y-114780000D01*
X158432677Y-114740000D02*
X165302677Y-114740000D01*
X158476677Y-114700000D02*
X165258677Y-114700000D01*
X158492677Y-123479646D02*
X159492677Y-123479646D01*
X158520677Y-114660000D02*
X165214677Y-114660000D01*
X158566677Y-114620000D02*
X165168677Y-114620000D01*
X158613677Y-114580000D02*
X165121677Y-114580000D01*
X158662677Y-114540000D02*
X165072677Y-114540000D01*
X158711677Y-114500000D02*
X165023677Y-114500000D01*
X158762677Y-114460000D02*
X164972677Y-114460000D01*
X158814677Y-114420000D02*
X164920677Y-114420000D01*
X158867677Y-114380000D02*
X164867677Y-114380000D01*
X158922677Y-114340000D02*
X164812677Y-114340000D01*
X158979677Y-114300000D02*
X164755677Y-114300000D01*
X158992677Y-123979646D02*
X158992677Y-122979646D01*
X159037677Y-114260000D02*
X164697677Y-114260000D01*
X159097677Y-114220000D02*
X164637677Y-114220000D01*
X159159677Y-114180000D02*
X164575677Y-114180000D01*
X159223677Y-114140000D02*
X164511677Y-114140000D01*
X159289677Y-114100000D02*
X164445677Y-114100000D01*
X159357677Y-114060000D02*
X164377677Y-114060000D01*
X159428677Y-114020000D02*
X164306677Y-114020000D01*
X159502677Y-113980000D02*
X164232677Y-113980000D01*
X159579677Y-113940000D02*
X164155677Y-113940000D01*
X159659677Y-113900000D02*
X164075677Y-113900000D01*
X159743677Y-113860000D02*
X163991677Y-113860000D01*
X159830677Y-113820000D02*
X163904677Y-113820000D01*
X159923677Y-113780000D02*
X163811677Y-113780000D01*
X160021677Y-113740000D02*
X163713677Y-113740000D01*
X160125677Y-113700000D02*
X163609677Y-113700000D01*
X160237677Y-113660000D02*
X163497677Y-113660000D01*
X160358677Y-113620000D02*
X163376677Y-113620000D01*
X160490677Y-113580000D02*
X163244677Y-113580000D01*
X160637677Y-113540000D02*
X163097677Y-113540000D01*
X160805677Y-113500000D02*
X162929677Y-113500000D01*
X161005677Y-113460000D02*
X162729677Y-113460000D01*
X161268677Y-113420000D02*
X162466677Y-113420000D01*
X163107677Y-114780000D02*
X165345677Y-114780000D01*
X163107677Y-114820000D02*
X165387677Y-114820000D01*
X163107677Y-114860000D02*
X165428677Y-114860000D01*
X163107677Y-114900000D02*
X165468677Y-114900000D01*
X163107677Y-114940000D02*
X165507677Y-114940000D01*
X163107677Y-114980000D02*
X165545677Y-114980000D01*
X163107677Y-115020000D02*
X165583677Y-115020000D01*
X163107677Y-115060000D02*
X165619677Y-115060000D01*
X163107677Y-115100000D02*
X165655677Y-115100000D01*
X163107677Y-115140000D02*
X165690677Y-115140000D01*
X163107677Y-115180000D02*
X165725677Y-115180000D01*
X163107677Y-115220000D02*
X165758677Y-115220000D01*
X163107677Y-115260000D02*
X165791677Y-115260000D01*
X163107677Y-115300000D02*
X165824677Y-115300000D01*
X163107677Y-115340000D02*
X165855677Y-115340000D01*
X163107677Y-115380000D02*
X165887677Y-115380000D01*
X163107677Y-115420000D02*
X165917677Y-115420000D01*
X163107677Y-115460000D02*
X165947677Y-115460000D01*
X163107677Y-115500000D02*
X165976677Y-115500000D01*
X163107677Y-115540000D02*
X166005677Y-115540000D01*
X163107677Y-115580000D02*
X166033677Y-115580000D01*
X163107677Y-115620000D02*
X166060677Y-115620000D01*
X163107677Y-115660000D02*
X166087677Y-115660000D01*
X163107677Y-115700000D02*
X166114677Y-115700000D01*
X163107677Y-115740000D02*
X166139677Y-115740000D01*
X163107677Y-115780000D02*
X166165677Y-115780000D01*
X163107677Y-115820000D02*
X166190677Y-115820000D01*
X163107677Y-115860000D02*
X166214677Y-115860000D01*
X163107677Y-115900000D02*
X166238677Y-115900000D01*
X163107677Y-115940000D02*
X166261677Y-115940000D01*
X163107677Y-115980000D02*
X166284677Y-115980000D01*
X163107677Y-116020000D02*
X166306677Y-116020000D01*
X163107677Y-116060000D02*
X166328677Y-116060000D01*
X163107677Y-116100000D02*
X166350677Y-116100000D01*
X163107677Y-116140000D02*
X166371677Y-116140000D01*
X163107677Y-116180000D02*
X166391677Y-116180000D01*
X163107677Y-116220000D02*
X166411677Y-116220000D01*
X163107677Y-116260000D02*
X166431677Y-116260000D01*
X163107677Y-116300000D02*
X166450677Y-116300000D01*
X163107677Y-116340000D02*
X166469677Y-116340000D01*
X163107677Y-116380000D02*
X166487677Y-116380000D01*
X163107677Y-116420000D02*
X166505677Y-116420000D01*
X163107677Y-116460000D02*
X166523677Y-116460000D01*
X163107677Y-116500000D02*
X166540677Y-116500000D01*
X163107677Y-116540000D02*
X166557677Y-116540000D01*
X163107677Y-116580000D02*
X166573677Y-116580000D01*
X163107677Y-116620000D02*
X166589677Y-116620000D01*
X163107677Y-116660000D02*
X166605677Y-116660000D01*
X163107677Y-116700000D02*
X166620677Y-116700000D01*
X163107677Y-116740000D02*
X166635677Y-116740000D01*
X163107677Y-116780000D02*
X166649677Y-116780000D01*
X163107677Y-116820000D02*
X166664677Y-116820000D01*
X163107677Y-116860000D02*
X166677677Y-116860000D01*
X163107677Y-116900000D02*
X166691677Y-116900000D01*
X163107677Y-116940000D02*
X166704677Y-116940000D01*
X163107677Y-116980000D02*
X166716677Y-116980000D01*
X163107677Y-117020000D02*
X166728677Y-117020000D01*
X163107677Y-117060000D02*
X166740677Y-117060000D01*
X163107677Y-117100000D02*
X166752677Y-117100000D01*
X163107677Y-117140000D02*
X166763677Y-117140000D01*
X163107677Y-117180000D02*
X166774677Y-117180000D01*
X163107677Y-117220000D02*
X166784677Y-117220000D01*
X166987677Y-118500000D02*
G75*
G02*
X156747677Y-118500000I-5120000J0D01*
G01*
X156747677Y-118500000D02*
G75*
G02*
X166987677Y-118500000I5120000J0D01*
G01*
%TO.C,CR4*%
X183761252Y-92265000D02*
X183238748Y-92265000D01*
X183761252Y-93735000D02*
X183238748Y-93735000D01*
%TO.C,CY1*%
X150990000Y-104411252D02*
X150990000Y-102988748D01*
X152810000Y-104411252D02*
X152810000Y-102988748D01*
%TO.C,RB1*%
X171272936Y-130265000D02*
X171727064Y-130265000D01*
X171272936Y-131735000D02*
X171727064Y-131735000D01*
%TO.C,RR5*%
X187765000Y-115272936D02*
X187765000Y-115727064D01*
X189235000Y-115272936D02*
X189235000Y-115727064D01*
%TO.C,RB5*%
X175265000Y-115272936D02*
X175265000Y-115727064D01*
X176735000Y-115272936D02*
X176735000Y-115727064D01*
%TO.C,RR1*%
X183272936Y-130265000D02*
X183727064Y-130265000D01*
X183272936Y-131735000D02*
X183727064Y-131735000D01*
%TO.C,RB6*%
X175265000Y-109772936D02*
X175265000Y-110227064D01*
X176735000Y-109772936D02*
X176735000Y-110227064D01*
%TO.C,RB3*%
X175265000Y-130772936D02*
X175265000Y-131227064D01*
X176735000Y-130772936D02*
X176735000Y-131227064D01*
%TO.C,RB4*%
X171227064Y-119265000D02*
X170772936Y-119265000D01*
X171227064Y-120735000D02*
X170772936Y-120735000D01*
%TO.C,RB2*%
X175772936Y-119265000D02*
X176227064Y-119265000D01*
X175772936Y-120735000D02*
X176227064Y-120735000D01*
%TO.C,RR8*%
X187765000Y-98272936D02*
X187765000Y-98727064D01*
X189235000Y-98272936D02*
X189235000Y-98727064D01*
%TO.C,QB3*%
X170740000Y-95970000D02*
X170740000Y-96900000D01*
X170740000Y-95970000D02*
X172200000Y-95970000D01*
X170740000Y-99130000D02*
X170740000Y-98200000D01*
X171540000Y-99130000D02*
X170740000Y-99130000D01*
X171540000Y-99130000D02*
X172340000Y-99130000D01*
X173080000Y-99490000D02*
X172600000Y-99490000D01*
X172840000Y-99160000D01*
X173080000Y-99490000D01*
G36*
X173080000Y-99490000D02*
G01*
X172600000Y-99490000D01*
X172840000Y-99160000D01*
X173080000Y-99490000D01*
G37*
%TO.C,RR4*%
X183227064Y-119265000D02*
X182772936Y-119265000D01*
X183227064Y-120735000D02*
X182772936Y-120735000D01*
%TO.C,CR2*%
X188146267Y-105990000D02*
X187853733Y-105990000D01*
X188146267Y-107010000D02*
X187853733Y-107010000D01*
%TO.C,QR3*%
X183240000Y-95970000D02*
X183240000Y-96900000D01*
X183240000Y-95970000D02*
X184700000Y-95970000D01*
X183240000Y-99130000D02*
X183240000Y-98200000D01*
X184040000Y-99130000D02*
X183240000Y-99130000D01*
X184040000Y-99130000D02*
X184840000Y-99130000D01*
X185580000Y-99490000D02*
X185100000Y-99490000D01*
X185340000Y-99160000D01*
X185580000Y-99490000D01*
G36*
X185580000Y-99490000D02*
G01*
X185100000Y-99490000D01*
X185340000Y-99160000D01*
X185580000Y-99490000D01*
G37*
%TO.C,RR9*%
X187772936Y-92265000D02*
X188227064Y-92265000D01*
X187772936Y-93735000D02*
X188227064Y-93735000D01*
%TO.C,CB3*%
X175646267Y-102490000D02*
X175353733Y-102490000D01*
X175646267Y-103510000D02*
X175353733Y-103510000D01*
%TO.C,C82*%
X165590000Y-124788748D02*
X165590000Y-126211252D01*
X167410000Y-124788748D02*
X167410000Y-126211252D01*
%TD*%
D13*
%TO.C,RR8*%
X188500000Y-99500000D03*
%TD*%
%LPC*%
D14*
%TO.C,REF\u002A\u002A*%
X196000000Y-134000000D03*
%TD*%
%TO.C,REF\u002A\u002A*%
X153000000Y-134000000D03*
%TD*%
%TO.C,REF\u002A\u002A*%
X196000000Y-90000000D03*
%TD*%
%TO.C,REF\u002A\u002A*%
X153000000Y-90100000D03*
%TD*%
D15*
%TO.C,Y2*%
X151900000Y-98700000D03*
%TD*%
%TO.C,R-Y1*%
X182500000Y-89000000D03*
%TD*%
%TO.C,PR1*%
X182500000Y-135000000D03*
%TD*%
%TO.C,GND1*%
X152000000Y-120000000D03*
%TD*%
%TO.C,B-Y1*%
X170000000Y-89000000D03*
%TD*%
%TO.C,PB1*%
X170500000Y-135000000D03*
%TD*%
%TO.C,Y1*%
X151900000Y-108700000D03*
%TD*%
D13*
%TO.C,RR6*%
X188500000Y-109500000D03*
X188500000Y-111500000D03*
%TD*%
%TO.C,RR3*%
X188000000Y-130000000D03*
X188000000Y-132000000D03*
%TD*%
D16*
%TO.C,RR2*%
X186962500Y-120000000D03*
X189037500Y-120000000D03*
%TD*%
D17*
%TO.C,RR7*%
X184500000Y-106500000D03*
X182500000Y-106500000D03*
%TD*%
D18*
%TO.C,RY1*%
X155400000Y-104700000D03*
X155400000Y-102700000D03*
%TD*%
D19*
%TO.C,CB4*%
X172000000Y-93000000D03*
X169925000Y-93000000D03*
%TD*%
D20*
%TO.C,QR2*%
X185500000Y-111400000D03*
X185500000Y-109500000D03*
X182500000Y-110450000D03*
%TD*%
D13*
%TO.C,RB8*%
X176000000Y-97000000D03*
X176000000Y-99000000D03*
%TD*%
D20*
%TO.C,QB2*%
X173000000Y-111000000D03*
X173000000Y-109100000D03*
X170000000Y-110050000D03*
%TD*%
D21*
%TO.C,8V1*%
X152000000Y-125500000D03*
%TD*%
D22*
%TO.C,CR1*%
X188000000Y-125500000D03*
X182725000Y-125500000D03*
%TD*%
D23*
%TO.C,CB2*%
X176362500Y-106500000D03*
X174637500Y-106500000D03*
%TD*%
D17*
%TO.C,RB7*%
X172000000Y-106500000D03*
X170000000Y-106500000D03*
%TD*%
D20*
%TO.C,QB1*%
X173000000Y-116400000D03*
X173000000Y-114500000D03*
X170000000Y-115450000D03*
%TD*%
D24*
%TO.C,LR1*%
X182675000Y-102500000D03*
X185000000Y-102500000D03*
%TD*%
D23*
%TO.C,CR3*%
X188862500Y-103000000D03*
X187137500Y-103000000D03*
%TD*%
D25*
%TO.C,RB9*%
X174500000Y-93000000D03*
X176500000Y-93000000D03*
%TD*%
D22*
%TO.C,CB1*%
X176000000Y-125500000D03*
X170725000Y-125500000D03*
%TD*%
D26*
%TO.C,L81*%
X155130000Y-125500000D03*
X157500000Y-125500000D03*
%TD*%
D24*
%TO.C,LB1*%
X170175000Y-102500000D03*
X172500000Y-102500000D03*
%TD*%
D20*
%TO.C,QR1*%
X185500000Y-116450000D03*
X185500000Y-114550000D03*
X182500000Y-115500000D03*
%TD*%
D27*
%TO.C,C81*%
X161867677Y-121000000D03*
D15*
X161867677Y-116000000D03*
%TD*%
D19*
%TO.C,CR4*%
X184537500Y-93000000D03*
X182462500Y-93000000D03*
%TD*%
D28*
%TO.C,CY1*%
X151900000Y-105262500D03*
X151900000Y-102137500D03*
%TD*%
D25*
%TO.C,RB1*%
X170500000Y-131000000D03*
X172500000Y-131000000D03*
%TD*%
D13*
%TO.C,RR5*%
X188500000Y-114500000D03*
X188500000Y-116500000D03*
%TD*%
%TO.C,RB5*%
X176000000Y-114500000D03*
X176000000Y-116500000D03*
%TD*%
D25*
%TO.C,RR1*%
X182500000Y-131000000D03*
X184500000Y-131000000D03*
%TD*%
D13*
%TO.C,RB6*%
X176000000Y-109000000D03*
X176000000Y-111000000D03*
%TD*%
%TO.C,RB3*%
X176000000Y-130000000D03*
X176000000Y-132000000D03*
%TD*%
D17*
%TO.C,RB4*%
X172000000Y-120000000D03*
X170000000Y-120000000D03*
%TD*%
D25*
%TO.C,RB2*%
X175000000Y-120000000D03*
X177000000Y-120000000D03*
%TD*%
D13*
%TO.C,RR8*%
X188500000Y-97500000D03*
X188500000Y-99500000D03*
%TD*%
D20*
%TO.C,QB3*%
X173000000Y-98500000D03*
X173000000Y-96600000D03*
X170000000Y-97550000D03*
%TD*%
D17*
%TO.C,RR4*%
X184000000Y-120000000D03*
X182000000Y-120000000D03*
%TD*%
D23*
%TO.C,CR2*%
X188862500Y-106500000D03*
X187137500Y-106500000D03*
%TD*%
D20*
%TO.C,QR3*%
X185500000Y-98500000D03*
X185500000Y-96600000D03*
X182500000Y-97550000D03*
%TD*%
D25*
%TO.C,RR9*%
X187000000Y-93000000D03*
X189000000Y-93000000D03*
%TD*%
D23*
%TO.C,CB3*%
X176362500Y-103000000D03*
X174637500Y-103000000D03*
%TD*%
D29*
%TO.C,C82*%
X166500000Y-123937500D03*
X166500000Y-127062500D03*
%TD*%
%LPD*%
M02*
