%TF.GenerationSoftware,KiCad,Pcbnew,9.0.4*%
%TF.CreationDate,2025-09-17T14:50:42+08:00*%
%TF.ProjectId,YUV Circuit,59555620-4369-4726-9375-69742e6b6963,rev?*%
%TF.SameCoordinates,Original*%
%TF.FileFunction,Drillmap*%
%TF.FilePolarity,Positive*%
%FSLAX45Y45*%
G04 Gerber Fmt 4.5, Leading zero omitted, Abs format (unit mm)*
G04 Created by KiCad (PCBNEW 9.0.4) date 2025-09-17 14:50:42*
%MOMM*%
%LPD*%
G01*
G04 APERTURE LIST*
%ADD10C,0.050000*%
%ADD11C,0.200000*%
G04 APERTURE END LIST*
D10*
X14950000Y-8650000D02*
X19950000Y-8650000D01*
X19950000Y-13750000D01*
X14950000Y-13750000D01*
X14950000Y-8650000D01*
D11*
X15208277Y-14063984D02*
X15208277Y-13863984D01*
X15208277Y-13863984D02*
X15255896Y-13863984D01*
X15255896Y-13863984D02*
X15284467Y-13873508D01*
X15284467Y-13873508D02*
X15303515Y-13892555D01*
X15303515Y-13892555D02*
X15313039Y-13911603D01*
X15313039Y-13911603D02*
X15322562Y-13949698D01*
X15322562Y-13949698D02*
X15322562Y-13978269D01*
X15322562Y-13978269D02*
X15313039Y-14016365D01*
X15313039Y-14016365D02*
X15303515Y-14035412D01*
X15303515Y-14035412D02*
X15284467Y-14054460D01*
X15284467Y-14054460D02*
X15255896Y-14063984D01*
X15255896Y-14063984D02*
X15208277Y-14063984D01*
X15408277Y-14063984D02*
X15408277Y-13930650D01*
X15408277Y-13968746D02*
X15417801Y-13949698D01*
X15417801Y-13949698D02*
X15427324Y-13940174D01*
X15427324Y-13940174D02*
X15446372Y-13930650D01*
X15446372Y-13930650D02*
X15465420Y-13930650D01*
X15532086Y-14063984D02*
X15532086Y-13930650D01*
X15532086Y-13863984D02*
X15522562Y-13873508D01*
X15522562Y-13873508D02*
X15532086Y-13883031D01*
X15532086Y-13883031D02*
X15541610Y-13873508D01*
X15541610Y-13873508D02*
X15532086Y-13863984D01*
X15532086Y-13863984D02*
X15532086Y-13883031D01*
X15655896Y-14063984D02*
X15636848Y-14054460D01*
X15636848Y-14054460D02*
X15627324Y-14035412D01*
X15627324Y-14035412D02*
X15627324Y-13863984D01*
X15760658Y-14063984D02*
X15741610Y-14054460D01*
X15741610Y-14054460D02*
X15732086Y-14035412D01*
X15732086Y-14035412D02*
X15732086Y-13863984D01*
X15989229Y-14063984D02*
X15989229Y-13863984D01*
X15989229Y-13863984D02*
X16055896Y-14006841D01*
X16055896Y-14006841D02*
X16122562Y-13863984D01*
X16122562Y-13863984D02*
X16122562Y-14063984D01*
X16303515Y-14063984D02*
X16303515Y-13959222D01*
X16303515Y-13959222D02*
X16293991Y-13940174D01*
X16293991Y-13940174D02*
X16274943Y-13930650D01*
X16274943Y-13930650D02*
X16236848Y-13930650D01*
X16236848Y-13930650D02*
X16217801Y-13940174D01*
X16303515Y-14054460D02*
X16284467Y-14063984D01*
X16284467Y-14063984D02*
X16236848Y-14063984D01*
X16236848Y-14063984D02*
X16217801Y-14054460D01*
X16217801Y-14054460D02*
X16208277Y-14035412D01*
X16208277Y-14035412D02*
X16208277Y-14016365D01*
X16208277Y-14016365D02*
X16217801Y-13997317D01*
X16217801Y-13997317D02*
X16236848Y-13987793D01*
X16236848Y-13987793D02*
X16284467Y-13987793D01*
X16284467Y-13987793D02*
X16303515Y-13978269D01*
X16398753Y-13930650D02*
X16398753Y-14130650D01*
X16398753Y-13940174D02*
X16417801Y-13930650D01*
X16417801Y-13930650D02*
X16455896Y-13930650D01*
X16455896Y-13930650D02*
X16474943Y-13940174D01*
X16474943Y-13940174D02*
X16484467Y-13949698D01*
X16484467Y-13949698D02*
X16493991Y-13968746D01*
X16493991Y-13968746D02*
X16493991Y-14025888D01*
X16493991Y-14025888D02*
X16484467Y-14044936D01*
X16484467Y-14044936D02*
X16474943Y-14054460D01*
X16474943Y-14054460D02*
X16455896Y-14063984D01*
X16455896Y-14063984D02*
X16417801Y-14063984D01*
X16417801Y-14063984D02*
X16398753Y-14054460D01*
X16579705Y-14044936D02*
X16589229Y-14054460D01*
X16589229Y-14054460D02*
X16579705Y-14063984D01*
X16579705Y-14063984D02*
X16570182Y-14054460D01*
X16570182Y-14054460D02*
X16579705Y-14044936D01*
X16579705Y-14044936D02*
X16579705Y-14063984D01*
X16579705Y-13940174D02*
X16589229Y-13949698D01*
X16589229Y-13949698D02*
X16579705Y-13959222D01*
X16579705Y-13959222D02*
X16570182Y-13949698D01*
X16570182Y-13949698D02*
X16579705Y-13940174D01*
X16579705Y-13940174D02*
X16579705Y-13959222D01*
M02*
