%TF.GenerationSoftware,KiCad,Pcbnew,9.0.4*%
%TF.CreationDate,2025-09-14T16:42:59+08:00*%
%TF.ProjectId,YUV Circuit,59555620-4369-4726-9375-69742e6b6963,rev?*%
%TF.SameCoordinates,Original*%
%TF.FileFunction,Copper,L1,Top*%
%TF.FilePolarity,Positive*%
%FSLAX46Y46*%
G04 Gerber Fmt 4.6, Leading zero omitted, Abs format (unit mm)*
G04 Created by KiCad (PCBNEW 9.0.4) date 2025-09-14 16:42:59*
%MOMM*%
%LPD*%
G01*
G04 APERTURE LIST*
G04 Aperture macros list*
%AMRoundRect*
0 Rectangle with rounded corners*
0 $1 Rounding radius*
0 $2 $3 $4 $5 $6 $7 $8 $9 X,Y pos of 4 corners*
0 Add a 4 corners polygon primitive as box body*
4,1,4,$2,$3,$4,$5,$6,$7,$8,$9,$2,$3,0*
0 Add four circle primitives for the rounded corners*
1,1,$1+$1,$2,$3*
1,1,$1+$1,$4,$5*
1,1,$1+$1,$6,$7*
1,1,$1+$1,$8,$9*
0 Add four rect primitives between the rounded corners*
20,1,$1+$1,$2,$3,$4,$5,0*
20,1,$1+$1,$4,$5,$6,$7,0*
20,1,$1+$1,$6,$7,$8,$9,0*
20,1,$1+$1,$8,$9,$2,$3,0*%
G04 Aperture macros list end*
%TA.AperFunction,ComponentPad*%
%ADD10C,6.000000*%
%TD*%
%TA.AperFunction,ComponentPad*%
%ADD11RoundRect,0.250002X-2.749998X-2.749998X2.749998X-2.749998X2.749998X2.749998X-2.749998X2.749998X0*%
%TD*%
%TA.AperFunction,SMDPad,CuDef*%
%ADD12RoundRect,0.250000X0.350000X0.450000X-0.350000X0.450000X-0.350000X-0.450000X0.350000X-0.450000X0*%
%TD*%
%TA.AperFunction,SMDPad,CuDef*%
%ADD13RoundRect,0.250000X-0.450000X0.350000X-0.450000X-0.350000X0.450000X-0.350000X0.450000X0.350000X0*%
%TD*%
%TA.AperFunction,SMDPad,CuDef*%
%ADD14RoundRect,0.249999X0.737501X2.450001X-0.737501X2.450001X-0.737501X-2.450001X0.737501X-2.450001X0*%
%TD*%
%TA.AperFunction,SMDPad,CuDef*%
%ADD15RoundRect,0.250000X-0.337500X-0.475000X0.337500X-0.475000X0.337500X0.475000X-0.337500X0.475000X0*%
%TD*%
%TA.AperFunction,SMDPad,CuDef*%
%ADD16R,0.980000X3.400000*%
%TD*%
%TA.AperFunction,SMDPad,CuDef*%
%ADD17RoundRect,0.250000X-0.350000X-0.450000X0.350000X-0.450000X0.350000X0.450000X-0.350000X0.450000X0*%
%TD*%
%TA.AperFunction,SMDPad,CuDef*%
%ADD18RoundRect,0.200000X0.750000X0.200000X-0.750000X0.200000X-0.750000X-0.200000X0.750000X-0.200000X0*%
%TD*%
%TA.AperFunction,SMDPad,CuDef*%
%ADD19RoundRect,0.250001X-0.462499X-0.849999X0.462499X-0.849999X0.462499X0.849999X-0.462499X0.849999X0*%
%TD*%
%TA.AperFunction,SMDPad,CuDef*%
%ADD20RoundRect,0.250000X-0.412500X-0.650000X0.412500X-0.650000X0.412500X0.650000X-0.412500X0.650000X0*%
%TD*%
%TA.AperFunction,SMDPad,CuDef*%
%ADD21RoundRect,0.250000X0.337500X0.475000X-0.337500X0.475000X-0.337500X-0.475000X0.337500X-0.475000X0*%
%TD*%
%TA.AperFunction,SMDPad,CuDef*%
%ADD22RoundRect,0.237500X0.300000X0.237500X-0.300000X0.237500X-0.300000X-0.237500X0.300000X-0.237500X0*%
%TD*%
%TA.AperFunction,SMDPad,CuDef*%
%ADD23RoundRect,0.250000X-0.650000X0.412500X-0.650000X-0.412500X0.650000X-0.412500X0.650000X0.412500X0*%
%TD*%
%TA.AperFunction,ComponentPad*%
%ADD24RoundRect,0.250000X-0.750000X-0.750000X0.750000X-0.750000X0.750000X0.750000X-0.750000X0.750000X0*%
%TD*%
%TA.AperFunction,ComponentPad*%
%ADD25C,2.000000*%
%TD*%
%TA.AperFunction,Conductor*%
%ADD26C,0.800000*%
%TD*%
%TA.AperFunction,Conductor*%
%ADD27C,0.300000*%
%TD*%
%TA.AperFunction,Conductor*%
%ADD28C,0.200000*%
%TD*%
G04 APERTURE END LIST*
D10*
%TO.P,INPUT,5,GND*%
%TO.N,~*%
X194000000Y-137000000D03*
%TO.P,INPUT,4,PR*%
%TO.N,/PR*%
X182000000Y-137000000D03*
%TO.P,INPUT,3,PB*%
%TO.N,/PB*%
X170000000Y-137000000D03*
%TO.P,INPUT,2,YI*%
%TO.N,/Y*%
X158000000Y-137000000D03*
D11*
%TO.P,INPUT,1,8V*%
%TO.N,Net-(INPUT1-8V)*%
X146000000Y-137000000D03*
%TD*%
D12*
%TO.P,RR7,2*%
%TO.N,Net-(QR2-E)*%
X182500000Y-106500000D03*
%TO.P,RR7,1*%
%TO.N,Net-(CR2-Pad2)*%
X184500000Y-106500000D03*
%TD*%
D13*
%TO.P,RR8,2*%
%TO.N,~*%
X188500000Y-99500000D03*
%TO.P,RR8,1*%
%TO.N,Net-(QR3-B)*%
X188500000Y-97500000D03*
%TD*%
D14*
%TO.P,CR1,2*%
%TO.N,/PR*%
X182725000Y-125500000D03*
%TO.P,CR1,1*%
%TO.N,Net-(QR1-B)*%
X188000000Y-125500000D03*
%TD*%
D15*
%TO.P,RR2,2*%
%TO.N,Net-(QR1-B)*%
X189037500Y-120000000D03*
%TO.P,RR2,1*%
%TO.N,Net-(QB2-C)*%
X186962500Y-120000000D03*
%TD*%
D16*
%TO.P,L81,2*%
%TO.N,Net-(QB2-C)*%
X152500000Y-129000000D03*
%TO.P,L81,1*%
%TO.N,Net-(INPUT1-8V)*%
X150130000Y-129000000D03*
%TD*%
D17*
%TO.P,RY1,2*%
%TO.N,~*%
X160000000Y-97000000D03*
%TO.P,RY1,1*%
%TO.N,/Y*%
X158000000Y-97000000D03*
%TD*%
%TO.P,RR1,2*%
%TO.N,~*%
X184500000Y-131000000D03*
%TO.P,RR1,1*%
%TO.N,/PR*%
X182500000Y-131000000D03*
%TD*%
D10*
%TO.P,OUTPUT,1,YO*%
%TO.N,Net-(OUTPUT1-YO)*%
X158500000Y-86500000D03*
%TO.P,OUTPUT,2,B-Y*%
%TO.N,Net-(OUTPUT1-B-Y)*%
X170500000Y-86500000D03*
%TO.P,OUTPUT,3,R-Y*%
%TO.N,Net-(OUTPUT1-R-Y)*%
X182500000Y-86500000D03*
%TO.P,OUTPUT,4,GND*%
%TO.N,~*%
X194500000Y-86500000D03*
%TD*%
D17*
%TO.P,RR9,1*%
%TO.N,Net-(QR3-E)*%
X187000000Y-93000000D03*
%TO.P,RR9,2*%
%TO.N,~*%
X189000000Y-93000000D03*
%TD*%
D13*
%TO.P,RR6,1*%
%TO.N,Net-(QR2-E)*%
X188500000Y-109500000D03*
%TO.P,RR6,2*%
%TO.N,~*%
X188500000Y-111500000D03*
%TD*%
%TO.P,RR5,1*%
%TO.N,Net-(QR1-E)*%
X188500000Y-114500000D03*
%TO.P,RR5,2*%
%TO.N,~*%
X188500000Y-116500000D03*
%TD*%
D12*
%TO.P,RR4,1*%
%TO.N,Net-(QB2-C)*%
X184000000Y-120000000D03*
%TO.P,RR4,2*%
%TO.N,Net-(QR1-C)*%
X182000000Y-120000000D03*
%TD*%
D13*
%TO.P,RR3,1*%
%TO.N,Net-(QR1-B)*%
X188000000Y-130000000D03*
%TO.P,RR3,2*%
%TO.N,~*%
X188000000Y-132000000D03*
%TD*%
D17*
%TO.P,RB9,1*%
%TO.N,Net-(QB3-E)*%
X174500000Y-93000000D03*
%TO.P,RB9,2*%
%TO.N,~*%
X176500000Y-93000000D03*
%TD*%
D13*
%TO.P,RB8,1*%
%TO.N,Net-(QB3-B)*%
X176000000Y-97000000D03*
%TO.P,RB8,2*%
%TO.N,~*%
X176000000Y-99000000D03*
%TD*%
D12*
%TO.P,RB7,1*%
%TO.N,Net-(CB2-Pad2)*%
X172000000Y-106500000D03*
%TO.P,RB7,2*%
%TO.N,Net-(QB2-E)*%
X170000000Y-106500000D03*
%TD*%
D13*
%TO.P,RB6,1*%
%TO.N,Net-(QB2-E)*%
X176000000Y-109000000D03*
%TO.P,RB6,2*%
%TO.N,~*%
X176000000Y-111000000D03*
%TD*%
%TO.P,RB5,1*%
%TO.N,Net-(QB1-E)*%
X176000000Y-114500000D03*
%TO.P,RB5,2*%
%TO.N,~*%
X176000000Y-116500000D03*
%TD*%
D12*
%TO.P,RB4,1*%
%TO.N,Net-(QB2-C)*%
X172000000Y-120000000D03*
%TO.P,RB4,2*%
%TO.N,Net-(QB1-C)*%
X170000000Y-120000000D03*
%TD*%
D13*
%TO.P,RB3,1*%
%TO.N,Net-(QB1-B)*%
X176000000Y-130000000D03*
%TO.P,RB3,2*%
%TO.N,~*%
X176000000Y-132000000D03*
%TD*%
D17*
%TO.P,RB2,1*%
%TO.N,Net-(QB2-C)*%
X175000000Y-120000000D03*
%TO.P,RB2,2*%
%TO.N,Net-(QB1-B)*%
X177000000Y-120000000D03*
%TD*%
%TO.P,RB1,1*%
%TO.N,/PB*%
X170500000Y-131000000D03*
%TO.P,RB1,2*%
%TO.N,~*%
X172500000Y-131000000D03*
%TD*%
D18*
%TO.P,QR3,1,B*%
%TO.N,Net-(QR3-B)*%
X185500000Y-98500000D03*
%TO.P,QR3,2,E*%
%TO.N,Net-(QR3-E)*%
X185500000Y-96600000D03*
%TO.P,QR3,3,C*%
%TO.N,Net-(QB2-C)*%
X182500000Y-97550000D03*
%TD*%
%TO.P,QR2,1,B*%
%TO.N,Net-(QR1-C)*%
X185500000Y-111400000D03*
%TO.P,QR2,2,E*%
%TO.N,Net-(QR2-E)*%
X185500000Y-109500000D03*
%TO.P,QR2,3,C*%
%TO.N,Net-(QB2-C)*%
X182500000Y-110450000D03*
%TD*%
%TO.P,QR1,1,B*%
%TO.N,Net-(QR1-B)*%
X185500000Y-116450000D03*
%TO.P,QR1,2,E*%
%TO.N,Net-(QR1-E)*%
X185500000Y-114550000D03*
%TO.P,QR1,3,C*%
%TO.N,Net-(QR1-C)*%
X182500000Y-115500000D03*
%TD*%
%TO.P,QB3,1,B*%
%TO.N,Net-(QB3-B)*%
X173000000Y-98500000D03*
%TO.P,QB3,2,E*%
%TO.N,Net-(QB3-E)*%
X173000000Y-96600000D03*
%TO.P,QB3,3,C*%
%TO.N,Net-(QB2-C)*%
X170000000Y-97550000D03*
%TD*%
%TO.P,QB2,1,B*%
%TO.N,Net-(QB1-C)*%
X173000000Y-111000000D03*
%TO.P,QB2,2,E*%
%TO.N,Net-(QB2-E)*%
X173000000Y-109100000D03*
%TO.P,QB2,3,C*%
%TO.N,Net-(QB2-C)*%
X170000000Y-110050000D03*
%TD*%
%TO.P,QB1,1,B*%
%TO.N,Net-(QB1-B)*%
X173000000Y-116400000D03*
%TO.P,QB1,2,E*%
%TO.N,Net-(QB1-E)*%
X173000000Y-114500000D03*
%TO.P,QB1,3,C*%
%TO.N,Net-(QB1-C)*%
X170000000Y-115450000D03*
%TD*%
D19*
%TO.P,LR1,1,1*%
%TO.N,Net-(CR2-Pad2)*%
X182675000Y-102500000D03*
%TO.P,LR1,2,2*%
%TO.N,Net-(QR3-B)*%
X185000000Y-102500000D03*
%TD*%
%TO.P,LB1,1,1*%
%TO.N,Net-(CB2-Pad2)*%
X170175000Y-102500000D03*
%TO.P,LB1,2,2*%
%TO.N,Net-(QB3-B)*%
X172500000Y-102500000D03*
%TD*%
D20*
%TO.P,CY1,1*%
%TO.N,/Y*%
X157937500Y-93500000D03*
%TO.P,CY1,2*%
%TO.N,Net-(OUTPUT1-YO)*%
X161062500Y-93500000D03*
%TD*%
D21*
%TO.P,CR4,1*%
%TO.N,Net-(QR3-E)*%
X184537500Y-93000000D03*
%TO.P,CR4,2*%
%TO.N,Net-(OUTPUT1-R-Y)*%
X182462500Y-93000000D03*
%TD*%
D22*
%TO.P,CR3,1*%
%TO.N,~*%
X188862500Y-103000000D03*
%TO.P,CR3,2*%
%TO.N,Net-(QR3-B)*%
X187137500Y-103000000D03*
%TD*%
%TO.P,CR2,1*%
%TO.N,~*%
X188862500Y-106500000D03*
%TO.P,CR2,2*%
%TO.N,Net-(CR2-Pad2)*%
X187137500Y-106500000D03*
%TD*%
D21*
%TO.P,CB4,1*%
%TO.N,Net-(QB3-E)*%
X172000000Y-93000000D03*
%TO.P,CB4,2*%
%TO.N,Net-(OUTPUT1-B-Y)*%
X169925000Y-93000000D03*
%TD*%
D22*
%TO.P,CB3,1*%
%TO.N,~*%
X176362500Y-103000000D03*
%TO.P,CB3,2*%
%TO.N,Net-(QB3-B)*%
X174637500Y-103000000D03*
%TD*%
%TO.P,CB2,1*%
%TO.N,~*%
X176362500Y-106500000D03*
%TO.P,CB2,2*%
%TO.N,Net-(CB2-Pad2)*%
X174637500Y-106500000D03*
%TD*%
D14*
%TO.P,CB1,1*%
%TO.N,Net-(QB1-B)*%
X176000000Y-125500000D03*
%TO.P,CB1,2*%
%TO.N,/PB*%
X170725000Y-125500000D03*
%TD*%
D23*
%TO.P,C82,1*%
%TO.N,Net-(QB2-C)*%
X166500000Y-123937500D03*
%TO.P,C82,2*%
%TO.N,~*%
X166500000Y-127062500D03*
%TD*%
D24*
%TO.P,C81,1*%
%TO.N,Net-(QB2-C)*%
X157500000Y-127000000D03*
D25*
%TO.P,C81,2*%
%TO.N,~*%
X162500000Y-127000000D03*
%TD*%
D26*
%TO.N,Net-(QB2-C)*%
X166500000Y-123937500D02*
X166500000Y-113550000D01*
X172000000Y-120700000D02*
X172000000Y-120000000D01*
X170700000Y-122000000D02*
X172000000Y-120700000D01*
X168437500Y-122000000D02*
X170700000Y-122000000D01*
X166500000Y-123937500D02*
X168437500Y-122000000D01*
X160562500Y-123937500D02*
X166500000Y-123937500D01*
X157500000Y-127000000D02*
X160562500Y-123937500D01*
%TO.N,~*%
X166437500Y-127000000D02*
X166500000Y-127062500D01*
X162500000Y-127000000D02*
X166437500Y-127000000D01*
X176000000Y-111000000D02*
X178201000Y-111000000D01*
X178201000Y-108338500D02*
X178201000Y-111000000D01*
X176000000Y-116500000D02*
X178201000Y-116500000D01*
X178201000Y-113201000D02*
X178201000Y-116500000D01*
X188500000Y-116500000D02*
X190226000Y-116500000D01*
X190226000Y-116500000D02*
X190226000Y-111500000D01*
X190226000Y-111500000D02*
X190226000Y-108000000D01*
X188500000Y-111500000D02*
X190226000Y-111500000D01*
X189801000Y-93801000D02*
X189000000Y-93000000D01*
X189801000Y-98209424D02*
X189801000Y-93801000D01*
X188510424Y-99500000D02*
X189801000Y-98209424D01*
X188500000Y-99500000D02*
X188510424Y-99500000D01*
X189000000Y-93000000D02*
X189000000Y-92000000D01*
X189000000Y-92000000D02*
X194500000Y-86500000D01*
X188862500Y-106500000D02*
X190226000Y-107863500D01*
X190226000Y-107863500D02*
X190226000Y-108000000D01*
X190226000Y-130774000D02*
X190226000Y-116500000D01*
X189000000Y-132000000D02*
X190226000Y-130774000D01*
D27*
%TO.N,Net-(QB3-B)*%
X174500000Y-98500000D02*
X176000000Y-97000000D01*
X173000000Y-98500000D02*
X174500000Y-98500000D01*
D26*
%TO.N,~*%
X177301000Y-97709424D02*
X177301000Y-93801000D01*
X176010424Y-99000000D02*
X177301000Y-97709424D01*
X177301000Y-93801000D02*
X176500000Y-93000000D01*
X176000000Y-99000000D02*
X176010424Y-99000000D01*
X176362500Y-99362500D02*
X176000000Y-99000000D01*
X176362500Y-103000000D02*
X176362500Y-99362500D01*
X176362500Y-103000000D02*
X176362500Y-106500000D01*
X178201000Y-111000000D02*
X178201000Y-113201000D01*
X176362500Y-106500000D02*
X178201000Y-108338500D01*
X178201000Y-116500000D02*
X178201000Y-118701000D01*
X178201000Y-130299000D02*
X178201000Y-118701000D01*
X176000000Y-132000000D02*
X176500000Y-132000000D01*
X176500000Y-132000000D02*
X178201000Y-130299000D01*
X173500000Y-132000000D02*
X172500000Y-131000000D01*
X176000000Y-132000000D02*
X173500000Y-132000000D01*
X185500000Y-132000000D02*
X188000000Y-132000000D01*
X184500000Y-131000000D02*
X185500000Y-132000000D01*
X188862500Y-103000000D02*
X188862500Y-106500000D01*
X188862500Y-99862500D02*
X188500000Y-99500000D01*
X188862500Y-103000000D02*
X188862500Y-99862500D01*
D27*
%TO.N,Net-(QR1-C)*%
X182500000Y-114400000D02*
X185500000Y-111400000D01*
X182500000Y-115500000D02*
X182500000Y-114400000D01*
%TO.N,Net-(QR2-E)*%
X185500000Y-109500000D02*
X188500000Y-109500000D01*
X182500000Y-106500000D02*
X185500000Y-109500000D01*
D26*
%TO.N,Net-(QB2-C)*%
X180500000Y-108450000D02*
X182500000Y-110450000D01*
X180500000Y-99550000D02*
X180500000Y-108450000D01*
X182500000Y-97550000D02*
X180500000Y-99550000D01*
X180000000Y-112950000D02*
X182500000Y-110450000D01*
X181000000Y-121500000D02*
X180000000Y-120500000D01*
X180000000Y-120500000D02*
X180000000Y-112950000D01*
X183000000Y-121500000D02*
X181000000Y-121500000D01*
X184500000Y-120000000D02*
X183000000Y-121500000D01*
%TO.N,~*%
X189500000Y-81500000D02*
X194500000Y-86500000D01*
X163500000Y-84500000D02*
X166500000Y-81500000D01*
X166500000Y-81500000D02*
X189500000Y-81500000D01*
X160000000Y-97000000D02*
X163500000Y-93500000D01*
X163500000Y-93500000D02*
X163500000Y-84500000D01*
%TO.N,Net-(QB2-C)*%
X165500000Y-93050000D02*
X170000000Y-97550000D01*
X165500000Y-84500000D02*
X165500000Y-93050000D01*
X167101000Y-82899000D02*
X165500000Y-84500000D01*
X176399000Y-82899000D02*
X167101000Y-82899000D01*
X178500000Y-85000000D02*
X176399000Y-82899000D01*
X178500000Y-93550000D02*
X178500000Y-85000000D01*
X182500000Y-97550000D02*
X178500000Y-93550000D01*
D27*
%TO.N,/Y*%
X158000000Y-100000000D02*
X158000000Y-97000000D01*
X141500000Y-116500000D02*
X158000000Y-100000000D01*
X141500000Y-141000000D02*
X141500000Y-116500000D01*
X143000000Y-142500000D02*
X141500000Y-141000000D01*
X152500000Y-142500000D02*
X143000000Y-142500000D01*
X158000000Y-137000000D02*
X152500000Y-142500000D01*
D26*
%TO.N,Net-(QB2-C)*%
X155500000Y-129000000D02*
X157500000Y-127000000D01*
X152500000Y-129000000D02*
X155500000Y-129000000D01*
%TO.N,~*%
X162500000Y-139000000D02*
X162500000Y-127000000D01*
X165500000Y-142000000D02*
X162500000Y-139000000D01*
X176000000Y-142000000D02*
X165500000Y-142000000D01*
D27*
%TO.N,Net-(OUTPUT1-YO)*%
X161062500Y-89062500D02*
X158500000Y-86500000D01*
X161062500Y-93500000D02*
X161062500Y-89062500D01*
%TO.N,/Y*%
X158000000Y-93562500D02*
X157937500Y-93500000D01*
X158000000Y-97000000D02*
X158000000Y-93562500D01*
%TO.N,Net-(QB2-C)*%
X184500000Y-120000000D02*
X186962500Y-120000000D01*
D26*
%TO.N,~*%
X176000000Y-132000000D02*
X176000000Y-142000000D01*
X176000000Y-142000000D02*
X189000000Y-142000000D01*
X189000000Y-132000000D02*
X188000000Y-132000000D01*
X194000000Y-137000000D02*
X189000000Y-132000000D01*
X189000000Y-142000000D02*
X194000000Y-137000000D01*
%TO.N,Net-(QB2-C)*%
X168000000Y-99550000D02*
X170000000Y-97550000D01*
X170000000Y-110050000D02*
X168000000Y-108050000D01*
X168000000Y-108050000D02*
X168000000Y-99550000D01*
X166500000Y-113550000D02*
X170000000Y-110050000D01*
%TO.N,Net-(INPUT1-8V)*%
X146000000Y-133130000D02*
X150130000Y-129000000D01*
X146000000Y-137000000D02*
X146000000Y-133130000D01*
D27*
%TO.N,Net-(OUTPUT1-B-Y)*%
X169925000Y-87075000D02*
X170500000Y-86500000D01*
X169925000Y-93000000D02*
X169925000Y-87075000D01*
%TO.N,Net-(OUTPUT1-R-Y)*%
X182462500Y-86537500D02*
X182500000Y-86500000D01*
X182462500Y-93000000D02*
X182462500Y-86537500D01*
%TO.N,/PR*%
X182000000Y-131500000D02*
X182500000Y-131000000D01*
X182000000Y-137000000D02*
X182000000Y-131500000D01*
%TO.N,/PB*%
X170000000Y-137000000D02*
X170000000Y-131500000D01*
X170000000Y-131500000D02*
X170500000Y-131000000D01*
%TO.N,Net-(QB3-E)*%
X172000000Y-95600000D02*
X172000000Y-93000000D01*
X173000000Y-96600000D02*
X172000000Y-95600000D01*
X174500000Y-93000000D02*
X172000000Y-93000000D01*
%TO.N,Net-(QB3-B)*%
X173000000Y-98500000D02*
X172500000Y-99000000D01*
X172500000Y-99000000D02*
X172500000Y-102500000D01*
X174137500Y-102500000D02*
X174637500Y-103000000D01*
X172500000Y-102500000D02*
X174137500Y-102500000D01*
%TO.N,Net-(CB2-Pad2)*%
X170175000Y-102500000D02*
X170175000Y-104675000D01*
X170175000Y-104675000D02*
X172000000Y-106500000D01*
X174637500Y-106500000D02*
X172000000Y-106500000D01*
%TO.N,Net-(QB2-E)*%
X172600000Y-109100000D02*
X170000000Y-106500000D01*
X173000000Y-109100000D02*
X172600000Y-109100000D01*
X173100000Y-109000000D02*
X173000000Y-109100000D01*
X176000000Y-109000000D02*
X173100000Y-109000000D01*
%TO.N,Net-(QB1-B)*%
X173400000Y-116400000D02*
X177000000Y-120000000D01*
X173000000Y-116400000D02*
X173400000Y-116400000D01*
%TO.N,Net-(QB1-E)*%
X173000000Y-114500000D02*
X176000000Y-114500000D01*
%TO.N,Net-(QB1-C)*%
X170000000Y-114000000D02*
X170000000Y-115450000D01*
X173000000Y-111000000D02*
X170000000Y-114000000D01*
X170000000Y-120000000D02*
X170000000Y-115450000D01*
%TO.N,Net-(QB2-C)*%
X175000000Y-120000000D02*
X172000000Y-120000000D01*
%TO.N,Net-(QB1-B)*%
X177000000Y-124500000D02*
X176000000Y-125500000D01*
X177000000Y-120000000D02*
X177000000Y-124500000D01*
%TO.N,/PB*%
X170725000Y-130775000D02*
X170500000Y-131000000D01*
X170725000Y-125500000D02*
X170725000Y-130775000D01*
%TO.N,Net-(QB1-B)*%
X176000000Y-130000000D02*
X176000000Y-125500000D01*
%TO.N,Net-(QR3-E)*%
X184537500Y-93000000D02*
X184537500Y-95637500D01*
X184537500Y-95637500D02*
X185500000Y-96600000D01*
X187000000Y-93000000D02*
X184537500Y-93000000D01*
%TO.N,~*%
X188500000Y-102637500D02*
X188862500Y-103000000D01*
%TO.N,Net-(QR3-B)*%
X187500000Y-98500000D02*
X188500000Y-97500000D01*
X185500000Y-98500000D02*
X187500000Y-98500000D01*
X185000000Y-99000000D02*
X185000000Y-102500000D01*
X185500000Y-98500000D02*
X185000000Y-99000000D01*
%TO.N,Net-(CR2-Pad2)*%
X184500000Y-104325000D02*
X182675000Y-102500000D01*
X184500000Y-106500000D02*
X184500000Y-104325000D01*
%TO.N,Net-(QR3-B)*%
X185500000Y-103000000D02*
X185000000Y-102500000D01*
X187137500Y-103000000D02*
X185500000Y-103000000D01*
%TO.N,Net-(CR2-Pad2)*%
X184175000Y-106175000D02*
X184500000Y-106500000D01*
%TO.N,~*%
X189000000Y-106362500D02*
X188862500Y-106500000D01*
%TO.N,Net-(QR2-E)*%
X182500000Y-106500000D02*
X182500000Y-106600000D01*
%TO.N,Net-(CR2-Pad2)*%
X184500000Y-106500000D02*
X187137500Y-106500000D01*
%TO.N,Net-(QR2-E)*%
X185600000Y-109500000D02*
X185500000Y-109600000D01*
%TO.N,Net-(QR1-C)*%
X182000000Y-116000000D02*
X182500000Y-115500000D01*
X182000000Y-120000000D02*
X182000000Y-116000000D01*
%TO.N,Net-(QB2-C)*%
X184000000Y-120000000D02*
X184500000Y-120000000D01*
%TO.N,Net-(QR1-B)*%
X188000000Y-130000000D02*
X188000000Y-125500000D01*
%TO.N,Net-(QR1-E)*%
X185550000Y-114500000D02*
X185500000Y-114550000D01*
X188500000Y-114500000D02*
X185550000Y-114500000D01*
%TO.N,Net-(QR1-B)*%
X185500000Y-116450000D02*
X189037500Y-119987500D01*
X189037500Y-119987500D02*
X189037500Y-120000000D01*
X188000000Y-121037500D02*
X189037500Y-120000000D01*
X188000000Y-125500000D02*
X188000000Y-121037500D01*
%TO.N,/PR*%
X182500000Y-125725000D02*
X182725000Y-125500000D01*
X182500000Y-131000000D02*
X182500000Y-125725000D01*
X182000000Y-137000000D02*
X180000000Y-135000000D01*
%TO.N,/PB*%
X170000000Y-137000000D02*
X168000000Y-135000000D01*
D28*
%TO.N,Net-(INPUT1-8V)*%
X147630000Y-135370000D02*
X146000000Y-137000000D01*
%TD*%
M02*
